<svg width="95" height="130" viewBox="0 0 95 130" fill="none" xmlns="http://www.w3.org/2000/svg">
<g id="Group">
<path id="Vector" fill-rule="evenodd" clip-rule="evenodd" d="M21.3274 108.177C12.5813 102.85 13.969 102.2 19.9445 95.251C18.5019 92.6538 14.326 99.7761 12.1935 99.085C10.3085 98.3939 8.98005 96.4506 7.44139 95.1278C2.79026 91.1975 9.72088 87.9672 11.9039 85.4374C7.42985 75.4042 13.2386 61.6447 21.2756 56.2895C21.7611 55.9919 22.2599 55.7213 22.7797 55.4906C23.9234 55.014 24.6998 56.9678 23.5379 57.4451C22.9261 57.7277 22.3406 58.0713 21.7743 58.445C16.3068 62.4748 12.9929 69.707 12.2575 76.8055C12.1725 78.8386 12.3549 80.9112 12.992 82.8717C13.3283 84.0345 14.2664 85.2679 13.6393 86.4568C12.1621 88.9198 8.9101 89.7174 7.77839 92.478C8.98457 94.1902 10.8187 95.649 12.4098 97.0176C14.9007 95.598 17.1487 91.4846 20.4345 92.8413C21.3919 93.5184 22.1999 94.8793 21.7583 96.0814C16.7926 103.21 14.0707 101.328 23.0291 106.795C32.2412 96.3661 28.6981 101.941 40.663 102.092C52.7082 101.775 63.371 90.1399 61.9247 76.8807C61.4698 69.4123 57.5126 62.8844 54.0463 56.509C52.3398 53.183 49.631 50.1702 49.5022 46.2408C47.8865 36.7266 59.4153 27.6186 66.1213 36.3416C67.6561 38.4613 68.0188 41.3785 67.4048 43.8533C67.0201 44.9941 65.9912 47.8296 64.4943 46.608C64.0002 46.091 64.1919 45.3105 64.6699 44.9152C67.1028 41.7431 65.2691 36.4264 61.5288 35.2272C54.9476 33.3586 49.9408 41.2282 51.6512 47.7197C55.0504 55.9723 61.1567 63.0825 63.1191 72.0444C68.1726 91.1566 51.3981 108.236 33.8589 103.345C32.3824 103.334 30.5364 101.791 29.3602 103.102C28.0219 104.383 26.8085 105.804 25.5454 107.168C24.5257 108.612 22.897 109.534 21.3274 108.177Z" fill="#82929C" fill-opacity="0.26"/>
<path id="Vector_2" fill-rule="evenodd" clip-rule="evenodd" d="M31.9449 83.423C28.7346 81.0112 27.418 76.2274 28.8575 72.4977C29.7137 69.9924 32.0644 68.6566 32.8572 66.2073C30.0218 62.8672 26.8675 59.6921 23.6688 56.7826C22.7381 55.7054 24.1975 54.3576 25.1467 55.357C27.0139 57.0196 28.661 58.9572 30.462 60.7044C31.9344 62.5828 35.2415 64.3119 34.6926 67.0728C33.8295 69.8312 31.0474 71.3195 30.4051 74.2048C29.1711 86.4029 42.742 84.1925 46.3412 76.2672C48.4867 69.5611 42.0018 63.9115 39.7148 58.0679C38.0024 54.0908 36.7847 49.8846 36.3847 45.5695C33.8182 27.0305 54.0524 13.3873 69.5845 20.2188C70.7466 20.7761 70.0658 22.6692 68.881 22.1339C66.0867 20.9081 63.0291 20.499 60.0722 20.447C46.3397 21.6651 35.112 33.3569 38.8229 48.9305C39.6996 53.1683 41.2744 57.5263 43.5394 61.1542C45.6345 64.6187 48.0301 68.1789 48.6614 72.2896C50.0797 80.6071 38.4413 88.3161 31.9449 83.423Z" fill="#82929C" fill-opacity="0.26"/>
<path id="Vector_3" fill-rule="evenodd" clip-rule="evenodd" d="M82.6283 33.0108C81.2324 31.4844 86.1227 28.8259 86.7743 27.3447C81.7184 21.5479 82.6844 25.4557 78.2924 27.9606C76.597 28.5067 75.3172 26.3045 74.4831 24.9844C73.6736 22.513 77.0255 21.2188 77.9013 19.278C74.7713 16.7072 73.9256 16.7036 71.4121 19.666C70.6848 20.2151 69.9991 21.5049 68.9566 21.1059C67.7761 20.4383 68.5567 19.2742 69.3682 18.8057C70.3825 17.8737 71.3203 16.848 72.3173 15.8969C74.552 14.1318 77.809 16.3861 79.5515 18.2405C80.7801 20.7722 77.4312 22.5493 76.271 24.288C76.6755 24.9059 77.1602 25.4688 77.6829 25.9729C79.5647 24.9746 80.5224 22.2002 82.8403 22.1087C85.1064 22.635 87.4236 24.6732 88.6088 26.8114C89.0638 28.2769 87.8022 29.3031 86.9569 30.1751C85.8099 30.8716 83.9987 34.2146 82.6283 33.0108Z" fill="#82929C" fill-opacity="0.26"/>
<path id="Vector_4" fill-rule="evenodd" clip-rule="evenodd" d="M76.6135 57.7707C74.8937 56.8465 73.7633 55.013 72.4057 53.5935C69.7907 50.7834 66.9592 48.3999 64.2223 45.758C63.2159 44.9207 64.3658 43.2765 65.3662 44.1377C69.5324 47.7818 73.328 51.8868 77.2187 55.816C82.2069 50.6758 87.4751 41.54 82.1646 34.3014C80.8732 33.6851 81.3017 31.66 82.7272 32.241C88.546 37.4754 86.3707 46.9534 82.5052 52.4041C81.2415 53.9686 78.8415 58.7191 76.6135 57.7707Z" fill="#82929C" fill-opacity="0.26"/>
<path id="Vector_5" fill-rule="evenodd" clip-rule="evenodd" d="M50.66 44.4435C49.451 43.0235 51.3366 40.5825 52.0543 39.3384C55.0791 34.5846 64.0531 34.6424 67.1369 39.7298C67.4165 40.2172 67.31 40.8512 66.8689 41.1452C65.9893 41.715 65.4739 40.6462 64.9869 40.0102C62.0595 37.1561 56.0727 37.1016 53.7123 40.4793C53.0776 41.3424 52.5488 42.3136 52.2237 43.3685C52.2368 44.2484 51.4609 45.0566 50.66 44.4435Z" fill="#82929C" fill-opacity="0.26"/>
<path id="Vector_6" fill-rule="evenodd" clip-rule="evenodd" d="M74.0278 64.3314C70.5687 60.6605 66.1825 58.0762 62.9276 54.1865C62.3257 53.3352 62.7283 52.2669 62.8197 51.358C63.1716 49.3142 63.0067 47.0674 63.7003 45.1388C64.2918 44.1022 65.8923 44.8819 65.5011 46.0654C64.8324 48.2746 64.9933 50.799 64.5236 53.1016C67.8048 56.73 71.9517 59.3019 75.3102 62.8459C76.2503 63.7719 74.9487 65.2746 74.0278 64.3314Z" fill="#82929C" fill-opacity="0.26"/>
<path id="Vector_7" fill-rule="evenodd" clip-rule="evenodd" d="M74.8789 63.3883C75.2071 61.9265 74.6653 56.2708 76.5806 56.5296C77.7366 56.738 77.4767 57.8741 77.2473 58.7098C77.0524 60.3399 76.9378 61.9852 76.8354 63.629C76.7569 64.9733 74.7827 64.7427 74.8789 63.3883Z" fill="#82929C" fill-opacity="0.26"/>
<path id="Vector_8" fill-rule="evenodd" clip-rule="evenodd" d="M75.1149 63.7976C74.8273 62.3054 78.0224 62.0315 78.9054 60.9827C84.3484 56.9079 85.1972 48.8811 84.5687 42.1359C84.4567 40.7873 86.468 40.7252 86.5321 42.0921C87.5226 50.8989 85.1866 61.7513 76.5248 64.5904C76.5577 64.5717 76.5905 64.5529 76.6234 64.5342C76.6239 64.5321 76.6255 64.5303 76.6263 64.5272C76.0759 64.9283 75.2253 64.5156 75.1149 63.7976Z" fill="#82929C" fill-opacity="0.26"/>
<path id="Vector_9" fill-rule="evenodd" clip-rule="evenodd" d="M83.9762 35.4856C83.6674 33.9952 86.2024 33.0639 86.9643 32.0057C88.0442 30.7259 86.6263 28.6995 87.2069 27.2821C89.4807 25.1149 89.6293 31.6371 88.9256 32.767C88.1228 34.1151 86.6855 34.8647 85.6134 35.9425C85.1156 36.4771 84.2104 36.2318 83.9762 35.4856Z" fill="#82929C" fill-opacity="0.26"/>
<path id="Vector_10" fill-rule="evenodd" clip-rule="evenodd" d="M78.9437 23.6217C79.2006 22.2636 77.6243 18.7666 79.6185 18.7811C81.0589 19.0223 80.6795 22.3646 80.884 23.5786C80.9725 24.9272 79.0162 24.9786 78.9437 23.6217Z" fill="#82929C" fill-opacity="0.26"/>
<path id="Vector_11" fill-rule="evenodd" clip-rule="evenodd" d="M29.4807 107.121C28.9584 106.418 29.5486 105.296 30.3719 105.497C33.8303 106.353 37.3933 106.872 40.8827 106.764C46.1065 106.465 51.4488 104.701 55.5011 101.251C60.656 96.3332 63.4893 88.5701 63.1008 81.014C62.8849 77.9573 62.2074 74.9244 61.0234 72.086C60.807 70.7943 58.9801 69.0413 60.2529 68.0177C62.3666 66.5433 65.0436 78.6141 64.9776 80.2361C65.7252 89.735 61.7283 99.9224 54.2079 104.828C46.9423 109.14 37.5212 110.224 29.4807 107.121Z" fill="#82929C" fill-opacity="0.26"/>
<path id="Vector_12" fill-rule="evenodd" clip-rule="evenodd" d="M28.4351 107.731C27.964 106.677 28.4726 105.414 28.5418 104.316C28.6819 103.219 29.07 100.93 30.547 101.954C31.3065 102.609 30.6437 103.467 30.5652 104.239C30.2007 105.473 30.5894 109.587 28.4351 107.731Z" fill="#82929C" fill-opacity="0.26"/>
<path id="Vector_13" fill-rule="evenodd" clip-rule="evenodd" d="M20.9101 115.313C19.3913 114.704 20.7701 109.616 21.5968 108.807C23.9975 108.231 22.6069 111.193 22.3646 112.413C25.0276 110.643 26.9585 107.826 29.7255 106.412C31.0475 106.234 31.3545 108.509 30 108.55C28.0625 109.851 22.9106 115.81 20.9101 115.313Z" fill="#82929C" fill-opacity="0.26"/>
<path id="Vector_14" fill-rule="evenodd" clip-rule="evenodd" d="M20.3522 114.78C17.9432 113.112 14.3534 111.349 12.9945 108.589C12.903 107.554 13.5501 106.682 13.7769 105.72C14.3107 104.577 14.2062 102.707 15.3961 102.131C16.542 101.908 16.8755 103.333 16.3048 104.142C15.8821 105.535 15.4897 106.943 14.9591 108.288C16.893 110.164 19.0675 111.686 21.3274 113.036C22.4157 113.739 21.4224 115.526 20.3522 114.78Z" fill="#82929C" fill-opacity="0.26"/>
<path id="Vector_15" fill-rule="evenodd" clip-rule="evenodd" d="M10.234 105.641C9.41505 105.111 9.67597 104.123 9.98681 103.39C10.4699 101.887 10.7604 100.322 11.0751 98.7635C11.1579 97.2362 13.3609 97.5661 13.0379 99.0858C12.6604 100.534 12.4775 102.052 12.0254 103.478C12.6687 103.256 13.3039 103.007 13.9265 102.726C15.0764 102.244 15.837 104.221 14.6771 104.684C13.2928 105.139 11.7248 106.276 10.234 105.641Z" fill="#82929C" fill-opacity="0.26"/>
<path id="Vector_16" fill-rule="evenodd" clip-rule="evenodd" d="M10.1344 105.395C7.91125 103.534 4.04056 100.974 4.45777 97.5867C5.14393 96.2254 5.00088 92.6851 6.64312 92.5015C7.16882 92.4873 7.61536 93.0385 7.61914 93.5785C7.17992 95.1804 6.60159 96.8578 6.31151 98.5095C7.33165 100.695 9.29298 102.257 11.1124 103.647C12.2 104.368 11.205 106.138 10.1344 105.395Z" fill="#82929C" fill-opacity="0.26"/>
<path id="Vector_17" fill-rule="evenodd" clip-rule="evenodd" d="M29.2743 78.6454C29.7377 77.0348 30.8274 75.6644 32.323 75.0827C32.9226 72.8489 33.3947 70.5708 33.2246 68.2137C32.9421 66.9675 33.1486 65.4168 34.6746 66.2806C35.9582 68.486 34.9084 74.5113 33.7603 76.6388C32.6859 77.2732 31.5103 77.8582 31.1793 79.2754C30.8689 80.5775 28.9177 79.9333 29.2743 78.6454Z" fill="#82929C" fill-opacity="0.26"/>
<path id="Vector_18" fill-rule="evenodd" clip-rule="evenodd" d="M32.6766 31.3159C30.3433 29.9918 37.7541 20.5382 39.3463 19.7095C39.9806 19.1692 40.6401 18.6611 41.315 18.1808C42.3457 17.4581 43.4653 19.2442 42.4178 19.9569C41.1328 20.864 39.9248 21.8911 38.8264 23.0443C37.5642 24.2996 36.539 25.7928 35.6712 27.3883C34.7437 28.4123 34.3705 32.0161 32.6766 31.3159Z" fill="#82929C" fill-opacity="0.26"/>
<path id="Vector_19" fill-rule="evenodd" clip-rule="evenodd" d="M48.1731 15.0994C47.2914 13.2954 51.9565 12.3995 52.0418 14.2293C52.1213 15.2837 51.0679 15.3536 50.3381 15.3881C49.5982 15.4752 48.6519 16.1234 48.1731 15.0994Z" fill="#82929C" fill-opacity="0.26"/>
<path id="Vector_20" fill-rule="evenodd" clip-rule="evenodd" d="M62.7215 104.173C61.8514 103.29 62.8645 102.416 63.3632 101.738C65.1833 99.1154 66.7517 96.24 67.5153 93.0246C67.8161 91.8258 67.9128 90.5802 68.0925 89.354C68.2047 88.8002 68.6949 88.4295 69.2378 88.5575C70.4164 88.875 69.9415 90.2249 69.8679 91.1143C70.1478 93.2543 65.0855 106.207 62.7215 104.173Z" fill="#82929C" fill-opacity="0.26"/>
<path id="Vector_21" fill-rule="evenodd" clip-rule="evenodd" d="M56.411 109.179C55.7291 107.972 57.2205 107.483 57.7899 106.774C58.1731 106.256 58.6566 105.617 59.3604 106.03C61.2572 107.054 57.3495 110.885 56.411 109.179Z" fill="#82929C" fill-opacity="0.26"/>
</g>
</svg>
