<svg width="139" height="138" viewBox="0 0 139 138" fill="none" xmlns="http://www.w3.org/2000/svg">
<g id="Group">
<path id="Vector" fill-rule="evenodd" clip-rule="evenodd" d="M120.943 75.1596C124.08 72.8391 125.49 68.4089 124.21 64.3843C122.089 60.3651 118.255 57.6132 114.787 55.0655C114.335 54.7636 114.239 54.0659 114.513 53.6318C115.75 51.8127 121.58 58.2755 122.892 59.3569C129.359 64.9426 126.68 75.2526 119.847 78.3128C111.047 83.0485 100.645 81.526 91.2941 84.3043C82.5328 86.0411 60.7951 97.761 53.6788 94.1023C49.2509 91.7035 45.3409 88.3297 41.3474 85.179C35.73 80.659 29.7611 76.6743 24.1731 72.1129C23.5719 71.5068 22.6401 71.0393 22.4623 70.127C22.3696 69.2487 23.4286 68.6881 24.0406 69.3346C25.2233 70.558 26.416 71.4235 27.6974 72.439C32.0047 75.6685 36.3517 78.8366 40.6271 82.118C45.2613 85.6593 49.6439 89.7191 54.7617 92.4179C60.5008 94.0781 68.4098 89.7336 73.9853 88.1413C81.5452 85.4603 88.9736 82.2314 96.941 80.9472C105.037 79.7838 114.025 80.1575 120.943 75.1596Z" fill="#82929C" fill-opacity="0.26"/>
<path id="Vector_2" fill-rule="evenodd" clip-rule="evenodd" d="M111.675 61.0827C102.75 56.7689 95.122 49.756 86.0851 45.7857C84.6536 45.0891 85.8494 43.1512 87.1117 43.9986C92.709 46.7185 97.9584 50.1655 103.053 53.8636C106.138 55.806 109.322 57.5514 112.501 59.2986C113.612 59.9005 112.783 61.7153 111.675 61.0827Z" fill="#82929C" fill-opacity="0.26"/>
<path id="Vector_3" fill-rule="evenodd" clip-rule="evenodd" d="M107.541 57.601C107.374 54.3828 110.037 51.8037 111.568 49.3106C116.245 43.4152 123.562 39.8233 131.001 40.7052C123.959 37.0861 117.351 32.0771 110.178 28.9577C103.383 29.7022 97.5118 34.3067 93.4419 39.8687C92.2439 41.5477 91.0793 43.2738 90.1268 45.1342C89.8826 45.6189 89.3323 45.828 88.8462 45.5552C86.5693 44.3092 94.1671 35.7532 95.3366 34.5066C99.5832 30.4444 108.174 24.1916 113.926 28.4558C120.053 32.0874 126.21 35.6654 132.358 39.2349C134.146 40.0984 135.835 42.8946 132.722 42.8118C122.885 41.2858 113.509 47.1065 109.509 56.5334C109.287 57.1594 109.551 58.0453 108.768 58.2786C108.28 58.4469 107.722 58.1391 107.541 57.601Z" fill="#82929C" fill-opacity="0.26"/>
<path id="Vector_4" fill-rule="evenodd" clip-rule="evenodd" d="M114.948 53.7356C113.844 53.114 110.325 52.1763 112.186 50.4957C113.211 50.2195 114.694 51.6356 115.777 51.9301C116.903 52.5332 116.058 54.3801 114.948 53.7356Z" fill="#82929C" fill-opacity="0.26"/>
<path id="Vector_5" fill-rule="evenodd" clip-rule="evenodd" d="M22.6279 69.1365C23.1957 64.4541 33.9863 62.5993 37.6846 60.8828C46.0009 57.9104 54.2059 54.5777 62.2839 50.9804C73.1588 47.4135 77.4735 32.8273 90.4336 38.6625C91.3718 39.3448 93.604 39.5749 93.6639 40.9144C93.6414 41.459 93.1842 41.9246 92.6618 41.8546C83.9039 37.1023 79.0244 39.8833 72.8216 46.6939C70.0533 49.6186 66.4124 51.2836 62.9003 52.9826C55.7242 56.2032 48.4039 59.0974 41.0631 61.8961C37.0184 63.7595 26.6469 65.6958 24.5489 69.3177C24.5339 70.6446 22.5319 70.4745 22.6279 69.1365Z" fill="#82929C" fill-opacity="0.26"/>
<path id="Vector_6" fill-rule="evenodd" clip-rule="evenodd" d="M13.9322 93.7449C16.8569 93.5612 14.6075 99.0808 12.1873 96.3882C10.9976 95.1377 12.5032 92.7431 13.9322 93.7449Z" fill="#82929C" fill-opacity="0.26"/>
<path id="Vector_7" fill-rule="evenodd" clip-rule="evenodd" d="M26.0654 89.5278C26.5181 91.3529 22.5014 91.6419 21.4378 92.4326C20.5144 92.6096 19.7784 93.612 18.8277 93.4092C16.6506 91.7206 20.319 90.6615 21.465 90.1791C22.7909 89.9871 25.1337 87.7405 26.0654 89.5278Z" fill="#82929C" fill-opacity="0.26"/>
<path id="Vector_8" fill-rule="evenodd" clip-rule="evenodd" d="M27.9 95.7592C29.2171 95.4706 33.4771 92.9964 35.9859 92.5325C31.8597 89.7962 27.6532 87.195 23.8275 83.9799C24.3113 85.8232 18.995 86.3315 17.7515 87.0897C13.4725 88.798 8.44512 89.765 5.06966 93.1172C7.57803 96.0653 11.0126 99.3453 14.6166 102.027C15.8372 99.6069 26.6843 96.6661 27.9 95.7592ZM44.5382 98.8756C40.269 101.533 35.361 102.867 30.7708 104.816C28.0375 105.733 25.2887 107.707 22.2894 106.506C21.6148 106.241 20.9271 105.928 20.2306 105.574C25.6427 103.995 31.1403 101.393 36.3342 99.2119C37.2298 98.4851 40.6722 97.7375 41.6837 96.5417C42.6554 97.287 43.6093 98.0609 44.5382 98.8756ZM44.9714 96.7354C45.6678 97.3655 46.8755 97.7834 46.8473 98.9251C45.5479 102.353 37.4011 104.06 34.2029 105.687C29.7439 107.19 25.1447 110.569 20.3314 107.898C16.6948 106.421 3.93507 96.9112 3.15165 93.0785C3.94634 88.9616 11.6575 87.4249 14.9264 85.8688C17.4757 84.9844 20.0486 84.1693 22.589 83.2574C22.8856 83.1542 23.2078 83.2292 23.4549 83.423C23.2826 80.9819 25.8572 82.7128 26.6848 83.7001C28.2946 85.0639 29.9974 86.297 31.7404 87.4497C36.2478 90.3742 40.9122 93.08 44.9714 96.7354Z" fill="#82929C" fill-opacity="0.26"/>
<path id="Vector_9" fill-rule="evenodd" clip-rule="evenodd" d="M18.0354 83.1867C18.1556 81.0304 21.2623 68.1216 23.8775 69.3655C24.7756 69.6738 24.7769 71.1381 23.8867 71.3599C22.5269 74.0145 21.4319 76.8534 20.6591 79.7836C20.3682 81.0557 20.1701 82.3482 19.9881 83.646C19.779 84.9736 17.8061 84.5202 18.0354 83.1867Z" fill="#82929C" fill-opacity="0.26"/>
<path id="Vector_10" fill-rule="evenodd" clip-rule="evenodd" d="M50.0985 111.277C50.7653 106.875 52.0056 102.635 52.9238 98.3149C53.382 97.0958 53.0677 95.0154 54.4169 94.4951C54.9413 94.3603 55.4955 94.8127 55.608 95.3517C54.8224 99.626 53.6269 103.935 52.7154 108.165C52.1086 109.48 52.7995 112.578 50.9089 112.535C50.3745 112.413 50.0059 111.841 50.0985 111.277ZM54.8714 96.5642C54.9827 96.5412 55.0857 96.4949 55.1826 96.4339C55.1826 96.4339 55.1788 96.4361 55.1782 96.4382C55.1878 96.431 55.1963 96.4235 55.2055 96.4174C55.105 96.484 54.992 96.5305 54.8714 96.5642Z" fill="#82929C" fill-opacity="0.26"/>
<path id="Vector_11" fill-rule="evenodd" clip-rule="evenodd" d="M48.2973 114.225C44.4597 112.431 41.0885 109.747 37.7416 107.071C36.9928 106.381 35.3571 105.91 35.6545 104.611C36.4023 102.469 39.8298 106.554 41.0163 107.171C43.7397 109.139 47.141 112.287 50.348 112.568C50.7627 112.255 51.3894 112.438 51.6736 112.893C52.4737 114.958 49.4303 115.013 48.2973 114.225Z" fill="#82929C" fill-opacity="0.26"/>
<path id="Vector_12" fill-rule="evenodd" clip-rule="evenodd" d="M50.9389 114.628C48.111 111.95 54.7712 112.069 56.0671 111.721C62.1558 111.072 68.1813 110.065 74.1523 108.769C83.9275 106.918 93.7646 105.316 103.353 102.638C112.954 100.246 121.182 99.2579 122.977 87.046C122.975 87.0543 122.973 87.063 122.972 87.0671C122.97 87.0755 122.968 87.0838 122.967 87.0934C124.248 80.9652 125.988 74.7109 125.51 68.2949C125.166 67.1133 124.881 64.9881 126.682 65.8286C129.409 71.0987 124.928 88.5889 122.825 94.2217C120.332 100.339 113.776 102.056 108.224 103.587C102.322 105.009 96.4805 106.683 90.5124 107.828C77.3848 110.35 64.1354 112.935 50.9389 114.628Z" fill="#82929C" fill-opacity="0.26"/>
<path id="Vector_13" fill-rule="evenodd" clip-rule="evenodd" d="M77.7865 56.7546C76.6735 55.3447 81.1109 52.671 81.8741 51.4348C82.7292 50.2949 85.1704 48.6935 84.9363 51.4467C83.8678 52.5368 82.5621 53.498 81.5052 54.7075C80.4219 55.39 79.1842 58.1046 77.7865 56.7546Z" fill="#82929C" fill-opacity="0.26"/>
<path id="Vector_14" fill-rule="evenodd" clip-rule="evenodd" d="M104.449 64.8128C96.6377 60.0571 89.3253 54.3689 81.3349 49.9747C79.8303 49.3959 81.0204 47.21 82.2793 48.2497C88.3217 51.4336 93.8168 55.718 99.5802 59.3947C100.767 60.535 106.913 62.8211 105.777 64.6272C105.484 65.0714 104.87 65.1461 104.449 64.8128Z" fill="#82929C" fill-opacity="0.26"/>
<path id="Vector_15" fill-rule="evenodd" clip-rule="evenodd" d="M96.1503 69.5124C95.8122 69.0538 95.8833 68.402 96.285 68.0559C98.1869 66.4913 99.8866 64.5971 101.918 63.2338C103.316 62.5256 104.219 65.0799 102.606 65.2485C101.165 65.9098 97.359 71.2186 96.1503 69.5124Z" fill="#82929C" fill-opacity="0.26"/>
<path id="Vector_16" fill-rule="evenodd" clip-rule="evenodd" d="M97.7439 73.1568C90.0309 67.5437 81.7797 62.7604 74.5418 56.4049C73.6937 55.3291 75.283 54.0548 76.0441 55.2013C81.0982 59.2592 86.2722 63.1622 91.7184 66.5739C94.1562 68.12 96.4713 69.8775 98.8401 71.5434C99.8577 72.3183 98.7513 73.9803 97.7439 73.1568ZM75.0629 56.75C75.1431 56.7688 75.2217 56.7816 75.3038 56.7845L75.3019 56.7839C75.3106 56.7823 75.3194 56.7808 75.3284 56.7783C75.1864 56.7799 75.0415 56.7474 74.9056 56.6835C74.9527 56.7168 75.0092 56.73 75.0629 56.75Z" fill="#82929C" fill-opacity="0.26"/>
<path id="Vector_17" fill-rule="evenodd" clip-rule="evenodd" d="M56.0274 88.1294C52.4558 84.3091 29.2826 71.5248 42.5523 68.2007C47.9705 66.2393 53.3221 64.0904 58.667 61.9302C60.082 61.6667 64.2906 58.8922 65.1619 60.1333C66.969 58.7336 74.1535 65.5935 76.0016 66.9982C78.0543 69.3492 88.2616 74.9912 84.2474 78.3713C79.8666 81.2527 74.8328 82.8585 70.1523 85.1339C65.7691 86.6917 60.7963 89.9366 56.0274 88.1294ZM57.2281 86.5052C61.5277 87.0276 65.6015 84.655 69.4947 83.164C74.0703 80.9039 79.0731 79.413 83.3111 76.4918C81.6533 73.6725 78.7178 72.0037 76.3843 69.8853C72.8435 66.7389 69.1591 63.7569 65.1395 61.4296C58.1345 64.6184 50.7931 67.2717 43.5827 70.0244C39.4037 71.1387 39.729 72.2213 42.8825 75.1436C47.4239 79.2726 52.4466 82.7531 57.2281 86.5052Z" fill="#82929C" fill-opacity="0.26"/>
<path id="Vector_18" fill-rule="evenodd" clip-rule="evenodd" d="M60.7557 68.3394C58.6229 66.3389 61.8955 63.7858 62.6562 66.3766C62.772 65.2457 64.4019 65.2836 64.5557 66.4349C65.0782 68.7621 62.2243 69.8488 60.7557 68.3394ZM62.5125 66.9617C62.5722 66.9513 62.6359 66.9377 62.6825 66.8949C62.6899 66.7897 62.6486 66.6805 62.648 66.5736C62.6301 66.7124 62.5821 66.8446 62.5125 66.9617Z" fill="#82929C" fill-opacity="0.26"/>
<path id="Vector_19" fill-rule="evenodd" clip-rule="evenodd" d="M66.4967 73.1354C64.3145 71.6298 66.5565 68.1402 68.1816 70.1871C71.1475 68.8313 69.8667 75.386 66.4967 73.1354Z" fill="#82929C" fill-opacity="0.26"/>
<path id="Vector_20" fill-rule="evenodd" clip-rule="evenodd" d="M72.0738 77.0071C69.1001 75.2296 73.1485 71.8979 73.7528 74.8028C76.145 75.5454 73.6639 78.2225 72.0738 77.0071Z" fill="#82929C" fill-opacity="0.26"/>
<path id="Vector_21" fill-rule="evenodd" clip-rule="evenodd" d="M53.3242 73.0447C51.0707 71.6552 52.4714 68.1813 54.735 69.9057C57.4902 70.5526 55.7658 74.7094 53.3242 73.0447Z" fill="#82929C" fill-opacity="0.26"/>
<path id="Vector_22" fill-rule="evenodd" clip-rule="evenodd" d="M58.4763 77.1462C55.6246 76.1798 57.8734 72.4615 59.3776 74.4566C61.912 73.4595 61.5983 78.4205 58.4763 77.1462Z" fill="#82929C" fill-opacity="0.26"/>
<path id="Vector_23" fill-rule="evenodd" clip-rule="evenodd" d="M63.2756 81.6293C61.0606 79.9503 64.5733 76.753 65.6424 79.0102C68.3591 79.3521 66.3352 84.1961 63.2756 81.6293Z" fill="#82929C" fill-opacity="0.26"/>
<path id="Vector_24" fill-rule="evenodd" clip-rule="evenodd" d="M46.5156 74.9556C45.8009 73.451 48.1221 71.7628 48.835 73.5321C51.4181 74.8534 47.4547 77.3244 46.5156 74.9556Z" fill="#82929C" fill-opacity="0.26"/>
<path id="Vector_25" fill-rule="evenodd" clip-rule="evenodd" d="M51.9193 79.4075C50.0917 77.6409 53.8582 74.792 54.1059 77.6903C56.1351 79.1977 53.1892 81.1116 51.9193 79.4075Z" fill="#82929C" fill-opacity="0.26"/>
<path id="Vector_26" fill-rule="evenodd" clip-rule="evenodd" d="M57.7075 83.552C57.1464 81.9262 59.8153 80.8092 60.0993 82.7153C61.1271 84.5218 58.1858 85.5377 57.7075 83.552Z" fill="#82929C" fill-opacity="0.26"/>
<path id="Vector_27" fill-rule="evenodd" clip-rule="evenodd" d="M105.187 48.838C102.656 47.5348 100.274 45.8903 97.7238 44.6402C95.765 44.7501 96.5345 41.8023 98.2438 42.7111C100.94 43.9521 103.413 45.7317 106.069 47.0786C107.173 47.714 106.274 49.5147 105.187 48.838Z" fill="#82929C" fill-opacity="0.26"/>
<path id="Vector_28" fill-rule="evenodd" clip-rule="evenodd" d="M108.463 45.4331C107.106 44.5388 97.5718 41.9424 100.107 39.7415C100.513 39.4818 101.06 39.6075 101.361 40.0114C103.858 41.401 106.495 42.4884 109.114 43.5606C110.275 44.0464 109.62 45.9416 108.463 45.4331Z" fill="#82929C" fill-opacity="0.26"/>
<path id="Vector_29" fill-rule="evenodd" clip-rule="evenodd" d="M111.59 42.4975C110.328 41.4185 101.86 37.472 102.833 36.1228C103.724 34.238 106.79 37.6661 108.135 38.0952C109.186 39.1111 113.636 40.4436 112.879 42.1263C112.637 42.6123 112.043 42.7691 111.59 42.4975Z" fill="#82929C" fill-opacity="0.26"/>
<path id="Vector_30" fill-rule="evenodd" clip-rule="evenodd" d="M115.658 39.2041C113.561 38.1121 111.429 37.09 109.373 35.9078C108.564 35.337 109.03 33.9117 109.976 34.0759C112.216 35.3632 114.909 36.2208 116.844 37.8671C117.227 38.6535 116.415 39.5852 115.658 39.2041Z" fill="#82929C" fill-opacity="0.26"/>
<path id="Vector_31" fill-rule="evenodd" clip-rule="evenodd" d="M96.8446 99.4361C97.4993 98.1072 101.26 97.5255 102.695 97.0661C104.251 96.9854 104.126 99.268 102.637 99.2005C101.192 99.1164 96.7882 102.386 96.8446 99.4361Z" fill="#82929C" fill-opacity="0.26"/>
<path id="Vector_32" fill-rule="evenodd" clip-rule="evenodd" d="M106.937 96.0386C107.41 94.6909 109.296 95.492 110.368 95.0877C111.586 94.8933 111.948 96.9556 110.726 97.1274C109.557 97.1223 106.863 98.1801 106.937 96.0386Z" fill="#82929C" fill-opacity="0.26"/>
<path id="Vector_33" fill-rule="evenodd" clip-rule="evenodd" d="M56.8339 41.9408C54.1582 40.304 51.5608 38.5153 48.8438 36.9589C48.1595 36.6416 47.1976 36.1572 47.5708 35.2043C48.5696 33.4409 51.8198 36.8074 53.1933 37.3066C54.2217 38.3325 59.0727 40.0476 58.1387 41.638C57.8856 42.1079 57.2752 42.2361 56.8339 41.9408Z" fill="#82929C" fill-opacity="0.26"/>
<path id="Vector_34" fill-rule="evenodd" clip-rule="evenodd" d="M62.8081 35.345C61.6153 33.255 60.5042 31.1135 59.411 28.9645C59.0972 28.1659 58.3478 27.321 58.6159 26.4341C58.9015 25.6251 60.1147 25.6654 60.3945 26.519C61.5831 29.2259 63.0566 31.8027 64.4758 34.385C65.115 35.5636 63.4324 36.5412 62.8081 35.345Z" fill="#82929C" fill-opacity="0.26"/>
<path id="Vector_35" fill-rule="evenodd" clip-rule="evenodd" d="M72.6686 30.8827C72.4206 28.8019 71.7488 26.7834 71.1981 24.8132C73.2562 21.2847 74.3101 29.2515 74.5884 30.685C74.7771 32.0174 72.8476 32.2367 72.6686 30.8827Z" fill="#82929C" fill-opacity="0.26"/>
</g>
</svg>
