<svg width="107" height="128" viewBox="0 0 107 128" fill="none" xmlns="http://www.w3.org/2000/svg">
<g id="Group">
<path id="Vector" fill-rule="evenodd" clip-rule="evenodd" d="M34.5602 43.42C27.8347 40.7953 21.5761 33.7327 21.7262 25.7914C21.7339 19.1809 24.2305 12.7113 29.1499 8.8304C30.6813 7.75092 33.2318 5.56254 35.1155 6.46589C47.0399 3.93594 62.0918 13.6583 62.113 27.7831C61.9031 33.2928 58.4363 37.8296 54.8094 41.2663C49.2425 45.6651 41.1274 46.3933 34.5602 43.42ZM37.868 42.52C46.394 44.6464 54.4705 41.3431 58.618 33.2335C62.8324 25.8399 57.7784 16.2418 51.3166 11.9838C46.9695 9.18081 41.8987 7.74725 36.9527 8.25876C35.7253 8.21541 34.399 9.24532 33.2488 8.67911C26.3825 11.8536 22.8787 20.3255 23.7922 28.2711C25.1765 35.5634 31.4761 40.6576 37.868 42.52Z" fill="#82929C" fill-opacity="0.26"/>
<path id="Vector_2" fill-rule="evenodd" clip-rule="evenodd" d="M34.0434 51.7339C24.331 47.5868 16.3113 38.7217 19.9834 27.137C20.6111 24.7475 21.5082 22.4658 22.2745 20.1338C22.4361 19.6079 22.9766 19.3248 23.4785 19.5191C25.124 20.4305 23.0356 23.0581 22.866 24.4218C21.2646 29.129 19.8025 34.8899 22.6075 39.5916C26.2892 45.6244 32.7316 50.401 39.4384 50.7285C51.3501 52.0209 58.032 46.2795 59.9585 33.7914C60.0765 32.4776 60.0867 31.1481 60.0912 29.8244C60.0939 29.2635 60.5772 28.8348 61.0868 28.8806C62.7561 29.3321 61.7606 31.8921 61.934 33.2046C61.3935 39.4833 58.6885 45.8751 54.0681 49.7007C48.35 53.6795 40.6502 53.614 34.0434 51.7339Z" fill="#82929C" fill-opacity="0.26"/>
<path id="Vector_3" fill-rule="evenodd" clip-rule="evenodd" d="M56.9132 112.146C41.6492 105.188 43.0615 86.463 53.9577 76.7761C58.3014 72.103 66.1187 72.2215 71.677 75.1483C77.8552 78.9408 83.5341 85.4662 84.9793 93.0633C86.5097 108.091 68.9528 117.311 56.9132 112.146ZM58.8559 110.696C67.3102 113.398 77.0416 109.299 81.5429 101.553C85.3575 95.0358 81.8412 87.0993 76.9571 82.0641C68.5317 72.0806 56.2671 73.0446 50.4006 84.4417C44.6929 94.729 47.4436 106.506 58.8559 110.696Z" fill="#82929C" fill-opacity="0.26"/>
<path id="Vector_4" fill-rule="evenodd" clip-rule="evenodd" d="M57.9253 120.477C53.3277 118.381 48.3644 115.443 45.5026 110.881C44.7902 108.976 44.7225 106.886 44.5478 104.885C44.6001 103.246 43.9119 92.87 46.2762 93.9204C46.7826 94.1163 47.0967 94.7751 46.8795 95.3037C46.4198 100.273 45.652 105.998 47.6393 110.75C55.4324 119.825 68.3768 123.258 77.8823 116.514C82.0937 112.732 83.6948 106.271 83.5146 100.4C83.48 99.1833 83.3964 97.9723 83.2328 96.7603C83.1302 95.8648 82.5477 94.466 83.7165 94.1944C84.2255 94.0941 84.75 94.4743 84.8646 95.0273C86.4286 103.388 85.0253 113.609 78.4127 118.676C72.3792 122.4 64.684 123.373 57.9253 120.477Z" fill="#82929C" fill-opacity="0.26"/>
<path id="Vector_5" fill-rule="evenodd" clip-rule="evenodd" d="M40.6847 37.7572C37.8937 36.4074 34.8949 34.8392 33.0614 32.0757C31.254 28.7292 31.1514 24.1902 33.3751 21.2299C36.594 16.4009 42.7587 14.5634 47.7134 18.132C48.5426 18.7973 50.0039 19.4219 50.1325 20.5998C50.1692 21.4827 49.1223 21.9688 48.5156 21.3405C46.2875 19.0099 42.984 17.8085 40.0189 18.5338C33.4311 20.7189 30.7038 30.0112 37.9808 33.9973C39.3499 34.8407 40.7395 35.6875 42.25 36.167C43.0097 36.5031 43.9782 36.3251 44.6098 36.9347C45.8222 39.7076 41.8525 38.2465 40.6847 37.7572Z" fill="#82929C" fill-opacity="0.26"/>
<path id="Vector_6" fill-rule="evenodd" clip-rule="evenodd" d="M43.7077 26.7807C40.2609 24.2888 37.2178 21.1167 33.8492 18.6063C33.2657 18.5157 32.857 17.8322 33.0424 17.2428C33.9277 14.4819 40.2116 21.8794 41.732 22.7135C42.5846 23.8456 45.7911 24.9112 45.0296 26.5434C44.7455 27.0034 44.137 27.0955 43.7077 26.7807Z" fill="#82929C" fill-opacity="0.26"/>
<path id="Vector_7" fill-rule="evenodd" clip-rule="evenodd" d="M40.3327 30.0317C37.1645 27.6297 34.1349 24.9985 30.8429 22.795C30.2543 22.4975 29.6695 22.0349 29.8937 21.2796C30.7257 19.1064 34.6877 23.4571 35.9447 24.1108C37.7464 25.5399 39.5623 26.9505 41.371 28.3686C42.415 29.1301 41.3586 30.815 40.3327 30.0317Z" fill="#82929C" fill-opacity="0.26"/>
<path id="Vector_8" fill-rule="evenodd" clip-rule="evenodd" d="M25.3987 45.1516C25.6263 43.4724 24.3718 36.804 26.7185 37.1367C27.3778 37.2955 27.7603 38.155 27.3798 38.7508C27.2778 39.7654 27.305 40.7969 27.2996 41.8209C27.0271 43.1486 28.1084 45.7471 26.4646 46.1472C25.9522 46.1737 25.4248 45.7221 25.3987 45.1516Z" fill="#82929C" fill-opacity="0.26"/>
<path id="Vector_9" fill-rule="evenodd" clip-rule="evenodd" d="M31.6363 48.8852C31.7478 47.335 29.9691 40.6525 32.4905 41.3C33.6994 41.8342 32.9272 44.5701 33.2978 45.8152C33.3801 46.8043 33.4683 47.7954 33.579 48.7826C33.7091 50.1271 31.7558 50.2466 31.6363 48.8852Z" fill="#82929C" fill-opacity="0.26"/>
<path id="Vector_10" fill-rule="evenodd" clip-rule="evenodd" d="M40.0834 50.5152C39.774 48.6113 40.1044 46.6994 40.2917 44.8218C40.1769 43.9718 40.9208 43.2309 41.6955 43.6601C42.9373 44.6641 41.7851 46.6747 41.954 48.0566C41.6697 49.1287 42.5924 50.9761 41.2524 51.3597C40.7474 51.4602 40.1836 51.0818 40.0834 50.5152Z" fill="#82929C" fill-opacity="0.26"/>
<path id="Vector_11" fill-rule="evenodd" clip-rule="evenodd" d="M48.8934 49.5072C48.7467 47.6524 48.8299 45.7072 48.7426 43.8893C48.5973 43.5161 48.6812 43.1362 48.8533 42.8107C51.5898 40.6729 50.5246 47.2299 50.7815 48.6511C51.3091 50.335 49.4102 51.4045 48.8934 49.5072Z" fill="#82929C" fill-opacity="0.26"/>
<path id="Vector_12" fill-rule="evenodd" clip-rule="evenodd" d="M55.4042 44.6238C54.8238 43.4078 55.3088 41.8908 55.0269 40.5715C54.4075 39.7914 55.1781 38.5918 56.0688 38.9647C57.6405 39.9274 56.8583 42.4527 57.0976 44.0435C57.109 44.9507 55.9398 45.3374 55.4042 44.6238Z" fill="#82929C" fill-opacity="0.26"/>
<path id="Vector_13" fill-rule="evenodd" clip-rule="evenodd" d="M67.3396 104.795C64.5002 103.424 62.7334 100.447 60.5047 98.2179C58.099 100.347 52.8518 100.789 52.2213 96.4006C52.4432 91.8924 58.3307 93.2575 60.5573 95.5627C64.6353 92.6306 66.2442 87.2064 70.1364 84.1233C71.1028 83.4181 74.1083 82.0531 73.8801 84.4493C73.5186 85.4803 72.2118 85.1013 71.4964 85.7056C67.6369 88.6961 66.0611 94.0941 62.0462 96.9989C64.5769 99.4564 67.5426 104.962 71.3898 102.835C71.8181 102.53 72.4344 102.684 72.7316 103.159C73.5157 105.876 68.8069 105.683 67.3396 104.795ZM55.2924 97.6379C56.5674 97.9579 57.8793 97.5021 58.9283 96.7885C57.6364 95.0195 51.6435 95.0671 55.2924 97.6379Z" fill="#82929C" fill-opacity="0.26"/>
<path id="Vector_14" fill-rule="evenodd" clip-rule="evenodd" d="M68.3042 94.5904C65.851 91.8836 62.7357 90.0484 59.4588 88.8237C58.9623 88.6336 58.6796 88.0375 58.8366 87.5162C59.5476 85.6371 63.6812 88.8026 64.9703 89.2986C66.0787 90.1109 70.7931 92.992 69.6496 94.5396C69.3233 94.9339 68.6796 94.986 68.3042 94.5904Z" fill="#82929C" fill-opacity="0.26"/>
<path id="Vector_15" fill-rule="evenodd" clip-rule="evenodd" d="M50.5831 114.137C50.5909 112.518 48.5325 105.685 51.1897 106.234C52.3757 106.735 51.6334 109.498 52.0652 110.741C52.2079 111.838 52.3113 112.789 52.485 113.768C52.7669 115.095 50.8497 115.474 50.5831 114.137Z" fill="#82929C" fill-opacity="0.26"/>
<path id="Vector_16" fill-rule="evenodd" clip-rule="evenodd" d="M56.9583 117.404C56.8882 115.818 55.3545 110.21 58.0549 110.895C58.5985 111.196 58.7462 111.92 58.4741 112.452C58.437 113.826 58.6165 115.211 58.7777 116.58C59.4295 118.047 57.4188 119.035 56.9583 117.404Z" fill="#82929C" fill-opacity="0.26"/>
<path id="Vector_17" fill-rule="evenodd" clip-rule="evenodd" d="M65.5304 119.439C65.0755 117.477 64.7369 115.464 64.6584 113.458C64.5386 112.668 65.1618 111.877 65.9358 112.183C67.1363 112.846 66.4157 114.683 66.825 115.845C66.9875 116.925 67.1599 118.008 67.4268 119.069C67.7194 120.388 65.8136 120.779 65.5304 119.439Z" fill="#82929C" fill-opacity="0.26"/>
<path id="Vector_18" fill-rule="evenodd" clip-rule="evenodd" d="M73.9041 118.819C73.2815 116.696 72.9476 114.493 72.2089 112.404C71.5482 111.668 71.5527 110.268 72.7287 110.308C74.8003 111.024 74.8955 116.18 75.7222 118.19C76.1707 119.47 74.3097 120.113 73.9041 118.819Z" fill="#82929C" fill-opacity="0.26"/>
<path id="Vector_19" fill-rule="evenodd" clip-rule="evenodd" d="M79.0253 113.843C78.6445 111.879 78.4138 109.887 77.9489 107.938C77.6527 107.312 77.8938 106.467 78.5733 106.358C80.5757 106.185 80.3159 111.897 80.9197 113.475C81.2007 114.8 79.2898 115.178 79.0253 113.843Z" fill="#82929C" fill-opacity="0.26"/>
<path id="Vector_20" fill-rule="evenodd" clip-rule="evenodd" d="M84.9141 78.1257C83.5553 77.4755 84.6792 75.9288 84.9379 74.9421C85.6682 72.9739 86.0328 70.843 86.2564 68.7286C87.2137 58.4072 83.485 47.6151 77.7361 39.1473C77.6939 40.7108 79.1009 46.0282 77.2582 46.3067C76.7488 46.3331 76.2234 45.8824 76.1984 45.3138C76.1693 42.9065 76.0768 40.4793 75.4508 38.1271C73.6372 33.8651 77.7124 34.2807 80.2058 35.537C81.4727 36.4423 89.2349 39.8809 87.9185 41.5596C87.6293 42.0246 87.0185 42.1307 86.5725 41.8029C83.9766 40.035 81.4721 38.3123 78.6486 37.1094C85.799 47.0616 90.0727 60.324 87.6765 72.4875C87.2113 73.7933 86.5963 78.6942 84.9141 78.1257Z" fill="#82929C" fill-opacity="0.26"/>
<path id="Vector_21" fill-rule="evenodd" clip-rule="evenodd" d="M22.6264 93.0265C22.6981 92.469 23.2174 92.1027 23.7305 92.2106C25.9449 92.5277 28.1677 92.7899 30.3904 92.9593C17.8557 83.9003 10.6781 64.7161 17.4002 50.1981C17.6802 49.4012 18.5844 48.7154 19.2804 49.5077C20.1129 50.5333 18.2232 52.5814 18.0834 53.8639C16.0362 59.5563 16.7939 65.9597 18.0024 71.9253C20.393 78.755 24.2474 85.4328 29.7279 89.9452C29.1049 88.2124 27.8695 86.5806 27.8271 84.6954C27.9163 83.9287 28.8336 83.598 29.387 84.1141C30.1979 85.2128 30.3614 86.764 30.9971 87.9966C31.6826 89.2808 32.4576 90.51 33.3063 91.6791C33.8987 92.6166 35.6657 93.6294 34.6531 94.8277C32.2836 95.7394 29.3631 94.7635 26.8229 94.6873C25.5887 94.2561 22.6263 95.0299 22.6264 93.0265Z" fill="#82929C" fill-opacity="0.26"/>
</g>
</svg>
