<svg width="123" height="143" viewBox="0 0 123 143" fill="none" xmlns="http://www.w3.org/2000/svg">
<g id="Group">
<path id="Vector" fill-rule="evenodd" clip-rule="evenodd" d="M46.5372 73.4961C38.8308 71.0286 20.721 62.1559 19.7296 52.8278C19.2412 50.3153 21.734 42.9211 24.2797 42.8698C27.4354 44.2756 16.3539 50.2067 24.8655 58.6633C33.2383 66.4214 43.5742 70.8661 54.052 73.8985C65.4183 77.403 77.0643 80.9888 88.8506 80.3127C95.0882 80.0553 107.613 78.893 106.105 69.7254C105.922 68.8222 104.685 67.7507 105.659 66.9753C107.275 66.1328 107.87 69.0715 108.187 70.2692C108.624 82.923 90.8161 82.5213 82.2697 82.2885C70.0948 81.4773 58.2381 77.311 46.5372 73.4961Z" fill="#82929C" fill-opacity="0.26"/>
<path id="Vector_2" fill-rule="evenodd" clip-rule="evenodd" d="M55.1023 83.6826C47.1526 81.2043 39.3364 78.1994 32.0922 73.7272C26.3455 69.9616 18.725 66.2466 16.9005 58.7272C15.6515 52.8813 18.2865 46.5904 22.8073 43.4597C24.3029 42.6979 25.2745 45.2771 23.5055 45.3976C15.7784 52.2609 17.2056 61.9512 26.1503 67.4947C35.1429 74.156 45.2886 78.6199 55.681 81.7757C62.9174 84.3399 70.378 85.5808 77.8651 86.4405C86.0702 87.6014 95.1495 87.9669 102.316 83.4542C105.784 81.0354 110.318 75.7249 107.239 71.0791C105.846 70.1516 106.659 67.986 108.097 69.1411C109.619 70.6374 110.343 72.8592 110.138 74.9822C109.15 82.5749 101.967 87.1736 95.349 88.3789C90.5312 89.3737 85.5413 89.5017 80.6093 88.8101C72.0377 87.8344 63.3614 86.6477 55.1023 83.6826Z" fill="#82929C" fill-opacity="0.26"/>
<path id="Vector_3" fill-rule="evenodd" clip-rule="evenodd" d="M25.9484 60.302C27.6487 43.8364 39.5336 28.7626 55.1087 26.1541C65.2693 24.627 76.5848 26.5015 85.2172 33.3318C94.5647 40.8154 99.373 52.1599 100.37 64.1966C100.953 66.4368 101.354 80.6973 98.54 80.0119C98.0425 79.8462 97.7186 79.2539 97.8615 78.7233C98.4355 76.5752 98.759 74.3513 98.9126 72.1077C98.9465 57.9086 95.3431 43.9342 84.0433 34.9006C76.4304 28.8654 66.593 27.144 57.601 27.8773C48.2826 28.7988 39.8716 34.4826 34.4681 42.3782C32.4766 45.5018 30.796 48.8673 29.6692 52.4887C29.0546 54.4592 28.5609 56.4723 28.0798 58.4896C27.9195 59.6628 27.2869 61.9812 25.9484 60.302Z" fill="#82929C" fill-opacity="0.26"/>
<path id="Vector_4" fill-rule="evenodd" clip-rule="evenodd" d="M53.1258 101.654C40.5203 96.8975 30.9745 85.2848 25.9525 72.3043C25.4565 71.354 25.1615 69.472 26.6316 69.6064C27.1686 69.7147 27.5601 70.2777 27.4486 70.851C28.5493 74.2126 30.3229 77.5307 32.109 80.455C38.7582 92.4723 50.7095 100.807 63.4954 102.296C74.8298 103.494 85.2356 97.3409 92.4539 88.786C93.0611 88.1603 93.6697 86.7578 94.686 87.571C95.0885 87.9244 95.1835 88.5937 94.8544 89.0075C93.6951 90.4851 92.4068 91.8381 91.0755 93.137C81.5723 103.552 66.3561 107.603 53.1258 101.654Z" fill="#82929C" fill-opacity="0.26"/>
<path id="Vector_5" fill-rule="evenodd" clip-rule="evenodd" d="M70.3456 27.1065C68.3327 26.2722 72.9325 20.6984 73.3631 19.113C73.6886 18.2521 74.7206 17.6257 75.4373 18.4745C76.1441 19.5627 75.7515 21.0394 75.7898 22.2653C75.5477 23.9089 75.9101 25.8653 75.2395 27.3378C72.6076 28.6938 73.9433 23.8991 73.8285 22.5185C72.9713 23.5127 71.738 27.879 70.3456 27.1065Z" fill="#82929C" fill-opacity="0.26"/>
<path id="Vector_6" fill-rule="evenodd" clip-rule="evenodd" d="M49.7768 109.96C50.1808 107.723 50.7381 105.524 51.1514 103.289C51.0786 101.388 53.041 100.669 53.2774 102.735C52.6225 105.434 52.4552 108.533 51.3581 110.999C50.7137 111.537 49.6276 110.843 49.7768 109.96Z" fill="#82929C" fill-opacity="0.26"/>
<path id="Vector_7" fill-rule="evenodd" clip-rule="evenodd" d="M53.0976 111.214C53.679 108.849 54.3684 106.513 54.8262 104.112C54.1041 102.616 56.5808 101.574 56.8648 103.381C56.7077 106.29 55.6227 109.036 55.0101 111.845C54.691 113.143 52.7551 112.511 53.0976 111.214Z" fill="#82929C" fill-opacity="0.26"/>
<path id="Vector_8" fill-rule="evenodd" clip-rule="evenodd" d="M51.8436 112.878C48.042 111.39 50.294 107.979 51.5937 110.385C52.2431 110.918 53.5258 111.253 53.0999 112.386C52.8979 112.9 52.319 113.112 51.8436 112.878Z" fill="#82929C" fill-opacity="0.26"/>
<path id="Vector_9" fill-rule="evenodd" clip-rule="evenodd" d="M34.2294 116.93C33.2477 115.383 35.6251 114.222 36.4437 113.295C40.2348 110.366 44.9037 108.592 49.6029 108.03C50.4082 107.902 51.5802 108.391 51.3269 109.464C51.1785 110.063 50.5536 110.34 50.0183 110.096C48.955 110.105 47.9134 110.336 46.8947 110.606C43.3736 111.658 39.9362 112.93 37.1092 115.41C36.2243 115.986 35.4359 118.065 34.2294 116.93Z" fill="#82929C" fill-opacity="0.26"/>
<path id="Vector_10" fill-rule="evenodd" clip-rule="evenodd" d="M65.4381 127.31C64.1948 121.416 60.9021 115.443 55.9911 112.223C55.3573 111.8 54.2847 111.618 54.2781 110.634C54.2691 110.055 54.7356 109.612 55.2593 109.635C61.6724 112.492 65.8842 120.114 67.3423 127.114C67.5196 128.437 65.6054 128.652 65.4381 127.31Z" fill="#82929C" fill-opacity="0.26"/>
<path id="Vector_11" fill-rule="evenodd" clip-rule="evenodd" d="M44.1932 126.62C41.2633 125.425 38.4885 123.713 36.1978 121.391C35.3946 120.288 32.4266 117.991 33.9019 116.721C35.3535 116.051 35.719 118.348 36.6814 119.097C39.5175 122.455 43.4527 124.355 47.3768 125.762C52.5268 127.558 57.97 129.581 63.2831 128.088C64.6002 128.182 66.8346 126.231 67.6608 127.744C68.1405 129.389 65.8374 129.427 64.8514 129.813C57.9608 131.97 50.8203 129.234 44.1932 126.62Z" fill="#82929C" fill-opacity="0.26"/>
<path id="Vector_12" fill-rule="evenodd" clip-rule="evenodd" d="M38.527 70.1105C38.2434 51.059 50.0696 30.6841 67.8908 26.6796C68.7553 26.5478 69.6266 26.3206 70.51 26.4292C71.7581 26.6204 71.5976 28.6944 70.3298 28.5045C69.4876 28.471 68.5709 28.7036 67.8603 28.8297C53.9871 32.1951 44.7407 45.8597 41.414 60.0876C40.7247 63.3607 40.3193 66.735 40.4788 70.1222C40.549 71.4592 38.5708 71.4842 38.527 70.1105Z" fill="#82929C" fill-opacity="0.26"/>
<path id="Vector_13" fill-rule="evenodd" clip-rule="evenodd" d="M50.2401 100.448C43.1224 95.9864 40.0626 87.5727 38.0781 79.5191C37.1216 78.7869 37.9863 77.2142 39.0363 77.7133C40.1674 78.442 40.1528 80.1838 40.6169 81.3804C41.3375 84.0786 42.0862 86.7953 43.326 89.3014C44.5448 91.8072 45.9555 94.2444 47.9958 96.0921C49.0719 97.0735 50.2229 97.9549 51.3742 98.8265C52.393 99.6357 51.2415 101.305 50.2401 100.448Z" fill="#82929C" fill-opacity="0.26"/>
<path id="Vector_14" fill-rule="evenodd" clip-rule="evenodd" d="M51.9512 73.8983C54.298 57.0377 59.4067 39.035 71.4967 27.5263C71.3832 27.6033 71.282 27.6876 71.2091 27.8065C71.8243 26.8447 73.3837 27.7483 72.9516 28.8571C71.8198 30.1538 70.3326 31.328 69.3309 32.7098C65.9315 36.9667 63.296 41.8551 61.0878 46.9309C58.7832 52.1921 57.1094 57.767 55.8084 63.4348C55.0573 66.9827 54.2403 70.5364 53.9309 74.185C53.8304 75.5182 51.8248 75.2642 51.9512 73.8983Z" fill="#82929C" fill-opacity="0.26"/>
<path id="Vector_15" fill-rule="evenodd" clip-rule="evenodd" d="M53.2545 101.006C52.0272 99.0232 48.2978 81.1067 52.0117 82.0626C52.5944 82.3247 52.7675 83.0386 52.5343 83.6071C52.3152 86.7182 52.5748 89.883 53.1518 92.9751C53.5903 95.433 53.9912 97.9386 55.0333 100.231C55.5646 101.473 53.7745 102.271 53.2545 101.006Z" fill="#82929C" fill-opacity="0.26"/>
<path id="Vector_16" fill-rule="evenodd" clip-rule="evenodd" d="M69.2615 79.3474C67.6782 78.507 69.8095 75.4827 69.9073 74.1041C70.7647 71.0559 71.5148 67.7794 72.0173 64.6759C73.5813 53.3577 74.5296 41.3275 71.7713 29.9598C70.8708 28.163 73.1507 26.892 73.5566 29.012C76.8766 42.8844 75.5962 57.523 72.7644 71.0885C72.1816 72.5253 71.0782 80.3996 69.2615 79.3474Z" fill="#82929C" fill-opacity="0.26"/>
<path id="Vector_17" fill-rule="evenodd" clip-rule="evenodd" d="M57.8312 101.724C56.9882 100.405 58.7448 99.8546 59.4083 99.1279C60.7721 97.7722 61.6826 95.9791 62.4926 94.1984C63.3669 92.1894 64.0693 90.0951 64.8309 88.0318C65.1315 86.7531 66.1416 84.7539 67.2316 86.7291C66.1934 90.9847 64.4581 95.3133 62.2093 98.9683C61.3443 100.013 59.2599 103.12 57.8312 101.724Z" fill="#82929C" fill-opacity="0.26"/>
<path id="Vector_18" fill-rule="evenodd" clip-rule="evenodd" d="M83.9927 81.0895C82.9559 80.584 83.5278 79.4284 83.76 78.6155C84.3375 76.5442 84.7246 74.4049 85.0638 72.2645C87.5283 57.0253 84.6846 42.8582 74.2792 31.0841C73.6104 30.1955 71.8988 29.9143 72.0859 28.5578C72.5825 26.9699 74.0514 28.2885 74.8567 28.9403C85.8065 40.2811 89.4395 55.453 87.2271 70.851C86.8325 72.5568 86.1174 82.1355 83.9927 81.0895Z" fill="#82929C" fill-opacity="0.26"/>
<path id="Vector_19" fill-rule="evenodd" clip-rule="evenodd" d="M59.5881 102.153C59.6025 100.746 61.1483 101.207 62.0264 101.095C69.4171 99.6697 75.7407 94.8436 80.0998 88.4934C80.8251 87.552 82.3896 88.5559 81.8149 89.6963C78.0163 94.7976 73.4759 99.3581 67.5437 101.521C65.9726 102.112 60.2411 104.785 59.5881 102.153Z" fill="#82929C" fill-opacity="0.26"/>
<path id="Vector_20" fill-rule="evenodd" clip-rule="evenodd" d="M55.9541 48.5702C50.2883 46.0187 44.3881 43.6241 39.6015 39.3453C38.8405 38.5281 36.8525 37.3467 37.9808 36.1639C38.9869 35.4334 39.6674 36.936 40.4032 37.4885C41.9394 38.8678 43.5688 40.132 45.312 41.1965C52.9765 45.76 61.364 48.529 69.8267 50.5358C76.3947 51.9915 83.0657 53.2005 89.7271 52.91C91.8966 52.7512 94.0638 52.4298 96.1197 51.7362C97.2705 51.391 97.8656 53.3569 96.6748 53.6749C83.4763 57.2565 68.9682 52.4958 55.9541 48.5702Z" fill="#82929C" fill-opacity="0.26"/>
<path id="Vector_21" fill-rule="evenodd" clip-rule="evenodd" d="M55.3062 68.5741C51.3035 66.9754 47.5181 64.7636 43.6833 62.7492C38.3611 60.2286 33.3418 57.0347 28.8295 53.0751C27.9555 52.1522 29.2441 50.7296 30.1406 51.6828C34.4413 55.3866 39.1499 58.4307 44.1861 60.815C49.9748 64.0006 55.8287 67.0823 62.1205 68.8516C71.5865 71.4663 81.4084 73.1754 90.9863 71.6974C93.0246 71.279 94.9762 70.5576 96.8791 69.7286C97.8275 69.4815 99.1658 68.1711 99.8717 69.5348C100.486 71.3075 96.638 71.7268 95.5995 72.4369C83.48 76.6291 67.4157 73.0231 55.3062 68.5741Z" fill="#82929C" fill-opacity="0.26"/>
<path id="Vector_22" fill-rule="evenodd" clip-rule="evenodd" d="M52.3987 94.9546C47.4683 93.223 42.5439 91.2859 37.9853 88.6255C36.9416 87.7145 33.2432 87.3137 33.5749 85.754C34.092 83.4586 40.5323 88.0836 41.9205 88.5363C53.37 93.8006 68.4869 99.339 80.8196 98.6175C82.0186 98.4395 82.3561 100.439 81.1374 100.593C71.4656 101.299 61.6336 98.2141 52.3987 94.9546Z" fill="#82929C" fill-opacity="0.26"/>
<path id="Vector_23" fill-rule="evenodd" clip-rule="evenodd" d="M89.2559 28.0843C87.0522 26.4862 91.5788 24.0588 92.4967 22.9849C93.463 22.1759 94.6963 23.8651 93.7154 24.6602C92.9093 25.3271 92.102 25.9947 91.332 26.7087C90.6323 27.1681 90.2646 28.5183 89.2559 28.0843Z" fill="#82929C" fill-opacity="0.26"/>
<path id="Vector_24" fill-rule="evenodd" clip-rule="evenodd" d="M66.6426 18.1473C65.7298 17.8256 63.7397 11.5467 65.3281 11.546C67.1836 11.3632 66.7258 14.6667 67.4443 15.9281C67.6684 16.5486 68.3627 17.0799 67.9561 17.7927C67.7125 18.2842 67.0982 18.4305 66.6426 18.1473Z" fill="#82929C" fill-opacity="0.26"/>
<path id="Vector_25" fill-rule="evenodd" clip-rule="evenodd" d="M51.7916 19.6179C50.3548 18.4608 49.4038 16.7323 48.2901 15.2434C47.5034 14.1732 49.0094 12.9294 49.783 14.0143C50.5691 15.137 51.3491 16.2678 52.2116 17.3262C52.708 17.8654 53.5401 18.4225 53.095 19.2655C52.8546 19.7517 52.2422 19.9017 51.7916 19.6179Z" fill="#82929C" fill-opacity="0.26"/>
<path id="Vector_26" fill-rule="evenodd" clip-rule="evenodd" d="M96.4887 34.1243C96.8751 33.1164 100.688 30.7281 101.262 32.4383C101.689 34.1613 99.2745 34.0844 98.4112 34.9284C97.771 35.8627 96.2316 35.4364 96.4887 34.1243Z" fill="#82929C" fill-opacity="0.26"/>
</g>
</svg>
