<svg width="139" height="135" viewBox="0 0 139 135" fill="none" xmlns="http://www.w3.org/2000/svg">
<g id="Group">
<path id="Vector" fill-rule="evenodd" clip-rule="evenodd" d="M27.057 71.919C30.6601 52.06 35.7001 32.5426 40.0941 12.8905C40.3504 12.1622 40.4168 11.2176 41.0818 10.7718C41.767 10.3427 42.7586 11.0247 42.6276 11.875C37.9614 28.9466 34.8319 46.6143 30.524 63.8362C30.0126 66.6421 29.505 69.4502 29.066 72.2726C28.9142 73.5986 26.8784 73.2798 27.057 71.919Z" fill="#82929C" fill-opacity="0.26"/>
<path id="Vector_2" fill-rule="evenodd" clip-rule="evenodd" d="M41.0079 9.87647C41.0532 9.43668 41.4179 9.08729 41.8349 9.05915C47.5034 8.82796 53.0855 11.3745 58.5601 12.9122C68.274 15.7749 78.0729 18.2652 87.7717 21.2098C89.348 22.0257 124.442 30.7946 115.79 32.2811C95.8534 24.5695 75.0129 20.1035 54.7224 13.7297C50.7658 12.5411 46.7742 11.1579 42.6735 10.9312C41.937 11.1905 40.9013 10.8826 41.0079 9.87647Z" fill="#82929C" fill-opacity="0.26"/>
<path id="Vector_3" fill-rule="evenodd" clip-rule="evenodd" d="M100.384 95.4952C104.251 83.2205 107.256 70.6369 110.293 58.0843C112.359 49.3258 115.1 40.6926 116.141 31.6906C116.547 30.2704 118.656 31.1837 118.046 32.5416C115.327 49.8504 110.098 66.5966 106.003 83.5485C104.913 87.7883 103.657 91.9677 102.347 96.1286C102.017 97.4117 100.023 96.8107 100.384 95.4952Z" fill="#82929C" fill-opacity="0.26"/>
<path id="Vector_4" fill-rule="evenodd" clip-rule="evenodd" d="M31.7292 75.8662C30.5146 75.4004 29.2439 75.0937 28.0537 74.5664C27.0403 73.9477 27.8028 72.2913 28.8835 72.8271C32.7825 74.1892 36.6673 75.63 40.578 76.9671C60.8804 83.0451 81.0423 89.7747 101.494 95.1901C102.286 95.4033 102.448 96.6443 101.724 97.0006C99.7064 97.099 97.5629 96.0225 95.5244 95.6394C74.2177 89.2605 52.787 83.2056 31.7292 75.8662Z" fill="#82929C" fill-opacity="0.26"/>
<path id="Vector_5" fill-rule="evenodd" clip-rule="evenodd" d="M2.14114 93.7939C-0.0230787 91.344 21.0424 77.7982 23.6568 76.1673C25.2079 75.6015 27.5555 73.001 29.1273 73.8013C29.769 74.3272 29.5174 75.5245 28.7315 75.6244C22.1481 79.2535 15.9808 83.6255 9.95065 88.1754C8.65666 89.203 7.40778 90.2964 6.16523 91.3942C4.9335 92.0339 3.62405 94.9654 2.14114 93.7939Z" fill="#82929C" fill-opacity="0.26"/>
<path id="Vector_6" fill-rule="evenodd" clip-rule="evenodd" d="M111.95 125.142C108.396 115.651 104.313 106.298 100.034 97.151C99.0345 95.481 101.438 94.7296 101.891 96.559C105.287 103.721 108.337 111.022 111.399 118.336C111.719 119.918 114.911 125.024 113.213 125.758C112.739 125.952 112.14 125.678 111.95 125.142Z" fill="#82929C" fill-opacity="0.26"/>
<path id="Vector_7" fill-rule="evenodd" clip-rule="evenodd" d="M65.9239 115.647C45.433 107.559 24.4887 100.89 3.49982 94.6366C1.76443 95.3872 1.54638 92.222 3.4713 92.6543C9.87826 94.2371 16.1198 96.6886 22.5216 98.3713C43.9605 104.753 64.6252 113.885 86.055 120.23C94.331 122.151 102.667 125.586 111.122 125.59C111.657 125.302 112.363 125.07 112.789 125.738C115.559 132.777 69.6192 117.202 65.9239 115.647Z" fill="#82929C" fill-opacity="0.26"/>
<path id="Vector_8" fill-rule="evenodd" clip-rule="evenodd" d="M66.9176 119.975C51.1833 115 35.9846 108.204 20.2652 103.167C15.3466 100.935 4.52773 99.8408 1.46957 95.926C0.659149 94.5 3.01303 93.5232 3.27206 95.2223C6.53618 97.5625 10.7098 98.0433 14.4094 99.2508C19.9944 100.947 25.5253 102.851 31.029 104.844C44.4723 109.613 57.653 115.249 71.2895 119.349C79.548 121.723 87.6447 124.945 95.9776 126.835C100.675 127.665 105.792 130.32 110.403 128.571C111.221 128.201 111.116 126.58 112.307 126.998C114.16 128.172 111.69 130.51 110.342 130.761C106.1 131.934 101.665 130.105 97.4392 129.203C87.1086 126.828 77.0939 123.05 66.9176 119.975Z" fill="#82929C" fill-opacity="0.26"/>
<path id="Vector_9" fill-rule="evenodd" clip-rule="evenodd" d="M33.1957 68.6186C36.0019 55.9381 38.2702 43.1565 41.2696 30.5365C42.1506 26.5891 43.1986 22.6913 43.9928 18.7192C44.1307 17.82 44.2384 16.3415 45.4705 16.6908C47.5939 16.8135 43.4773 28.5236 43.3784 30.4964C41.2761 38.8707 39.8398 47.4302 37.9312 55.8582C36.8798 60.3792 36.2635 64.7848 35.1483 69.2519C34.8306 70.5419 32.8519 69.9322 33.1957 68.6186Z" fill="#82929C" fill-opacity="0.26"/>
<path id="Vector_10" fill-rule="evenodd" clip-rule="evenodd" d="M44.6447 17.9062C45.3194 14.2016 53.9737 18.6202 56.3751 19.1573C60.2119 20.5316 64.0992 21.711 68.0145 22.7665C79.5203 26.0742 91.1714 28.7695 102.524 32.7235C103.942 33.4411 111.192 34.8927 110.326 36.7635C109.502 38.1705 107.7 36.3885 106.544 36.1746C104.797 35.4822 103.005 34.9308 101.229 34.3384C95.5341 32.3903 89.7674 30.6988 83.9785 29.1416C72.2922 26.1841 60.7204 22.7404 49.2537 18.8676C48.348 18.6574 47.427 18.3896 46.5051 18.4111C45.9406 19.0241 44.7799 18.889 44.6447 17.9062Z" fill="#82929C" fill-opacity="0.26"/>
<path id="Vector_11" fill-rule="evenodd" clip-rule="evenodd" d="M97.8243 87.6118C102.158 72.2145 105.786 56.5796 109.603 41.0221C109.811 39.7396 110.052 38.433 109.973 37.1149C109.396 36.2004 110.444 35.0853 111.336 35.6903C113.319 38.1873 110.507 45.2524 109.957 48.2503C107.727 56.5476 106.104 65.0325 103.761 73.2971C102.427 78.2769 101.243 83.3078 99.7812 88.245C99.4533 89.5325 97.467 88.9229 97.8243 87.6118Z" fill="#82929C" fill-opacity="0.26"/>
<path id="Vector_12" fill-rule="evenodd" clip-rule="evenodd" d="M47.7105 75.533C43.1767 73.9632 38.6592 72.3269 34.0994 70.8535C32.5875 70.7112 32.6908 68.3589 34.2609 68.859C47.6598 73.5771 61.1988 77.7433 74.7208 81.9993C81.2923 83.9742 87.9842 85.6456 94.5678 87.5377C95.9127 87.809 97.2785 88.3535 98.6422 88.2875C99.8013 87.9864 100.346 89.9391 99.1457 90.2098C95.464 90.3195 91.791 88.638 88.1923 87.7582C74.5761 84.21 61.1717 79.7502 47.7105 75.533Z" fill="#82929C" fill-opacity="0.26"/>
<path id="Vector_13" fill-rule="evenodd" clip-rule="evenodd" d="M59.1788 107.214C50.6187 104.252 42.1589 100.624 33.6472 97.5387C30.4386 96.1252 14.9944 93.3639 14.7763 89.9907C14.8471 89.2144 15.5561 88.7958 16.108 88.4151C19.2482 86.1315 22.5594 84.1232 25.7175 81.8716C26.9927 81.3235 28.9368 78.1119 30.2364 79.9519C31.1158 81.8044 19.0151 88.3696 17.1749 90.123C22.808 92.7005 28.8273 93.8602 34.6351 95.7991C45.0032 99.5883 55.1911 104.116 65.7363 107.244C73.4684 109.278 81.0504 111.972 88.753 114.125C90.5882 114.609 92.3954 115.067 94.1352 115.381C95.5811 115.912 100.966 115.887 100.733 117.886C100.221 119.65 97.0741 117.6 95.7481 117.696C92.2444 117.111 88.7818 116.234 85.3466 115.241C76.6773 112.326 67.8555 110.078 59.1788 107.214Z" fill="#82929C" fill-opacity="0.26"/>
<path id="Vector_14" fill-rule="evenodd" clip-rule="evenodd" d="M44.109 85.2869C39.4507 83.6729 34.7934 82.0187 30.1396 80.4073C28.9763 79.6741 30.026 77.9847 31.1704 78.7545C46.104 84.3202 61.4227 88.1801 76.3869 93.548C81.5535 95.1506 86.6103 97.0589 91.7709 98.5009C93.0449 99.145 96.7292 99.0039 96.6192 100.829C96.5211 101.329 96.0051 101.698 95.5036 101.548C85.3343 98.893 75.4742 95.0235 65.4317 91.8861C58.3883 89.4296 51.1445 87.7739 44.109 85.2869Z" fill="#82929C" fill-opacity="0.26"/>
<path id="Vector_15" fill-rule="evenodd" clip-rule="evenodd" d="M100.254 119.041C99.9121 116.816 92.9651 98.5277 97.1772 100.057C97.6343 100.304 97.8457 100.882 97.6888 101.374C97.9582 104.655 99.1199 108.073 99.9328 111.2C100.68 113.692 101.297 115.988 102.066 118.372C102.526 119.642 100.7 120.33 100.254 119.041Z" fill="#82929C" fill-opacity="0.26"/>
<path id="Vector_16" fill-rule="evenodd" clip-rule="evenodd" d="M67.9017 98.6848C53.9895 94.0703 40.1478 88.626 25.9928 85.1951C25.1884 85.3115 24.5926 84.1876 25.1287 83.5736C25.9965 82.7903 27.3877 83.4208 28.4233 83.6163C39.2213 87.0122 50.0634 90.2348 60.7041 94.2184C68.4842 96.8017 76.2052 99.5878 84.0589 101.896C87.778 102.969 91.5196 103.947 95.2198 105.099C96.1468 105.492 97.988 105.447 97.74 106.898C97.3816 108.649 92.4459 105.957 91.1044 105.883C83.3089 103.743 75.5492 101.413 67.9017 98.6848Z" fill="#82929C" fill-opacity="0.26"/>
<path id="Vector_17" fill-rule="evenodd" clip-rule="evenodd" d="M29.0463 91.6056C26.5803 90.5873 24.1317 89.4703 21.5585 88.8191C21.0577 88.6699 20.7591 88.0851 20.8924 87.5859C21.6097 85.9218 24.5905 87.9862 25.8873 88.2229C34.6401 91.991 43.8405 94.2787 52.847 97.1816C64.4466 100.963 76.019 104.85 87.697 108.326C91.3213 109.286 94.7884 110.803 98.3637 111.938C99.5259 112.303 99.0663 114.206 97.8679 113.808C75.0467 106.013 51.8904 99.3322 29.0463 91.6056Z" fill="#82929C" fill-opacity="0.26"/>
<path id="Vector_18" fill-rule="evenodd" clip-rule="evenodd" d="M24.5744 93.9628C23.6087 92.3342 26.1392 91.2091 26.8047 89.9969C27.9613 88.675 29.1013 87.3339 30.2439 85.9994C31.4087 84.6064 32.6523 83.2829 33.6959 81.7804C33.9201 81.2334 34.4831 80.9014 35.0365 81.1822C37.0798 82.6538 32.6037 85.902 31.8558 87.267C30.5313 88.8144 29.2114 90.3689 27.8663 91.8957C26.9044 92.6178 25.9676 95.1768 24.5744 93.9628Z" fill="#82929C" fill-opacity="0.26"/>
<path id="Vector_19" fill-rule="evenodd" clip-rule="evenodd" d="M32.3596 96.9906C30.6849 95.7075 34.8771 91.7777 35.4807 90.335C36.8246 88.3936 38.1245 86.4057 39.6315 84.6048C40.8899 82.4622 43.4666 84.752 41.3254 85.8034C38.8877 88.6837 36.8607 91.9915 34.6978 95.1018C34.0675 95.8495 33.6059 97.7337 32.3596 96.9906Z" fill="#82929C" fill-opacity="0.26"/>
<path id="Vector_20" fill-rule="evenodd" clip-rule="evenodd" d="M40.3016 99.7207C39.8183 99.4798 39.5554 98.8298 39.7792 98.3215C41.6511 94.0682 44.1316 90.0267 45.8802 85.7986C49.5337 85.0059 45.7873 90.6375 45.2199 91.9517C44.3124 93.7071 43.3838 95.4522 42.5119 97.2296C41.912 98.108 41.7238 100.279 40.3016 99.7207Z" fill="#82929C" fill-opacity="0.26"/>
<path id="Vector_21" fill-rule="evenodd" clip-rule="evenodd" d="M47.8009 101.894C46.3309 100.89 48.1511 98.8744 48.2979 97.6511C48.8514 95.9811 49.3562 94.2917 49.8278 92.5914C50.4932 91.005 50.3676 88.4891 51.9327 87.6201C52.7137 87.4188 53.47 88.3346 53.134 89.113C51.7334 90.7593 50.1422 103.063 47.8009 101.894Z" fill="#82929C" fill-opacity="0.26"/>
<path id="Vector_22" fill-rule="evenodd" clip-rule="evenodd" d="M55.5499 104.609C53.6667 103.823 56.4017 98.7273 56.6128 97.1332C57.4227 94.7695 58.0755 92.3474 58.6999 89.9206C58.9238 89.4087 59.4961 89.1712 60.0057 89.424C61.596 90.2326 59.044 95.4396 58.7992 96.9598C58.1462 98.9623 57.4915 100.968 56.9873 103.027C56.8571 103.832 56.5488 104.932 55.5499 104.609Z" fill="#82929C" fill-opacity="0.26"/>
<path id="Vector_23" fill-rule="evenodd" clip-rule="evenodd" d="M63.3125 106.714C63.4053 103.187 63.8581 99.7012 64.0847 96.1893C64.546 94.8204 63.0681 90.3488 65.5365 91.3527C67.1241 93.6551 65.3061 101.358 65.3947 104.506C65.3355 105.359 65.2968 105.987 65.2818 106.807C65.2889 108.16 63.2996 108.077 63.3125 106.714Z" fill="#82929C" fill-opacity="0.26"/>
<path id="Vector_24" fill-rule="evenodd" clip-rule="evenodd" d="M71.0057 107.759C70.884 103.877 69.6625 96.0295 71.0651 92.8312C71.9494 91.9079 73.4362 93.4063 72.5364 94.3654C72.2839 98.7387 72.5724 103.194 72.9516 107.584C73.1232 108.929 71.1628 109.118 71.0057 107.759Z" fill="#82929C" fill-opacity="0.26"/>
<path id="Vector_25" fill-rule="evenodd" clip-rule="evenodd" d="M70.5872 108.772C70.3641 106.894 73.0718 106.974 72.563 108.854C72.4702 110.167 70.6335 110.166 70.5872 108.772Z" fill="#82929C" fill-opacity="0.26"/>
<path id="Vector_26" fill-rule="evenodd" clip-rule="evenodd" d="M77.8086 111.366C76.7744 106.681 77.3757 101.942 77.4455 97.2441C76.7157 96.2952 77.8985 95.0304 78.8126 95.7015C80.0609 97.1604 79.1187 99.5586 79.2556 101.338C79.1019 104.41 79.0544 107.522 79.6374 110.584C80.2537 112.009 78.2491 112.915 77.8086 111.366Z" fill="#82929C" fill-opacity="0.26"/>
<path id="Vector_27" fill-rule="evenodd" clip-rule="evenodd" d="M87.0557 114.044C85.1353 110.046 84.9226 105.132 83.8413 100.782C83.7278 99.4979 82.5663 96.3725 84.6654 96.6447C85.7382 97.0646 85.2719 98.5068 85.5676 99.4274C85.9849 101.953 86.5551 104.453 87.0494 106.966C87.4413 108.98 87.9008 110.984 88.4939 112.951C88.7494 113.823 87.754 114.567 87.0557 114.044Z" fill="#82929C" fill-opacity="0.26"/>
<path id="Vector_28" fill-rule="evenodd" clip-rule="evenodd" d="M93.1524 115.103C92.512 111.526 91.9961 108.049 91.1134 104.546C90.9895 102.853 89.0611 100.184 90.6741 98.9992C91.3771 98.695 92.1833 99.4989 91.985 100.271C92.4915 102.348 93.1276 104.394 93.5418 106.494C93.9852 109.434 95.0404 112.552 94.9307 115.456C94.5365 116.216 93.3187 115.99 93.1524 115.103Z" fill="#82929C" fill-opacity="0.26"/>
<path id="Vector_29" fill-rule="evenodd" clip-rule="evenodd" d="M43.8884 63.6268C45.7106 51.1891 48.6416 38.9948 51.0478 26.7119C51.3706 25.4137 53.335 26.0402 52.9886 27.3444C51.3001 35.6166 49.6407 43.8868 47.8674 52.0809C47.1625 56.0375 46.5128 60.0074 45.883 63.9815C45.7263 65.3122 43.7092 64.981 43.8884 63.6268Z" fill="#82929C" fill-opacity="0.26"/>
<path id="Vector_30" fill-rule="evenodd" clip-rule="evenodd" d="M41.7529 59.8614C39.6615 59.4454 40.5538 56.3894 42.2103 57.9507C59.614 63.4126 77.1863 68.3134 94.6348 73.6388C95.8061 74.0051 95.3425 75.916 94.1464 75.5202C90.4066 74.3515 86.6473 73.2536 82.8894 72.1582C69.185 68.0457 55.4176 64.111 41.7529 59.8614Z" fill="#82929C" fill-opacity="0.26"/>
<path id="Vector_31" fill-rule="evenodd" clip-rule="evenodd" d="M43.1089 52.0431C42.0316 50.4828 44.3846 49.9906 45.2869 49.4383C47.9543 48.1301 50.5371 46.6483 53.2075 45.3487C59.8806 41.4369 60.1478 48.0963 60.1638 53.44C66.0617 48.2691 67.0907 47.1371 69.158 56.1877C71.019 56.8432 72.2243 55.5895 74.0571 57.655C75.6634 56.4829 76.7155 54.6429 78.0204 53.1338C82.1561 48.6956 81.6256 59.1387 82.3941 61.4806C85.945 59.1098 86.9487 57.8467 89.2161 62.8587C91.3236 62.5377 92.237 61.0082 93.7201 63.9548C95.9261 62.042 96.9849 59.0534 98.4416 56.5159C98.6924 56.0483 99.303 55.9227 99.7433 56.2156C101.006 57.3296 99.1739 58.8558 98.8281 59.9968C97.5488 62.4579 94.1989 69.1287 91.6473 64.1973C88.918 65.8928 87.6422 64.4547 86.4733 61.7047C86.0952 60.9248 85.4702 61.9991 85.0304 62.2061C79.4078 66.8748 80.4072 58.0755 79.4609 54.5166C77.7971 56.256 76.583 59.2012 74.1016 59.684C73.0402 59.739 72.4729 58.4694 71.498 58.3117C66.4188 59.5623 67.3971 54.6577 65.7694 51.4816C63.713 52.4902 62.4682 54.9473 60.2205 55.5564C55.4508 55.6979 61.4146 42.7442 54.1047 47.1642C52.2462 47.7118 43.9926 53.3237 43.1089 52.0431Z" fill="#82929C" fill-opacity="0.26"/>
<path id="Vector_32" fill-rule="evenodd" clip-rule="evenodd" d="M87.3025 52.1135C86.5996 51.1865 84.7358 49.45 86.0577 48.4294C86.5049 48.1724 87.1301 48.3607 87.3823 48.8714C88.5259 51.8338 92.4164 53.1175 93.9758 50.1113C94.5716 45.9813 87.2113 45.376 88.4252 41.2034C89.7267 39.0547 94.148 38.3646 96.0411 39.9717C96.4477 40.7037 95.8507 41.6426 95.0823 41.4813C93.4561 41.1117 91.4871 41.0462 90.1784 42.1878C91.938 44.4371 95.1176 45.5005 95.8443 48.6587C96.9717 53.5572 90.0151 55.733 87.3025 52.1135Z" fill="#82929C" fill-opacity="0.26"/>
<path id="Vector_33" fill-rule="evenodd" clip-rule="evenodd" d="M88.8738 55.6152C89.5131 53.448 91.1462 34.5042 93.6263 36.4058C95.0562 37.3342 93.3053 39.7075 93.3527 41.1087C92.7379 44.1278 92.1839 47.1621 91.7164 50.218C91.194 51.6531 91.5612 57.1 89.7395 56.8297C89.2119 56.7367 88.7971 56.1812 88.8738 55.6152Z" fill="#82929C" fill-opacity="0.26"/>
<path id="Vector_34" fill-rule="evenodd" clip-rule="evenodd" d="M111.391 93.5398C111.691 89.1444 107.406 87.5416 108.732 86.1179C109.662 85.2669 110.637 86.6841 111.248 87.4059C112.307 88.6472 114.732 94.1716 112.366 94.6142C111.846 94.5987 111.4 94.109 111.391 93.5398Z" fill="#82929C" fill-opacity="0.26"/>
<path id="Vector_35" fill-rule="evenodd" clip-rule="evenodd" d="M116.227 94.2201C116.701 90.5048 115.494 86.4538 112.798 83.8478C112.178 83.2978 111.574 82.6026 110.792 82.3558C109.62 81.9827 110.043 80.0326 111.226 80.3554C116.227 82.5885 118.865 89.114 118.142 94.5677C117.999 95.8873 116.067 95.5521 116.227 94.2201Z" fill="#82929C" fill-opacity="0.26"/>
<path id="Vector_36" fill-rule="evenodd" clip-rule="evenodd" d="M121.498 93.4637C122.373 86.2397 120.121 80.3659 113.269 77.8392C111.826 78.0695 111.331 75.8271 112.857 75.7327C116.547 76.4879 120.479 79.482 122.196 83.1709C123.08 84.8095 124.881 94.8205 122.335 94.6579C121.816 94.5676 121.444 94.0238 121.498 93.4637Z" fill="#82929C" fill-opacity="0.26"/>
</g>
</svg>
