<svg width="66" height="109" viewBox="0 0 66 109" fill="none" xmlns="http://www.w3.org/2000/svg">
<g id="Group">
<path id="Vector" fill-rule="evenodd" clip-rule="evenodd" d="M0.0466177 47.7561C-3.30871 42.6318 -6.11498 37.1332 -9.61332 32.1107C-12.0982 28.0855 -13.7285 23.5148 -16.5746 19.7355C-17.3399 18.6558 -15.803 17.4408 -15.0453 18.5506C-12.1297 22.4284 -10.4354 27.1026 -7.89864 31.2373C-4.96546 35.4921 -2.3536 40.0656 0.237543 44.5446C0.659544 45.2376 1.10734 45.9121 1.5755 46.5688C2.3392 47.6547 0.798211 48.8649 0.0466177 47.7561Z" fill="#82929C" fill-opacity="0.26"/>
<path id="Vector_2" fill-rule="evenodd" clip-rule="evenodd" d="M0.364208 47.1278C0.0660652 45.3248 2.94525 43.9169 3.87424 42.5933C8.68323 37.5806 13.4841 32.5618 18.2051 27.4528C19.0907 26.5739 21.5321 23.4297 21.9553 26.3467C20.8328 28.168 18.8746 29.4533 17.5482 31.1806C13.4677 35.5781 9.30714 39.8946 5.16104 44.2215C4.1676 45.2233 3.13222 46.1793 2.16632 47.2117C1.87131 48.0326 0.664831 47.9897 0.364208 47.1278Z" fill="#82929C" fill-opacity="0.26"/>
<path id="Vector_3" fill-rule="evenodd" clip-rule="evenodd" d="M-16.0063 18.0805C-15.6916 16.943 -14.433 17.5846 -13.6375 17.5925C-9.64322 17.86 -5.66468 18.3774 -1.73015 19.3165C4.10157 20.664 9.99188 21.635 15.8692 22.6529C17.9959 23.1813 20.5088 22.9924 22.4103 24.1567C23.3822 26.7137 20.0192 25.2763 18.8424 25.1575C14.9662 24.5297 11.0912 23.8936 7.2309 23.1304C1.7282 22.3236 -3.66393 20.671 -9.17857 20.001C-10.6004 19.5239 -16.4627 20.3371 -16.0063 18.0805Z" fill="#82929C" fill-opacity="0.26"/>
<path id="Vector_4" fill-rule="evenodd" clip-rule="evenodd" d="M-15.9608 18.8466C-17.7335 17.2099 -13.577 15.1766 -12.6944 14.126C-6.76495 9.18795 -4.23366 8.89797 3.30271 10.3202C14.4276 11.7832 15.6251 9.77275 21.4267 21.5887C21.8282 22.3386 22.2438 23.0779 22.6305 23.8362C23.2442 24.9966 21.5961 25.9616 20.9784 24.78C20.3822 23.6088 19.7293 22.4708 19.1306 21.301C17.5834 18.6594 16.3041 15.4355 13.734 13.7934C9.08772 12.7174 4.30234 12.7071 -0.377192 11.8083C-2.33452 11.6918 -4.44734 11.3266 -6.26817 12.1612C-8.80392 13.6612 -11.2861 15.5267 -13.5094 17.456C-14.3102 17.9212 -14.8853 19.4913 -15.9608 18.8466Z" fill="#82929C" fill-opacity="0.26"/>
<path id="Vector_5" fill-rule="evenodd" clip-rule="evenodd" d="M-2.81379 19.4281C-3.56244 17.9631 -8.30109 10.891 -4.89745 10.9538C-4.40265 11.1184 -4.09577 11.6867 -4.21356 12.2127C-3.41068 14.677 -2.14827 17.0495 -0.665395 19.1436C5.82743 10.1375 5.43479 8.77862 11.6494 19.8674C12.4988 18.6869 13.5926 13.7193 15.3561 14.6786C15.794 14.9733 15.9769 15.6371 15.6985 16.0952C14.3805 17.5871 13.5437 22.7159 11.507 22.5403C10.3711 22.1781 10.0128 20.6414 9.37948 19.6909C8.27673 17.7032 7.14537 15.6035 5.6011 14.0285C3.992 15.912 2.72501 18.1029 1.19335 20.0589C-0.0710525 22.1561 -1.7481 21.4169 -2.81379 19.4281Z" fill="#82929C" fill-opacity="0.26"/>
<path id="Vector_6" fill-rule="evenodd" clip-rule="evenodd" d="M0.809144 45.5036C-0.0155126 41.8221 -0.00776877 37.6545 -0.953552 33.943C-1.68861 29.6031 -2.9996 25.2249 -3.03391 20.8367C-2.73734 19.6032 -0.915206 20.1064 -1.12864 21.3675C-1.66683 23.697 5.45524 49.1339 0.809144 45.5036Z" fill="#82929C" fill-opacity="0.26"/>
<path id="Vector_7" fill-rule="evenodd" clip-rule="evenodd" d="M0.529891 46.8826C-1.3046 46.2118 2.35018 40.9502 2.73856 39.5908C4.5863 36.0153 6.53684 32.5011 8.27555 28.8587C9.36392 26.7608 10.0529 24.4351 11.1196 22.3368C11.7337 21.449 13.2262 22.2134 12.9239 23.3148C12.319 24.3506 11.9729 25.5391 11.4871 26.6576C9.25564 31.9808 6.34204 36.9065 3.79512 42.0434C2.90533 43.1791 2.2189 47.5705 0.529891 46.8826Z" fill="#82929C" fill-opacity="0.26"/>
<path id="Vector_8" fill-rule="evenodd" clip-rule="evenodd" d="M-2.94794 92.5133C-4.51932 91.4614 -2.53698 89.4717 -2.27103 88.1696C-0.0667552 83.0544 2.80868 78.0563 5.09403 73.0466C7.09335 68.2785 9.21073 63.556 10.9456 58.662C11.2328 57.0151 13.6184 57.9731 12.8036 59.4143C12.8154 59.3976 12.827 59.382 12.8389 59.3654C12.8533 59.3347 12.8666 59.3037 12.8809 59.273C9.36179 69.3669 4.5423 78.779 -0.101067 88.2743C-0.91071 89.3826 -1.24606 93.0908 -2.94794 92.5133Z" fill="#82929C" fill-opacity="0.26"/>
<path id="Vector_9" fill-rule="evenodd" clip-rule="evenodd" d="M-3.54331 93.2295C-5.0511 90.1877 0.387849 92.0949 1.67658 92.1191C5.30245 92.6799 8.92729 93.3271 12.5767 93.4906C16.8325 93.5993 21.0801 93.7854 25.3235 94.3961C26.5929 94.8256 30.0076 93.8413 30.1658 95.6609C30.3913 97.8211 22.3716 95.8084 20.8775 95.8922C14.9878 95.5072 9.08538 95.555 3.22757 94.3978C1.06975 93.8764 -1.5523 93.9418 -3.54331 93.2295Z" fill="#82929C" fill-opacity="0.26"/>
<path id="Vector_10" fill-rule="evenodd" clip-rule="evenodd" d="M30.1225 95.5839C26.6441 87.3093 21.752 79.5332 17.523 71.5935C15.2158 67.5598 13.0945 63.4183 10.9079 59.3134C10.0498 58.3366 11.4164 56.9363 12.291 57.9321C16.4334 65.6763 20.7505 73.3448 24.9257 81.0807C27.1473 85.2997 29.5708 89.415 31.5707 93.757C32.3645 94.9736 31.3673 96.9544 30.1225 95.5839Z" fill="#82929C" fill-opacity="0.26"/>
<path id="Vector_11" fill-rule="evenodd" clip-rule="evenodd" d="M11.9629 58.7678C12.0676 58.016 12.8046 57.82 13.4231 58.0376C17.2434 58.4366 21.0925 58.5532 24.8726 59.4499C26.2265 59.4943 26.1579 61.7317 24.7935 61.4846C24.2286 61.3783 23.6685 61.2361 23.1049 61.1281C20.387 60.6165 17.6425 60.4409 14.9062 60.2085C13.9087 60.0187 11.8896 60.3956 11.9629 58.7678Z" fill="#82929C" fill-opacity="0.26"/>
<path id="Vector_12" fill-rule="evenodd" clip-rule="evenodd" d="M30.5527 95.3327C29.353 94.3819 30.8122 93.1395 31.1482 92.1593C32.5055 88.985 34.7414 86.3054 35.5986 82.8726C35.7768 81.6404 34.6818 80.5705 34.2506 79.4601C32.0896 75.1727 29.6409 71.0691 27.1926 66.9645C26.1875 65.2391 25.2331 63.4774 24.1528 61.8005C23.2214 60.9336 23.5235 59.1194 24.9325 59.6709C24.8932 59.6532 24.8545 59.6369 24.8159 59.6207C24.8077 59.6191 24.7993 59.6185 24.7912 59.6169C26.12 60.6277 26.7489 62.5711 27.7178 63.9774C29.5332 67.2386 31.5446 70.3704 33.3451 73.6402C34.5627 76.4155 37.4792 80.0043 37.5692 82.9361C37.0078 86.4029 34.8259 89.1062 33.3796 92.1329C32.6262 93.1847 32.2229 96.0777 30.5527 95.3327Z" fill="#82929C" fill-opacity="0.26"/>
<path id="Vector_13" fill-rule="evenodd" clip-rule="evenodd" d="M24.4553 82.8809C21.8278 81.4215 28.5985 74.1453 29.2175 72.0369C26.8902 71.2596 15.037 74.4726 17.5962 69.297C19.1766 65.7088 20.7283 61.8129 23.1848 59.0058C25.7411 59.1786 23.4193 62.0779 22.7747 63.1649C21.4481 65.3701 20.3654 67.7345 19.3869 70.1482C33.4584 70.0936 34.5004 67.4354 26.0551 81.145C27.9583 81.6411 37.037 80.1464 37.0848 82.5698C37.0763 83.1184 36.6292 83.596 36.1045 83.5423C32.2378 82.7991 28.266 83.8767 24.4553 82.8809Z" fill="#82929C" fill-opacity="0.26"/>
<path id="Vector_14" fill-rule="evenodd" clip-rule="evenodd" d="M-1.54686 90.7446C-3.51195 89.4399 3.7439 84.1391 4.68278 82.8678C8.58988 79.0262 12.3315 74.8856 15.7668 70.5636C15.97 68.1774 20.0082 69.7444 15.8755 73.8068C11.4851 78.7245 7.11572 83.639 2.27047 88.0513C1.12561 88.6699 -0.214489 91.7795 -1.54686 90.7446Z" fill="#82929C" fill-opacity="0.26"/>
<path id="Vector_15" fill-rule="evenodd" clip-rule="evenodd" d="M-3.06754 90.444C-3.06834 88.7822 -0.872845 89.3817 0.156564 89.0097C6.2375 88.1154 12.1895 86.5871 18.1982 85.3441C20.4279 84.9626 22.6361 84.1814 24.902 84.1119C25.5754 84.247 25.9499 85.1433 25.568 85.732C24.9795 86.4939 22.5375 86.3219 21.4913 86.7563C16.4749 87.8 11.4818 88.9395 6.46856 89.9999C4.47977 90.407 2.47329 90.738 0.464229 91.0458C-0.6479 91.0144 -2.67106 92.1773 -3.06754 90.444Z" fill="#82929C" fill-opacity="0.26"/>
<path id="Vector_16" fill-rule="evenodd" clip-rule="evenodd" d="M30.2763 52.9559C28.8074 51.9621 30.5041 49.9655 30.8089 48.7333C31.5318 47.7128 31.771 44.7158 33.3842 45.2577C34.9498 46.2745 32.9111 48.3308 32.6318 49.5987C31.8803 50.6087 31.9666 53.5132 30.2763 52.9559Z" fill="#82929C" fill-opacity="0.26"/>
<path id="Vector_17" fill-rule="evenodd" clip-rule="evenodd" d="M38.6881 64.5861C36.9051 62.5347 42.3436 61.1296 43.4473 60.245C44.5127 59.5975 45.5151 61.4738 44.4248 62.0769C42.9992 62.8337 41.5238 63.5018 40.1526 64.3669C39.7727 64.7997 39.1712 65.0176 38.6881 64.5861Z" fill="#82929C" fill-opacity="0.26"/>
<path id="Vector_18" fill-rule="evenodd" clip-rule="evenodd" d="M45.3135 77.9519C44.8162 77.7693 44.4878 77.2332 44.6194 76.6836C44.917 75.5351 46.1287 76.1338 46.9342 76.1729C48.1519 76.5777 52.5005 76.0407 52.2909 77.908C52.2322 78.464 51.7538 78.8332 51.2359 78.7567C49.2681 78.4263 47.2702 78.3516 45.3135 77.9519Z" fill="#82929C" fill-opacity="0.26"/>
</g>
</svg>
