<svg width="108" height="122" viewBox="0 0 108 122" fill="none" xmlns="http://www.w3.org/2000/svg">
<g id="Group">
<path id="Vector" fill-rule="evenodd" clip-rule="evenodd" d="M18.1983 79.7923C6.48304 75.1287 7.03355 62.7798 13.556 54.0282C13.4746 52.6063 15.5425 52.6605 15.4852 54.0843C17.0161 65.0067 29.1075 62.7314 36.4633 63.4572C43.3948 64.2429 46.5129 71.942 40.8973 76.72C34.6784 81.7084 25.7123 82.469 18.1983 79.7923ZM19.919 78.2656C26.3133 80.4212 41.5647 79.1873 41.893 70.1141C41.2235 66.3586 37.0962 65.3023 34.0888 65.3364C26.9593 65.2419 16.9723 65.7728 14.134 56.6961C8.84928 65.0707 9.46379 74.9404 19.919 78.2656Z" fill="#82929C" fill-opacity="0.26"/>
<path id="Vector_2" fill-rule="evenodd" clip-rule="evenodd" d="M32.2752 76.5978C27.1354 74.2781 31.3028 68.5019 35.2585 68.8006C36.0572 68.1543 36.8691 69.1638 37.3393 69.8484C39.7444 73.3333 35.7794 77.9812 32.2752 76.5978ZM32.8129 74.6323C34.8109 75.401 37.3033 72.491 35.5143 70.6524C33.9414 70.9207 29.9627 72.9679 32.8129 74.6323Z" fill="#82929C" fill-opacity="0.26"/>
<path id="Vector_3" fill-rule="evenodd" clip-rule="evenodd" d="M24.6084 62.2543C23.9336 60.4647 25.2223 58.4266 25.3284 56.5799C26.3115 51.4033 27.0001 46.1406 28.3561 41.0704C29.9072 34.4988 37.854 37.938 42.4711 37.6659C57.5112 38.1413 72.7897 38.6109 87.3781 35.1353C90.3623 34.3843 100.39 32.1878 100.216 28.3915C93.1992 21.0087 68.8412 21.7101 58.9143 20.89C55.5654 20.7265 52.2156 20.474 48.8676 20.3534C47.5088 19.966 43.5791 21.3246 43.3708 19.4582C42.6291 16.6839 60.7722 19.4193 63.2039 19.0116C72.574 19.7625 95.9487 19.3809 101.905 27.4843C104.27 33.9538 90.182 36.5352 86.1798 37.5338C79.4218 39.5067 72.3065 39.3648 65.3087 39.8035C54.9927 40.3988 44.6089 40.0214 34.2569 39.1257C31.5076 38.8569 30.1745 40.3681 29.8303 43.1887C29.3624 45.2302 28.9423 47.2831 28.5685 49.3493C27.9401 52.9823 27.3719 56.6322 26.561 60.2167C26.3187 61.4182 26.2992 63.615 24.6084 62.2543Z" fill="#82929C" fill-opacity="0.26"/>
<path id="Vector_4" fill-rule="evenodd" clip-rule="evenodd" d="M88.0941 67.4841C86.4324 66.4962 90.8537 62.0049 91.3199 60.551C92.4592 58.6679 93.5278 56.7318 94.5906 54.7973C98.6438 47.0661 102.138 37.8735 100.209 28.7349C98.7596 26.8772 101.689 26.0286 102.136 28.2408C104.638 40.1963 98.956 51.6738 93.2875 61.2793C92.2456 62.4333 89.6275 68.743 88.0941 67.4841Z" fill="#82929C" fill-opacity="0.26"/>
<path id="Vector_5" fill-rule="evenodd" clip-rule="evenodd" d="M22.5685 101.353C17.3335 98.6695 20.1437 91.3753 20.241 86.7009C20.6864 85.2128 20.6998 77.9672 22.5274 78.5044C24.2741 79.1362 22.4209 82.865 22.5064 84.374C22.0386 88.5824 21.2145 92.7371 21.4888 97.0031C22.189 100.814 26.8724 99.8931 29.4934 100.9C39.5073 103.677 49.8371 103.206 59.8662 101.986C68.9694 100.719 79.8703 101.139 85.9345 92.7259C89.143 87.8229 90.0685 81.5664 91.6641 75.8614C93.072 68.4253 94.9522 61.0242 96.4241 53.6544C96.0661 52.3235 97.2923 50.9881 98.222 52.4604C98.6271 56.3232 96.8022 60.0828 96.1378 63.8124C94.7732 70.0618 93.7662 76.4194 91.9682 82.5342C90.1655 90.855 86.3713 98.1393 78.4501 100.874C71.772 103.384 64.4599 103.349 57.454 104.324C45.8748 105.919 33.9675 104.784 22.5685 101.353Z" fill="#82929C" fill-opacity="0.26"/>
<path id="Vector_6" fill-rule="evenodd" clip-rule="evenodd" d="M14.5385 55.2867C15.411 48.8856 17.1846 42.7225 18.8488 36.5455C19.5747 35.0831 20.3061 27.7944 22.1958 28.6091C23.97 29.2191 21.251 34.1736 21.1901 35.7159C20.1285 39.6196 19.0648 43.5226 18.0941 47.4559C17.4498 50.1874 16.9256 52.9557 16.5217 55.747C16.3116 57.0736 14.3091 56.6276 14.5385 55.2867Z" fill="#82929C" fill-opacity="0.26"/>
<path id="Vector_7" fill-rule="evenodd" clip-rule="evenodd" d="M10.8011 93.5184C6.91498 89.4478 10.3314 78.5009 10.6612 73.1072C11.0327 71.86 12.8896 72.5334 12.5428 73.798C11.9612 79.0592 10.7553 84.3027 11.0162 89.604C11.1268 90.5895 11.5984 91.4851 12.2667 92.1883C13.1318 93.2154 11.6404 94.5882 10.8011 93.5184Z" fill="#82929C" fill-opacity="0.26"/>
<path id="Vector_8" fill-rule="evenodd" clip-rule="evenodd" d="M18.964 100.677C17.6256 100.017 8.12706 93.1381 12.7597 92.6958C14.5506 94.8941 16.7051 96.9314 19.1224 98.4513C20.6903 98.9186 20.7512 101.247 18.964 100.677Z" fill="#82929C" fill-opacity="0.26"/>
<path id="Vector_9" fill-rule="evenodd" clip-rule="evenodd" d="M15.5885 97.0891C15.7827 95.1317 17.2737 79.2921 19.572 80.6245C20.8297 81.1864 19.9375 82.6242 19.789 83.5797C19.3411 85.4822 18.9123 87.3956 18.588 89.332C18.1626 91.9606 17.727 94.595 17.5744 97.2722C17.529 98.6249 15.5226 98.4534 15.5885 97.0891Z" fill="#82929C" fill-opacity="0.26"/>
<path id="Vector_10" fill-rule="evenodd" clip-rule="evenodd" d="M12.3832 94.2939C13.0661 89.7055 12.978 83.9496 15.3093 80.0566C16.0586 79.5048 17.1743 80.3768 16.8629 81.3126C15.0548 85.2509 14.9382 90.1434 14.3668 94.4784C14.3159 95.8311 12.3119 95.6537 12.3832 94.2939Z" fill="#82929C" fill-opacity="0.26"/>
<path id="Vector_11" fill-rule="evenodd" clip-rule="evenodd" d="M19.9572 62.4418C20.3019 59.7701 24.3426 37.6364 27.1837 39.2353C28.0871 39.746 27.6734 40.732 27.3142 41.4288C26.0166 44.9245 24.923 48.5118 24.0006 52.1504C23.184 55.6997 22.4631 59.2803 21.9359 62.9023C21.7261 64.2293 19.7282 63.7832 19.9572 62.4418Z" fill="#82929C" fill-opacity="0.26"/>
<path id="Vector_12" fill-rule="evenodd" clip-rule="evenodd" d="M18.0495 60.6492C17.8456 58.3584 21.7769 34.3388 24.4177 36.4947C25.2177 36.9415 24.9851 37.8574 24.6456 38.5073C23.7963 40.7811 23.2211 43.1662 22.6442 45.5405C21.6573 49.8059 20.7562 54.097 20.1513 58.4609C19.9363 59.3895 20.2906 60.5144 19.8059 61.3273C19.2794 61.9985 18.0741 61.5531 18.0495 60.6492Z" fill="#82929C" fill-opacity="0.26"/>
<path id="Vector_13" fill-rule="evenodd" clip-rule="evenodd" d="M26.6311 40.5514C24.6792 39.3948 27.9793 35.7196 28.8231 34.6314C29.8472 33.5532 31.1595 32.7649 32.6195 32.5695C40.6114 32.1684 48.7198 34.0369 56.7503 33.8241C68.6915 33.8025 80.6273 32.7947 92.4027 31.2409C94.0994 31.0397 95.8302 31.0574 97.5314 31.4172C98.0471 31.5174 98.3932 32.1107 98.3052 32.6386C97.8867 34.16 96.0196 32.9672 94.9512 33.155C80.5166 34.5703 66.031 36.4704 51.402 35.6792C45.9142 36.1183 34.7145 32.7758 30.7848 35.5826C29.8557 36.334 29.139 37.3345 28.5525 38.4061C27.9771 39.1716 27.9025 40.9659 26.6311 40.5514Z" fill="#82929C" fill-opacity="0.26"/>
<path id="Vector_14" fill-rule="evenodd" clip-rule="evenodd" d="M24.1353 37.4617C22.2136 36.5204 25.5638 32.4659 26.0393 31.1277C30.1771 23.6921 41.9628 29.6463 48.7318 29.368C61.3891 30.2281 74.081 31.8787 86.7101 31.0051C88.1201 31.2414 91.3558 29.8561 91.7976 31.769C91.8436 32.3229 91.4481 32.8122 90.9305 32.8332C88.9241 32.9133 86.9236 33.0529 84.92 33.1593C70.825 33.6229 56.6455 32.1392 42.5518 30.7227C38.3165 30.072 33.6664 28.6109 29.5839 30.153C27.789 31.2661 27.0204 33.5322 26.0441 35.3325C25.5347 36.1231 25.3751 37.8653 24.1353 37.4617Z" fill="#82929C" fill-opacity="0.26"/>
<path id="Vector_15" fill-rule="evenodd" clip-rule="evenodd" d="M29.8982 27.2774C29.9861 25.4794 30.7868 23.7693 31.148 22.0131C31.5573 20.7268 31.7169 19.2075 32.6389 18.2157C36.8155 16.0278 42.6534 20.2343 47.0082 21.1426C59.6443 24.5816 72.3462 28.2027 85.2922 29.4068C86.6599 29.868 90.9363 28.9037 90.9399 30.8275C90.8914 32.7056 85.637 31.1871 84.3095 31.3383C76.394 30.518 68.5438 29.053 60.8307 26.7385C53.0823 25.1445 45.4822 22.8882 37.982 20.1394C36.7073 19.9056 34.568 18.8457 33.7207 20.1578C32.9628 22.4372 32.4197 24.8029 31.7862 27.1288C31.8243 28.3066 30.1364 28.4631 29.8982 27.2774Z" fill="#82929C" fill-opacity="0.26"/>
<path id="Vector_16" fill-rule="evenodd" clip-rule="evenodd" d="M64.7524 26.0489C64.2589 25.8565 63.98 25.2645 64.1385 24.7476C64.7395 23.412 66.5331 24.6113 67.6466 24.3743C75.4227 24.1234 83.3171 24.3136 91.0151 26.1883C97.2555 28.4546 89.4213 32.3475 91.0576 28.3252C86.1808 26.8691 81.0238 26.6853 76.0319 26.2758C72.2813 26.1076 68.478 26.8516 64.7524 26.0489Z" fill="#82929C" fill-opacity="0.26"/>
<path id="Vector_17" fill-rule="evenodd" clip-rule="evenodd" d="M42.4586 19.8502C41.9266 18.7845 43.2846 17.7341 44.0306 18.6946C44.7784 18.8053 45.8293 19.0561 45.6631 20.1115C45.3384 21.5287 43.019 20.8237 42.4586 19.8502Z" fill="#82929C" fill-opacity="0.26"/>
<path id="Vector_18" fill-rule="evenodd" clip-rule="evenodd" d="M29.2602 64.0736C27.8536 63.3634 29.1279 61.6477 29.2889 60.5569C29.4455 60.0198 30.0161 59.7454 30.5166 59.9416C31.9121 60.6492 30.6679 62.3773 30.488 63.4583C30.3245 63.9931 29.7622 64.2725 29.2602 64.0736Z" fill="#82929C" fill-opacity="0.26"/>
<path id="Vector_19" fill-rule="evenodd" clip-rule="evenodd" d="M30.1507 55.6455C30.2202 54.6493 30.5925 53.7084 30.815 52.7484C31.187 51.4721 33.0673 52.2101 32.6735 53.479C32.4583 54.2949 32.2138 55.1034 32.0698 55.9395C31.792 57.0039 30.2157 56.7773 30.1507 55.6455Z" fill="#82929C" fill-opacity="0.26"/>
<path id="Vector_20" fill-rule="evenodd" clip-rule="evenodd" d="M32.4848 48.7223C31.3535 48.0211 32.1092 46.5108 32.7534 45.793C34.1456 44.6955 35.0413 46.6617 33.8676 47.7597C33.9605 48.5491 33.1299 49.1051 32.4848 48.7223Z" fill="#82929C" fill-opacity="0.26"/>
<path id="Vector_21" fill-rule="evenodd" clip-rule="evenodd" d="M37.588 45.862C35.976 43.8911 39.2306 43.5126 40.4631 43.9861C41.688 44.2592 41.3492 46.2908 40.1276 45.9964C39.2557 45.623 38.379 46.3012 37.588 45.862ZM38.6796 45.8726C38.6833 45.8705 38.6873 45.8673 38.6919 45.8655C38.7194 45.8445 38.747 45.8224 38.7735 45.8011C38.7705 45.8045 38.7675 45.808 38.7648 45.8104C38.7921 45.7815 38.8194 45.7526 38.8464 45.7247C38.8621 45.7043 38.8769 45.6834 38.8916 45.6626C38.8298 45.7449 38.7584 45.815 38.6796 45.8726Z" fill="#82929C" fill-opacity="0.26"/>
<path id="Vector_22" fill-rule="evenodd" clip-rule="evenodd" d="M44.7636 45.9473C43.3724 44.4647 45.4903 43.6813 46.66 43.803C47.7216 43.9099 49.7245 43.0647 50.0303 44.6984C49.883 46.5877 47.2993 45.4931 46.0978 45.9217C45.6558 46.0201 45.206 46.3294 44.7636 45.9473Z" fill="#82929C" fill-opacity="0.26"/>
<path id="Vector_23" fill-rule="evenodd" clip-rule="evenodd" d="M53.6814 45.1108C52.7 43.2597 54.7864 43.3793 55.8994 43.5548C56.7868 43.682 58.3707 43.3493 58.3824 44.7731C58.3583 45.3453 57.9067 45.7351 57.3848 45.7062C56.192 45.4674 54.7044 45.9067 53.6814 45.1108Z" fill="#82929C" fill-opacity="0.26"/>
<path id="Vector_24" fill-rule="evenodd" clip-rule="evenodd" d="M63.6182 45.5615C62.6243 45.2069 62.8386 43.5461 63.8558 43.5735C65.1056 43.7733 67.5171 42.6001 67.971 44.4233C68.0167 44.9746 67.6214 45.4828 67.1008 45.4958C65.9416 45.4635 64.7669 45.7109 63.6182 45.5615Z" fill="#82929C" fill-opacity="0.26"/>
<path id="Vector_25" fill-rule="evenodd" clip-rule="evenodd" d="M71.2509 44.365C71.0341 43.1454 72.367 43.0718 73.1623 42.9128C74.089 42.8268 75.7838 42.2156 76.0004 43.7049C76.0776 44.7873 75.0052 44.8236 74.2596 44.8436C73.2793 44.8323 71.6823 45.898 71.2509 44.365Z" fill="#82929C" fill-opacity="0.26"/>
<path id="Vector_26" fill-rule="evenodd" clip-rule="evenodd" d="M80.8852 42.7624C80.8996 41.2249 82.8716 41.6767 83.8329 41.288C84.3429 41.1914 84.8636 41.5736 84.9777 42.1284C85.1952 43.3477 83.8901 43.3942 83.1015 43.5446C82.3085 43.7508 81.0304 44.026 80.8852 42.7624Z" fill="#82929C" fill-opacity="0.26"/>
<path id="Vector_27" fill-rule="evenodd" clip-rule="evenodd" d="M88.5454 41.6928C87.6173 39.9908 90.5471 39.4757 91.5213 39.7134C93.1052 41.1403 91.0901 41.8485 89.9292 41.9965C89.5128 42.3077 88.8273 42.2124 88.5454 41.6928Z" fill="#82929C" fill-opacity="0.26"/>
<path id="Vector_28" fill-rule="evenodd" clip-rule="evenodd" d="M95.2512 38.7655C95.7053 37.7524 97.0944 38.0657 97.899 37.4595C99.0028 36.8958 99.8905 38.7982 98.7753 39.3401C97.7353 39.8476 95.0165 41.1119 95.2512 38.7655Z" fill="#82929C" fill-opacity="0.26"/>
<path id="Vector_29" fill-rule="evenodd" clip-rule="evenodd" d="M25.5743 84.8098C25.2108 83.761 25.6523 80.0815 27.2256 80.6755C28.0905 81.0236 27.9275 81.9779 27.6363 82.6658C27.5051 83.2638 27.4057 83.8713 27.3392 84.4852C27.2381 85.3806 26.0163 85.5896 25.5743 84.8098Z" fill="#82929C" fill-opacity="0.26"/>
<path id="Vector_30" fill-rule="evenodd" clip-rule="evenodd" d="M24.984 91.5593C24.6275 90.6562 24.9393 89.3604 25.4682 88.6334C26.3057 87.8393 27.6173 89.1471 26.9246 90.1005C26.8427 90.4733 26.7837 90.8526 26.742 91.2354C26.6404 92.1286 25.4255 92.3367 24.984 91.5593Z" fill="#82929C" fill-opacity="0.26"/>
<path id="Vector_31" fill-rule="evenodd" clip-rule="evenodd" d="M26.1781 97.4226C25.3214 97.1842 24.7955 95.9702 25.6234 95.4031C26.4988 94.902 27.3635 96.0036 28.2653 96.1255C29.0658 96.3865 29.1467 97.692 28.4072 98.021C27.6661 98.3015 26.8769 97.6988 26.1781 97.4226Z" fill="#82929C" fill-opacity="0.26"/>
<path id="Vector_32" fill-rule="evenodd" clip-rule="evenodd" d="M33.7892 99.1547C32.5278 98.2768 33.6458 96.8274 34.8646 97.2651C36.006 97.6135 38.3608 96.9394 38.5337 98.6946C38.5119 99.2402 38.0565 99.6873 37.5375 99.627C36.2981 99.4006 35.0098 99.4227 33.7892 99.1547Z" fill="#82929C" fill-opacity="0.26"/>
<path id="Vector_33" fill-rule="evenodd" clip-rule="evenodd" d="M42.0753 98.5972C42.2415 97.1217 44.0214 97.8091 44.9854 97.6899C45.5077 97.7053 45.9247 98.2737 45.9025 98.8065C45.8417 99.9883 44.5804 99.721 43.797 99.7215C43.0631 99.8223 42.0443 99.6224 42.0753 98.5972Z" fill="#82929C" fill-opacity="0.26"/>
<path id="Vector_34" fill-rule="evenodd" clip-rule="evenodd" d="M50.2803 99.4137C48.8281 98.5981 49.9929 97.0605 51.2557 97.2948C52.1144 97.3114 53.5625 96.9047 53.7224 98.2417C53.7481 99.7767 51.9698 99.2049 51.0407 99.3808C50.8025 99.4681 50.541 99.5263 50.2803 99.4137Z" fill="#82929C" fill-opacity="0.26"/>
<path id="Vector_35" fill-rule="evenodd" clip-rule="evenodd" d="M58.0994 98.4525C57.3208 97.5642 58.3561 96.2081 59.3109 96.8647C60.312 97.0151 61.9826 96.0484 62.4021 97.5352C62.8516 99.213 58.8175 99.2547 58.0994 98.4525Z" fill="#82929C" fill-opacity="0.26"/>
<path id="Vector_36" fill-rule="evenodd" clip-rule="evenodd" d="M65.9433 97.2855C63.4387 95.1074 68.2028 94.9441 69.3912 94.6407C70.6 94.399 71.0201 96.4528 69.8038 96.6741C68.5143 96.8084 67.2248 97.3423 65.9433 97.2855ZM66.8926 97.0893C66.9174 97.0662 66.9422 97.0431 66.968 97.0204C66.9675 97.0224 66.966 97.0242 66.966 97.0242C66.984 96.9944 67.0028 96.9659 67.0208 96.9361C66.9823 96.9927 66.939 97.0432 66.8926 97.0893Z" fill="#82929C" fill-opacity="0.26"/>
<path id="Vector_37" fill-rule="evenodd" clip-rule="evenodd" d="M73.8917 94.1951C73.181 92.1261 76.6162 92.7625 77.712 92.1684C78.9206 91.9232 79.3394 93.9778 78.1248 94.2008C76.8259 94.2591 74.8789 95.6084 73.8917 94.1951Z" fill="#82929C" fill-opacity="0.26"/>
<path id="Vector_38" fill-rule="evenodd" clip-rule="evenodd" d="M82.168 92.0343C80.8772 91.3819 81.686 89.8789 82.7922 89.8168C83.6505 89.5877 84.9991 88.6525 85.5096 89.986C85.688 90.523 85.4232 91.1144 84.9297 91.2811C84.0047 91.4554 83.1136 92.1905 82.168 92.0343Z" fill="#82929C" fill-opacity="0.26"/>
<path id="Vector_39" fill-rule="evenodd" clip-rule="evenodd" d="M87.5908 88.5625C86.2238 87.4872 88.4545 85.4033 89.3607 86.8184C90.0296 87.869 88.4846 89.2239 87.5908 88.5625Z" fill="#82929C" fill-opacity="0.26"/>
<path id="Vector_40" fill-rule="evenodd" clip-rule="evenodd" d="M21.3638 29.2342C23.1561 25.6353 27.6043 24.2707 31.1787 23.5568C32.5882 22.8972 33.864 24.9181 32.2314 25.5133C28.9629 25.9402 25.4177 27.1452 23.2315 29.8118C23.2335 29.8035 23.2356 29.7952 23.2352 29.7928C22.9264 31.0023 21.1333 30.4732 21.3638 29.2342Z" fill="#82929C" fill-opacity="0.26"/>
</g>
</svg>
