<svg width="33" height="32" viewBox="0 0 33 32" fill="none" xmlns="http://www.w3.org/2000/svg">
<g id="credit-card">
<path id="Vector" d="M4.5 13.3333H28.5M9.83333 20H9.84667M15.1667 20H17.8333M4.5 10.6666C4.5 9.60576 4.92143 8.58834 5.67157 7.8382C6.42172 7.08805 7.43913 6.66663 8.5 6.66663H24.5C25.5609 6.66663 26.5783 7.08805 27.3284 7.8382C28.0786 8.58834 28.5 9.60576 28.5 10.6666V21.3333C28.5 22.3942 28.0786 23.4116 27.3284 24.1617C26.5783 24.9119 25.5609 25.3333 24.5 25.3333H8.5C7.43913 25.3333 6.42172 24.9119 5.67157 24.1617C4.92143 23.4116 4.5 22.3942 4.5 21.3333V10.6666Z" stroke="#58A6FD" stroke-width="2" stroke-linecap="round" stroke-linejoin="round"/>
</g>
</svg>
