<svg width="101" height="99" viewBox="0 0 101 99" fill="none" xmlns="http://www.w3.org/2000/svg">
<g id="Group">
<path id="Vector" fill-rule="evenodd" clip-rule="evenodd" d="M38.1217 43.1543C35.0395 38.5145 32.4844 33.5178 29.2649 28.9748C26.9866 25.3268 25.528 21.1574 22.903 17.7438C22.1984 16.7674 23.6768 15.6147 24.3737 16.6189C27.0627 20.1216 28.58 24.3847 30.9054 28.1324C33.604 31.9816 35.9923 36.1314 38.3627 40.1947C38.7494 40.8229 39.1609 41.4335 39.5921 42.0273C40.2951 43.0093 38.8129 44.1578 38.1217 43.1543Z" fill="#82929C" fill-opacity="0.24"/>
<path id="Vector_2" fill-rule="evenodd" clip-rule="evenodd" d="M38.773 42.8649C38.5268 41.2257 41.2538 39.8761 42.1499 38.6471C46.7541 33.9637 51.351 29.2749 55.8745 24.5057C56.7216 23.6835 59.0701 20.7588 59.413 23.412C58.3262 25.0997 56.4654 26.3169 55.189 27.9232C51.2795 32.0288 47.2964 36.0621 43.3267 40.1047C42.3762 41.0413 41.3872 41.9372 40.4619 42.9012C40.1699 43.6572 39.039 43.6449 38.773 42.8649Z" fill="#82929C" fill-opacity="0.24"/>
<path id="Vector_3" fill-rule="evenodd" clip-rule="evenodd" d="M23.1281 16.5104C23.452 15.4237 24.6467 16.0038 25.4096 15.9931C29.2356 16.1556 33.0417 16.5557 36.7974 17.3569C42.365 18.5024 47.9961 19.2892 53.6137 20.1208C55.6434 20.5736 58.0573 20.3369 59.8587 21.3984C60.7415 23.8028 57.5436 22.5155 56.4171 22.4297C52.7114 21.9226 49.0069 21.4075 45.3189 20.7715C40.0565 20.1316 34.9165 18.6866 29.64 18.1768C28.2854 17.7565 22.6467 18.6623 23.1281 16.5104Z" fill="#82929C" fill-opacity="0.24"/>
<path id="Vector_4" fill-rule="evenodd" clip-rule="evenodd" d="M23.149 17.4173C21.4869 15.9285 25.4959 13.9341 26.3589 12.9324C32.1166 8.18371 34.54 7.85515 41.7117 9.01234C52.3104 10.1259 53.4924 8.22031 58.8095 19.128C59.1787 19.8195 59.5617 20.5007 59.9167 21.2005C60.4808 22.2707 58.8882 23.2098 58.3206 22.1199C57.7734 21.0392 57.1714 19.9908 56.6217 18.9115C55.1941 16.4786 54.0333 13.4956 51.6096 12.0199C47.1919 11.1204 42.6211 11.2197 38.1683 10.4865C36.3009 10.4222 34.2897 10.1291 32.5346 10.9503C30.0839 12.4095 27.6774 14.209 25.5171 16.0622C24.7433 16.5151 24.1642 17.9952 23.149 17.4173Z" fill="#82929C" fill-opacity="0.24"/>
<path id="Vector_5" fill-rule="evenodd" clip-rule="evenodd" d="M35.7053 17.652C35.0193 16.3065 30.6352 9.83712 33.8791 9.81826C34.3477 9.96007 34.6296 10.4816 34.5073 10.9734C35.2262 13.247 36.3849 15.4247 37.759 17.3386C44.1198 8.81532 43.7712 7.56049 49.4864 17.7318C50.3186 16.6147 51.4555 11.9699 53.1187 12.822C53.5306 13.0861 53.6924 13.6993 53.4183 14.1317C52.1334 15.5491 51.2386 20.3379 49.3001 20.2208C48.224 19.9098 47.9114 18.4889 47.3256 17.6193C46.3118 15.7957 45.2729 13.8688 43.8304 12.4391C42.2606 14.2273 41.0112 16.2937 39.5139 18.1476C38.2687 20.1267 36.6838 19.4774 35.7053 17.652Z" fill="#82929C" fill-opacity="0.24"/>
<path id="Vector_6" fill-rule="evenodd" clip-rule="evenodd" d="M38.9377 41.1127C38.2351 37.777 38.3196 33.9798 37.5044 30.6193C36.8978 26.6817 35.7535 22.722 35.8028 18.7246C36.1029 17.5943 37.7967 18.0121 37.5738 19.1658C37.0276 21.3002 43.2132 44.3168 38.9377 41.1127Z" fill="#82929C" fill-opacity="0.24"/>
<path id="Vector_7" fill-rule="evenodd" clip-rule="evenodd" d="M38.8995 42.4691C37.2183 41.901 40.6893 37.0485 41.0729 35.8071C42.8446 32.5236 44.7101 29.2934 46.3824 25.9517C47.4258 24.025 48.1048 21.9006 49.1282 19.9741C49.7115 19.1553 51.0752 19.8158 50.7758 20.8214C50.1983 21.7741 49.8569 22.8597 49.3878 23.8848C47.2296 28.7618 44.449 33.2933 42.003 38.0083C41.1607 39.0578 40.446 43.0557 38.8995 42.4691Z" fill="#82929C" fill-opacity="0.24"/>
<path id="Vector_8" fill-rule="evenodd" clip-rule="evenodd" d="M35.5649 83.877C34.1392 82.9584 35.9989 81.1121 36.2675 79.9264C38.3889 75.2433 41.1254 70.6516 43.3194 66.0624C45.246 61.6983 47.2802 57.373 48.9659 52.9006C49.2603 51.4021 51.4366 52.2178 50.6607 53.5415C50.6719 53.5262 50.6829 53.5118 50.6941 53.4964C50.7078 53.4683 50.7207 53.4399 50.7344 53.4118C47.312 62.6348 42.7063 71.2685 38.2611 79.9737C37.4961 80.9957 37.1193 84.363 35.5649 83.877Z" fill="#82929C" fill-opacity="0.24"/>
<path id="Vector_9" fill-rule="evenodd" clip-rule="evenodd" d="M35.0303 84.7281C33.6446 81.8956 38.817 83.569 40.0507 83.5623C43.5125 84.0081 46.9717 84.5354 50.4636 84.6062C54.5374 84.6115 58.6018 84.6899 62.654 85.1686C63.8616 85.5444 67.1507 84.5388 67.2673 86.2502C67.4419 88.281 59.7999 86.5672 58.3674 86.6803C52.7341 86.4519 47.0804 86.6317 41.4925 85.6747C39.4359 85.2325 36.9235 85.354 35.0303 84.7281Z" fill="#82929C" fill-opacity="0.24"/>
<path id="Vector_10" fill-rule="evenodd" clip-rule="evenodd" d="M66.7917 86.5342C63.656 79.0091 59.1737 71.9738 55.3217 64.7732C53.2146 61.1186 51.2854 57.3607 49.2938 53.6379C48.5003 52.7597 49.8192 51.4421 50.6279 52.3375C54.4016 59.3603 58.3421 66.3097 62.1469 73.3242C64.1696 77.1511 66.3851 80.878 68.1958 84.8229C68.9239 85.9229 67.9436 87.7656 66.7917 86.5342Z" fill="#82929C" fill-opacity="0.24"/>
<path id="Vector_11" fill-rule="evenodd" clip-rule="evenodd" d="M49.8819 53.2465C49.9964 52.5379 50.7054 52.337 51.293 52.5273C54.941 52.815 58.6218 52.8368 62.2217 53.593C63.5164 53.6037 63.408 55.7071 62.1072 55.5061C61.5686 55.4191 61.0354 55.2984 60.4983 55.2098C57.9073 54.7912 55.2846 54.6888 52.6707 54.5329C51.7199 54.3774 49.7806 54.7775 49.8819 53.2465Z" fill="#82929C" fill-opacity="0.24"/>
<path id="Vector_12" fill-rule="evenodd" clip-rule="evenodd" d="M67.2994 86.3566C66.1909 85.5152 67.5837 84.348 67.9173 83.4454C69.2503 80.5163 71.3987 78.0193 72.2671 74.8654C72.4573 73.7361 71.4494 72.7836 71.0652 71.7793C69.1165 67.9124 66.8943 64.2199 64.6725 60.5264C63.7611 58.9732 62.898 57.3858 61.9151 55.8787C61.057 55.1078 61.3742 53.4444 62.6866 53.9165C62.65 53.9013 62.614 53.8873 62.578 53.8732C62.5704 53.872 62.5625 53.8717 62.5549 53.8704C63.7835 54.7637 64.3377 56.5243 65.221 57.7868C66.8644 60.7243 68.6942 63.5392 70.3234 66.4849C71.4148 68.992 74.0857 72.204 74.1157 74.8792C73.5243 78.0577 71.426 80.575 70.0123 83.3714C69.2855 84.3487 68.8532 86.9996 67.2994 86.3566Z" fill="#82929C" fill-opacity="0.24"/>
<path id="Vector_13" fill-rule="evenodd" clip-rule="evenodd" d="M61.6588 75.2035C59.1995 73.9211 65.7429 67.0792 66.3682 65.127C64.1803 64.4649 52.9031 67.6861 55.4218 62.8702C56.9844 59.536 58.5257 55.9193 60.9029 53.2833C63.3188 53.3846 61.0674 56.1023 60.4371 57.1161C59.1404 59.1733 58.0716 61.3714 57.1005 63.6125C70.4178 63.2448 71.4536 60.7776 63.2051 73.5716C64.9969 73.9847 73.6164 72.4058 73.6163 74.6326C73.598 75.1372 73.1659 75.5863 72.6704 75.5488C69.0251 74.9527 65.2463 76.033 61.6588 75.2035Z" fill="#82929C" fill-opacity="0.24"/>
<path id="Vector_14" fill-rule="evenodd" clip-rule="evenodd" d="M36.9304 82.3914C35.1127 81.2449 42.0122 76.2462 42.9159 75.0653C46.6494 71.4728 50.2334 67.6113 53.5336 63.591C53.7683 61.4092 57.5244 62.7487 53.5753 66.5477C49.3687 71.1328 45.182 75.7146 40.5585 79.8487C39.4739 80.4387 38.1601 83.3059 36.9304 82.3914Z" fill="#82929C" fill-opacity="0.24"/>
<path id="Vector_15" fill-rule="evenodd" clip-rule="evenodd" d="M35.4975 82.2326C35.5281 80.6907 37.6078 81.1971 38.5952 80.8286C44.4034 79.8606 50.1008 78.3074 55.8468 77.0177C57.9775 76.6131 60.0953 75.8381 62.2546 75.7222C62.8934 75.8322 63.2331 76.6554 62.8583 77.2103C62.2834 77.9306 59.961 77.8264 58.9564 78.2533C54.1592 79.3356 49.3824 80.5063 44.5879 81.604C42.6861 82.0269 40.7689 82.3796 38.8497 82.7108C37.7912 82.707 35.8424 83.8319 35.4975 82.2326Z" fill="#82929C" fill-opacity="0.24"/>
<path id="Vector_16" fill-rule="evenodd" clip-rule="evenodd" d="M15.3184 75.4862C10.892 71.6587 7.42038 66.5585 3.81714 61.8942C3.32799 60.8051 4.97326 59.985 5.46947 61.0846C8.73213 65.3459 12.0167 69.6108 15.7073 73.4812C17.6917 70.311 19.3412 66.9114 20.7212 63.4094C21.4483 62.2906 22.17 57.5015 23.7632 58.2179C24.2152 58.4233 24.437 58.9964 24.2339 59.4711C23.5131 61.182 22.9068 62.9433 22.195 64.658C21.3571 66.371 17.3498 76.8609 15.3184 75.4862Z" fill="#82929C" fill-opacity="0.24"/>
<path id="Vector_17" fill-rule="evenodd" clip-rule="evenodd" d="M4.38475 62.2949C1.36752 59.4706 14.0638 58.9795 15.4682 58.5508C17.8665 58.3344 20.2639 58.125 22.6508 57.7948C23.814 57.6366 24.0584 59.5449 22.8803 59.685C17.895 60.3065 12.7141 60.6491 7.7972 61.6098C7.0135 61.7714 6.22508 61.9284 5.46457 62.1897C5.17695 62.4587 4.71822 62.5041 4.38475 62.2949Z" fill="#82929C" fill-opacity="0.24"/>
<path id="Vector_18" fill-rule="evenodd" clip-rule="evenodd" d="M4.3816 61.5278C2.7284 60.4633 5.23435 58.0599 5.65203 56.7673C6.65302 53.4942 10.0532 53.3425 12.8384 53.0453C20.3825 52.0197 19.035 51.6422 24.1517 57.7211C24.8335 59.3047 23.0335 59.9427 22.0874 58.0584C20.8372 56.8691 19.814 55.0041 18.2997 54.2867C14.9937 54.8645 11.5069 54.7246 8.33064 55.9091C7.25775 57.248 6.5987 59.0526 5.6924 60.5596C5.64542 61.2939 4.94452 61.8865 4.27037 61.4691L4.3816 61.5278Z" fill="#82929C" fill-opacity="0.24"/>
<path id="Vector_19" fill-rule="evenodd" clip-rule="evenodd" d="M11.9734 60.659C10.3635 59.4525 8.76702 58.0574 7.51682 56.4403C6.8676 55.6775 7.55323 54.3775 8.522 54.7956C9.71652 56.2002 11.0505 57.5543 12.5001 58.7425C13.9465 56.7202 14.9313 50.776 17.7296 55.128C18.2873 55.9662 18.7458 56.8711 19.2775 57.7274C19.7108 58.2916 20.2531 59.1241 19.5225 59.6984C17.8269 60.6136 17.0237 56.8143 15.9841 55.8751C15.001 57.361 14.2708 61.476 11.9734 60.659Z" fill="#82929C" fill-opacity="0.24"/>
<path id="Vector_20" fill-rule="evenodd" clip-rule="evenodd" d="M15.4818 73.9897C12.9827 71.042 12.0856 67.1394 10.5903 63.62C10.0272 62.6001 8.9988 60.5128 11.0565 60.8252C12.9412 63.1143 13.3708 66.508 14.7159 69.1887C15.2954 70.4155 15.9388 71.62 16.7917 72.6652C17.612 73.5474 16.2859 74.8909 15.4818 73.9897Z" fill="#82929C" fill-opacity="0.24"/>
<path id="Vector_21" fill-rule="evenodd" clip-rule="evenodd" d="M14.666 73.5002C14.7887 69.4428 15.7483 65.4597 16.1718 61.4309C16.3379 60.5973 16.0336 59.1716 17.2 59.1311C18.8792 59.4185 17.7827 61.8174 17.809 62.9955C17.5397 65.0003 17.2201 66.996 16.9404 68.9987C16.7487 70.4929 16.4737 71.9931 16.4891 73.5053C16.502 74.7282 14.6677 74.7458 14.666 73.5002Z" fill="#82929C" fill-opacity="0.24"/>
<path id="Vector_22" fill-rule="evenodd" clip-rule="evenodd" d="M67.3565 47.8883C66.0101 47.0176 67.6234 45.1655 67.9294 44.039C68.6199 43.0955 68.8976 40.3666 70.3864 40.8234C71.8222 41.7128 69.89 43.6266 69.6071 44.7851C68.8902 45.7196 68.9166 48.3572 67.3565 47.8883Z" fill="#82929C" fill-opacity="0.24"/>
<path id="Vector_23" fill-rule="evenodd" clip-rule="evenodd" d="M75.424 58.4872C73.7758 56.6423 78.9466 55.2285 80.0072 54.3908C81.0271 53.7718 81.9402 55.4733 80.8976 56.0521C79.5349 56.7797 78.1267 57.4269 76.8135 58.2528C76.446 58.659 75.873 58.8729 75.424 58.4872Z" fill="#82929C" fill-opacity="0.24"/>
<path id="Vector_24" fill-rule="evenodd" clip-rule="evenodd" d="M81.7636 70.6058C81.2919 70.4464 80.9884 69.9527 81.1245 69.4359C81.4307 68.3553 82.577 68.8874 83.3458 68.9056C84.5015 69.2564 88.6665 68.6553 88.4307 70.4058C88.3641 70.927 87.9 71.2831 87.4066 71.2233C85.5328 70.9593 83.6254 70.9349 81.7636 70.6058Z" fill="#82929C" fill-opacity="0.24"/>
</g>
</svg>
