<svg width="90" height="117" viewBox="0 0 90 117" fill="none" xmlns="http://www.w3.org/2000/svg">
<g id="Group">
<path id="Vector" fill-rule="evenodd" clip-rule="evenodd" d="M19.0848 98.0719C10.9636 93.399 12.28 92.774 18.0254 86.2893C16.7179 83.9479 12.6605 90.5509 10.6691 89.9671C8.91024 89.3776 7.69778 87.6313 6.27622 86.4568C1.97777 82.9689 8.55182 79.8611 10.6507 77.5001C6.63213 68.4304 12.3475 55.7246 20.001 50.6501C20.4628 50.3671 20.9367 50.1087 21.4295 49.8861C22.5133 49.425 23.2068 51.1933 22.1058 51.6555C21.5255 51.9275 20.9689 52.2546 20.4296 52.6089C15.2159 56.4145 11.9667 63.0987 11.1435 69.6029C11.0258 71.463 11.1587 73.3532 11.7211 75.1308C12.0155 76.186 12.8743 77.2922 12.2628 78.3929C10.8286 80.6771 7.75724 81.479 6.64223 84.0274C7.74407 85.5653 9.4408 86.8574 10.9109 88.0726C13.2784 86.7194 15.4677 82.9095 18.5308 84.0759C19.418 84.6733 20.1522 85.899 19.7147 87.0076C14.915 93.6338 12.3917 91.975 20.7099 96.7709C29.5622 87.0329 26.1284 92.2079 37.3713 92.0777C48.6983 91.5179 58.9364 80.645 57.8236 68.5589C57.5349 61.7433 53.937 55.8657 50.7976 50.1165C49.2555 47.1149 46.7656 44.4219 46.7176 40.8335C45.3759 32.174 56.3811 23.5913 62.5217 31.4137C63.9248 33.3166 64.2115 35.9747 63.5884 38.2503C63.2056 39.3015 62.1858 41.9162 60.8017 40.8332C60.3468 40.3718 60.5416 39.6541 60.9981 39.2821C63.3438 36.3284 61.7192 31.5102 58.226 30.498C52.0752 28.9376 47.2231 36.2423 48.7099 42.137C51.7513 49.6034 57.3583 55.9651 59.0361 64.112C63.4304 81.4667 47.3468 97.4521 30.9529 93.3753C29.5653 93.3978 27.859 92.0289 26.7291 93.2537C25.4474 94.4546 24.2805 95.7807 23.068 97.0555C22.0828 98.3981 20.5348 99.2768 19.0848 98.0719Z" fill="#82929C" fill-opacity="0.24"/>
<path id="Vector_2" fill-rule="evenodd" clip-rule="evenodd" d="M29.2744 75.3817C26.3141 73.2544 25.1704 68.9221 26.587 65.4895C27.435 63.1861 29.6601 61.9158 30.4477 59.665C27.8555 56.6829 24.9618 53.8584 22.0217 51.277C21.1705 50.3157 22.5615 49.0543 23.4315 49.9443C25.1485 51.4185 26.6543 53.1484 28.3077 54.7012C29.6511 56.3809 32.7147 57.8836 32.1496 60.4132C31.2905 62.9474 28.6588 64.3664 28.004 67.0114C26.6226 78.1605 39.3667 75.8424 42.8828 68.5362C45.0154 62.3741 39.05 57.3677 37.0176 52.0909C35.4886 48.503 34.4267 44.6952 34.1324 40.7698C32.0739 23.9242 51.2672 11.0336 65.6793 16.9157C66.7568 17.3979 66.0844 19.1391 64.9853 18.6774C62.3924 17.6222 59.5379 17.3174 56.7711 17.336C43.8942 18.753 33.1676 29.6634 36.3523 43.7798C37.0944 47.6241 38.4876 51.5623 40.5404 54.8195C42.4373 57.9315 44.6137 61.124 45.1283 64.8579C46.3016 72.4097 35.2645 79.698 29.2744 75.3817Z" fill="#82929C" fill-opacity="0.24"/>
<path id="Vector_3" fill-rule="evenodd" clip-rule="evenodd" d="M77.9452 29.2995C76.6465 27.9186 81.3471 25.3475 81.9946 23.9621C77.2957 18.7122 78.1408 22.3066 73.917 24.7243C72.2944 25.2681 71.1189 23.2592 70.3505 22.0564C69.6273 19.7877 72.8392 18.5141 73.7085 16.6982C70.7804 14.39 69.9763 14.4059 67.5302 17.2043C66.8282 17.729 66.1518 18.938 65.168 18.5924C64.0579 18.0015 64.8222 16.9064 65.6027 16.4545C66.5848 15.569 67.4959 14.5986 68.462 13.6958C70.6203 12.0117 73.6752 14.024 75.2974 15.7006C76.418 18.0157 73.1999 19.7361 72.0639 21.3714C72.4369 21.934 72.8872 22.444 73.3748 22.8987C75.1831 21.9322 76.1461 19.343 78.3521 19.2058C80.4972 19.6414 82.6624 21.4751 83.7492 23.427C84.1543 24.7728 82.9353 25.7511 82.115 26.5772C81.0111 27.2478 79.2258 30.3825 77.9452 29.2995Z" fill="#82929C" fill-opacity="0.24"/>
<path id="Vector_4" fill-rule="evenodd" clip-rule="evenodd" d="M72.0975 51.7929C70.492 50.9843 69.4595 49.3289 68.205 48.0582C65.7899 45.5409 63.1626 43.4196 60.6293 41.0592C59.6953 40.3143 60.811 38.7812 61.7389 39.5481C65.6022 42.7951 69.1071 46.4729 72.7051 49.9873C77.5077 45.163 82.6492 36.6695 77.7732 30.1532C76.5662 29.6172 77.0082 27.7511 78.3426 28.2517C83.7355 32.9193 81.5062 41.6569 77.757 46.7406C76.5354 48.2032 74.1821 52.6121 72.0975 51.7929Z" fill="#82929C" fill-opacity="0.24"/>
<path id="Vector_5" fill-rule="evenodd" clip-rule="evenodd" d="M47.5469 39.8415C46.4248 38.5567 48.2624 36.2582 48.9677 35.0922C51.931 30.6306 60.4566 30.4807 63.2911 35.1123C63.5476 35.5563 63.4344 36.1446 63.0099 36.4263C62.1634 36.9729 61.6937 35.9969 61.243 35.4201C58.5151 32.8488 52.8278 32.9341 50.5216 36.1089C49.9023 36.921 49.3816 37.8305 49.0528 38.8126C49.0488 39.6255 48.2963 40.39 47.5469 39.8415Z" fill="#82929C" fill-opacity="0.24"/>
<path id="Vector_6" fill-rule="evenodd" clip-rule="evenodd" d="M69.6834 57.6594C66.4776 54.3616 62.3738 52.0839 59.3653 48.5803C58.8115 47.811 59.2126 46.8195 59.3162 45.9816C59.6875 44.094 59.5734 42.0316 60.2661 40.2423C60.8455 39.2756 62.346 39.9566 61.9535 41.0538C61.2792 43.1005 61.3842 45.4185 60.8965 47.5466C63.9347 50.8094 67.8121 53.081 70.9251 56.2644C71.7977 57.0947 70.5374 58.5061 69.6834 57.6594Z" fill="#82929C" fill-opacity="0.24"/>
<path id="Vector_7" fill-rule="evenodd" clip-rule="evenodd" d="M70.7052 56.816C71.0374 55.4799 70.6382 50.3506 72.4143 50.5435C73.4853 50.7072 73.2226 51.7458 72.994 52.5105C72.7826 53.9967 72.6456 55.4949 72.52 56.9914C72.4221 58.2153 70.5907 58.0494 70.7052 56.816Z" fill="#82929C" fill-opacity="0.24"/>
<path id="Vector_8" fill-rule="evenodd" clip-rule="evenodd" d="M70.9524 57.3115C70.7133 55.9628 73.6799 55.6435 74.5177 54.6717C79.6379 50.8513 80.5729 43.5439 80.115 37.4328C80.0362 36.2107 81.9015 36.1099 81.9356 37.3497C82.691 45.3248 80.3253 55.2308 72.2445 58.0002C72.2753 57.9825 72.3061 57.9647 72.337 57.947C72.3375 57.945 72.3389 57.9434 72.3397 57.9405C71.8222 58.3169 71.0414 57.9609 70.9524 57.3115Z" fill="#82929C" fill-opacity="0.24"/>
<path id="Vector_9" fill-rule="evenodd" clip-rule="evenodd" d="M79.4287 31.5544C79.1681 30.2044 81.5507 29.3003 82.2813 28.32C83.3127 27.1309 82.0271 25.3177 82.5952 24.0145C84.7569 21.991 84.7748 27.9252 84.0972 28.9695C83.3232 30.2146 81.9681 30.9289 80.9479 31.934C80.4734 32.4317 79.6334 32.2285 79.4287 31.5544Z" fill="#82929C" fill-opacity="0.24"/>
<path id="Vector_10" fill-rule="evenodd" clip-rule="evenodd" d="M74.5911 20.743C74.8574 19.4973 73.4432 16.3397 75.3142 16.3083C76.6614 16.4963 76.2432 19.5564 76.4126 20.6602C76.4706 21.8895 74.6339 21.9802 74.5911 20.743Z" fill="#82929C" fill-opacity="0.24"/>
<path id="Vector_11" fill-rule="evenodd" clip-rule="evenodd" d="M27.2868 97.01C26.8091 96.3793 27.3846 95.3406 28.1545 95.5059C31.3882 96.2106 34.7266 96.6056 38.0074 96.4282C42.9216 96.0382 47.9743 94.3065 51.8463 91.0631C56.7816 86.4538 59.5882 79.2963 59.3637 72.4001C59.2176 69.6117 58.6374 66.8554 57.5776 64.2881C57.3982 63.1126 55.7142 61.5515 56.9292 60.5877C58.9427 59.1929 61.2339 70.1635 61.1417 71.6472C61.6676 80.3107 57.7224 89.7097 50.5646 94.3606C43.6572 98.4637 34.7844 99.6661 27.2868 97.01Z" fill="#82929C" fill-opacity="0.24"/>
<path id="Vector_12" fill-rule="evenodd" clip-rule="evenodd" d="M26.2708 97.0305C25.8522 96.0824 26.3485 94.923 26.4332 93.9231C26.5838 92.9225 26.987 90.8333 28.3417 91.7315C29.036 92.3101 28.4036 93.1046 28.3164 93.808C27.9546 94.9384 28.24 98.6695 26.2708 97.0305Z" fill="#82929C" fill-opacity="0.24"/>
<path id="Vector_13" fill-rule="evenodd" clip-rule="evenodd" d="M19.0713 104.02C17.6498 103.497 19.0454 98.8021 19.8404 98.0423C22.116 97.4597 20.7489 100.207 20.4976 101.33C23.0429 99.6474 24.917 97.0226 27.5538 95.6645C28.8044 95.4714 29.0516 97.5492 27.773 97.6172C25.9208 98.8536 20.9493 104.432 19.0713 104.02Z" fill="#82929C" fill-opacity="0.24"/>
<path id="Vector_14" fill-rule="evenodd" clip-rule="evenodd" d="M18.4182 103.415C16.1715 101.936 12.81 100.399 11.5766 97.8934C11.5095 96.9456 12.1377 96.13 12.37 95.2404C12.8962 94.1785 12.8324 92.4633 13.9682 91.9075C15.0559 91.6766 15.3446 92.9789 14.7899 93.7344C14.3642 95.0235 13.9668 96.3253 13.4399 97.5734C15.2335 99.253 17.2612 100.602 19.373 101.79C20.3889 102.412 19.4163 104.076 18.4182 103.415Z" fill="#82929C" fill-opacity="0.24"/>
<path id="Vector_15" fill-rule="evenodd" clip-rule="evenodd" d="M8.86361 95.1894C8.10341 94.723 8.36714 93.8138 8.67306 93.1371C9.15531 91.7516 9.45758 90.3148 9.78243 88.8828C9.88878 87.4845 11.9541 87.7368 11.6222 89.1334C11.2402 90.4659 11.0401 91.8576 10.5884 93.1722C11.1974 92.9546 11.7994 92.712 12.39 92.4421C13.4802 91.9755 14.1588 93.7654 13.0594 94.2145C11.7493 94.6624 10.2536 95.737 8.86361 95.1894Z" fill="#82929C" fill-opacity="0.24"/>
<path id="Vector_16" fill-rule="evenodd" clip-rule="evenodd" d="M8.64606 94.9037C6.58484 93.2483 2.98347 90.9905 3.43992 87.8784C4.11216 86.616 4.04328 83.3763 5.59492 83.1712C6.09079 83.1463 6.50149 83.6412 6.49498 84.1358C6.05106 85.613 5.47458 87.1626 5.17033 88.6821C6.09134 90.6608 7.91126 92.0475 9.60056 93.2801C10.6125 93.9163 9.64149 95.5599 8.64606 94.9037Z" fill="#82929C" fill-opacity="0.24"/>
<path id="Vector_17" fill-rule="evenodd" clip-rule="evenodd" d="M27.107 70.6992C27.5654 69.2274 28.5986 67.9597 29.9929 67.3989C30.5887 65.3586 31.0675 63.2808 30.9537 61.1455C30.7154 60.0209 30.935 58.6091 32.3307 59.3593C33.4773 61.3324 32.395 66.8234 31.2936 68.7794C30.2881 69.3788 29.1898 69.9355 28.8575 71.2289C28.5464 72.4173 26.7533 71.8758 27.107 70.6992Z" fill="#82929C" fill-opacity="0.24"/>
<path id="Vector_18" fill-rule="evenodd" clip-rule="evenodd" d="M30.3323 27.8289C28.1743 26.6741 35.2817 17.8927 36.7864 17.1019C37.3898 16.5953 38.0161 16.1175 38.6563 15.6647C39.6339 14.983 40.648 16.586 39.655 17.2589C38.4361 18.1143 37.2871 19.0773 36.2383 20.1529C35.0343 21.3252 34.0476 22.7089 33.2064 24.1825C32.3198 25.1364 31.9038 28.4294 30.3323 27.8289Z" fill="#82929C" fill-opacity="0.24"/>
<path id="Vector_19" fill-rule="evenodd" clip-rule="evenodd" d="M45.1783 13.0359C44.3751 11.3905 48.8211 10.458 48.8678 12.1451C48.9234 13.1166 47.922 13.205 47.2284 13.2533C46.5243 13.3505 45.6137 13.9703 45.1783 13.0359Z" fill="#82929C" fill-opacity="0.24"/>
<path id="Vector_20" fill-rule="evenodd" clip-rule="evenodd" d="M59.074 93.855C58.2866 93.0733 59.2384 92.2578 59.7116 91.6317C61.441 89.213 62.9426 86.5702 63.7072 83.6368C64.0071 82.5428 64.1194 81.4108 64.308 80.2946C64.4219 79.7898 64.8815 79.4427 65.3805 79.5468C66.4632 79.8089 65.9997 81.0439 65.9153 81.8522C66.1343 83.7872 61.2198 95.6474 59.074 93.855Z" fill="#82929C" fill-opacity="0.24"/>
<path id="Vector_21" fill-rule="evenodd" clip-rule="evenodd" d="M53.053 98.3628C52.4327 97.2725 53.8475 96.7918 54.3974 96.1295C54.7682 95.6462 55.2359 95.0507 55.8916 95.4126C57.6603 96.308 53.9058 99.9045 53.053 98.3628Z" fill="#82929C" fill-opacity="0.24"/>
</g>
</svg>
