<svg width="101" height="116" viewBox="0 0 101 116" fill="none" xmlns="http://www.w3.org/2000/svg">
<g id="Group">
<path id="Vector" fill-rule="evenodd" clip-rule="evenodd" d="M32.4476 39.3109C26.1261 37.0472 20.33 30.6887 20.6209 23.377C20.752 17.2931 23.2379 11.2827 27.9704 7.60004C29.4412 6.57201 31.8982 4.50045 33.6655 5.28928C45.0081 2.69171 59.0837 11.2994 58.8394 24.298C58.5374 29.3734 55.1685 33.6269 51.6687 36.8716C46.3132 41.0455 38.6126 41.8989 32.4476 39.3109ZM35.5977 38.4079C43.634 40.1724 51.3463 36.95 55.4267 29.393C59.5572 22.4935 54.9496 13.7744 48.9085 10.0017C44.8432 7.52018 40.0669 6.31537 35.3722 6.89778C34.2104 6.8856 32.9348 7.86338 31.8559 7.36826C25.2925 10.4448 21.8149 18.3206 22.5314 25.6124C23.7062 32.2923 29.578 36.8383 35.5977 38.4079Z" fill="#82929C" fill-opacity="0.24"/>
<path id="Vector_2" fill-rule="evenodd" clip-rule="evenodd" d="M31.9777 46.8197C22.8252 43.2059 15.3702 35.1919 19.078 24.399C19.7195 22.1758 20.615 20.0461 21.3871 17.8729C21.5506 17.3831 22.0696 17.1091 22.5429 17.2773C24.0896 18.0827 22.0554 20.559 21.8686 21.8236C20.2581 26.2115 18.7602 31.5705 21.3377 35.8536C24.7232 41.3472 30.756 45.6172 37.1239 45.768C48.4202 46.6929 54.8785 41.2338 56.9443 29.6453C57.0812 28.4281 57.1159 27.1987 57.145 25.9749C57.1582 25.4563 57.6255 25.049 58.109 25.0798C59.6869 25.4594 58.6927 27.8486 58.8328 29.058C58.201 34.8748 55.51 40.8451 51.0469 44.4864C45.5378 48.2943 38.2213 48.4081 31.9777 46.8197Z" fill="#82929C" fill-opacity="0.24"/>
<path id="Vector_3" fill-rule="evenodd" clip-rule="evenodd" d="M53.8385 101.662C39.5261 95.61 41.2126 78.3673 51.7035 69.2178C55.9008 64.8245 63.2951 64.7571 68.4995 67.322C74.2742 70.6685 79.5255 76.5383 80.7508 83.4886C81.9178 97.2671 65.1335 106.137 53.8385 101.662ZM55.7037 100.285C63.6525 102.577 72.9367 98.5908 77.3406 91.3691C81.0718 85.293 77.8932 78.0776 73.3661 73.5595C65.5808 64.5733 53.9584 65.7359 48.1945 76.3439C42.6016 85.9281 44.9841 96.6911 55.7037 100.285Z" fill="#82929C" fill-opacity="0.24"/>
<path id="Vector_4" fill-rule="evenodd" clip-rule="evenodd" d="M54.8136 109.181C50.4893 107.351 45.8337 104.754 43.2031 100.609C42.5628 98.8679 42.5378 96.9406 42.4095 95.0987C42.4899 93.5854 42.0315 84.0272 44.2558 84.9428C44.7327 85.1121 45.0185 85.7129 44.8024 86.2055C44.2728 90.8008 43.4366 96.1007 45.2336 100.44C52.4597 108.637 64.6811 111.511 73.8295 105.074C77.8975 101.489 79.5384 95.4912 79.4776 90.0791C79.4676 88.9569 79.411 87.8415 79.2784 86.727C79.1979 85.9031 78.6713 84.6256 79.7857 84.3486C80.2707 84.2445 80.7613 84.5835 80.8598 85.0911C82.1872 92.7698 80.6635 102.232 74.2923 107.056C68.4959 110.628 61.1739 111.701 54.8136 109.181Z" fill="#82929C" fill-opacity="0.24"/>
<path id="Vector_5" fill-rule="evenodd" clip-rule="evenodd" d="M38.3444 33.8685C35.7376 32.6945 32.9389 31.325 31.2614 28.8342C29.6194 25.8086 29.6072 21.6522 31.7594 18.8898C34.8849 14.3929 40.7325 12.5708 45.3384 15.7291C46.1079 16.32 47.4743 16.8595 47.5736 17.9358C47.5918 18.744 46.5955 19.2129 46.0351 18.6508C43.9774 16.5655 40.8846 15.539 38.0748 16.2702C31.8217 18.4204 29.0766 26.9957 35.8646 30.4843C37.14 31.2262 38.4346 31.9709 39.8501 32.3763C40.5603 32.6672 41.4769 32.4824 42.0611 33.0266C43.1528 35.5401 39.4365 34.2906 38.3444 33.8685Z" fill="#82929C" fill-opacity="0.24"/>
<path id="Vector_6" fill-rule="evenodd" clip-rule="evenodd" d="M41.3496 23.8365C38.1085 21.594 35.2654 18.7089 32.0993 16.4474C31.5444 16.3763 31.1673 15.749 31.3554 15.1958C32.2523 12.6043 38.1072 19.3512 39.5418 20.0935C40.3338 21.1285 43.3726 22.048 42.6152 23.5855C42.3355 24.0203 41.7532 24.12 41.3496 23.8365Z" fill="#82929C" fill-opacity="0.24"/>
<path id="Vector_7" fill-rule="evenodd" clip-rule="evenodd" d="M38.1329 26.7844C35.154 24.616 32.312 22.2309 29.2114 20.2506C28.6551 19.9865 28.1056 19.5683 28.334 18.8587C29.1694 16.8128 32.8689 20.7806 34.0565 21.3617C35.7493 22.6537 37.4559 23.928 39.1556 25.2095C40.1376 25.8961 39.0972 27.4916 38.1329 26.7844Z" fill="#82929C" fill-opacity="0.24"/>
<path id="Vector_8" fill-rule="evenodd" clip-rule="evenodd" d="M23.9027 40.5158C24.1459 38.9831 23.1004 32.9441 25.2807 33.1947C25.8921 33.3245 26.2326 34.098 25.8671 34.6484C25.7532 35.5738 25.7595 36.5116 25.7355 37.4434C25.4571 38.6573 26.4164 40.9975 24.8774 41.3979C24.3995 41.4334 23.9165 41.0343 23.9027 40.5158Z" fill="#82929C" fill-opacity="0.24"/>
<path id="Vector_9" fill-rule="evenodd" clip-rule="evenodd" d="M29.864 43.9014C29.9969 42.4863 28.4575 36.4362 30.8034 36.9702C31.9239 37.43 31.1511 39.9404 31.4746 41.0668C31.5332 41.9663 31.5973 42.8675 31.6825 43.7646C31.7793 44.9869 29.9504 45.1394 29.864 43.9014Z" fill="#82929C" fill-opacity="0.24"/>
<path id="Vector_10" fill-rule="evenodd" clip-rule="evenodd" d="M37.9587 45.3803C37.7056 43.6547 38.049 41.9076 38.2583 40.1949C38.1671 39.424 38.8742 38.7333 39.5884 39.1066C40.7274 39.9926 39.6161 41.8478 39.748 43.1015C39.4631 44.0835 40.289 45.744 39.0328 46.1228C38.5602 46.2255 38.0416 45.8937 37.9587 45.3803Z" fill="#82929C" fill-opacity="0.24"/>
<path id="Vector_11" fill-rule="evenodd" clip-rule="evenodd" d="M46.3797 44.4649C46.277 42.7785 46.3908 41.0047 46.3429 39.3505C46.2141 39.0138 46.2995 38.6659 46.4663 38.3655C49.063 36.3571 47.9462 42.354 48.1599 43.6429C48.6217 45.1652 46.8274 46.1817 46.3797 44.4649Z" fill="#82929C" fill-opacity="0.24"/>
<path id="Vector_12" fill-rule="evenodd" clip-rule="evenodd" d="M52.6077 40.032C52.0859 38.935 52.5689 37.5394 52.329 36.3414C51.7625 35.6432 52.5077 34.531 53.3362 34.8514C54.7926 35.695 54.012 38.0177 54.2069 39.4644C54.2008 40.2923 53.0969 40.6714 52.6077 40.032Z" fill="#82929C" fill-opacity="0.24"/>
<path id="Vector_13" fill-rule="evenodd" clip-rule="evenodd" d="M63.7969 94.6678C61.1362 93.4723 59.5205 90.7764 57.4537 88.7778C55.138 90.7891 50.1657 91.3135 49.6513 87.2945C49.9455 83.1464 55.4898 84.2682 57.5532 86.3365C61.4659 83.5499 63.0893 78.5287 66.8292 75.6076C67.7566 74.9377 70.6255 73.6154 70.3648 75.8227C70.0035 76.7784 68.7743 76.4595 68.0862 77.0311C64.3791 79.8664 62.7874 84.8628 58.9348 87.6228C61.283 89.8241 63.9857 94.8166 67.6651 92.7756C68.076 92.4856 68.6561 92.6132 68.9284 93.0433C69.6194 95.5219 65.1683 95.4514 63.7969 94.6678ZM52.5335 88.3623C53.7338 88.6277 54.9833 88.1792 55.9891 87.4997C54.8 85.9031 49.1296 86.082 52.5335 88.3623Z" fill="#82929C" fill-opacity="0.24"/>
<path id="Vector_14" fill-rule="evenodd" clip-rule="evenodd" d="M64.9099 85.338C62.6175 82.863 59.676 81.2182 56.5685 80.1477C56.0977 79.9813 55.8389 79.4304 55.9988 78.9395C56.7138 77.1664 60.6031 80.0319 61.8252 80.4662C62.8688 81.2005 67.3183 83.7868 66.1964 85.2598C65.8771 85.6358 65.261 85.6993 64.9099 85.338Z" fill="#82929C" fill-opacity="0.24"/>
<path id="Vector_15" fill-rule="evenodd" clip-rule="evenodd" d="M47.9814 103.084C48.0188 101.608 46.2187 95.4237 48.6957 95.8651C49.7967 96.2951 49.0506 98.8312 49.4317 99.9543C49.5449 100.952 49.6241 101.817 49.7686 102.705C50.0078 103.909 48.2061 104.297 47.9814 103.084Z" fill="#82929C" fill-opacity="0.24"/>
<path id="Vector_16" fill-rule="evenodd" clip-rule="evenodd" d="M54.0954 106.047C54.0592 104.603 52.7277 99.5245 55.2424 100.089C55.7456 100.35 55.8704 101.007 55.6058 101.499C55.5457 102.752 55.688 104.011 55.8135 105.255C56.3963 106.578 54.4961 107.524 54.0954 106.047Z" fill="#82929C" fill-opacity="0.24"/>
<path id="Vector_17" fill-rule="evenodd" clip-rule="evenodd" d="M62.2836 107.892C61.8933 106.111 61.6132 104.282 61.5768 102.453C61.4791 101.734 62.0782 100.998 62.7985 101.26C63.912 101.838 63.2021 103.532 63.5644 104.583C63.6968 105.565 63.8383 106.55 64.0689 107.512C64.3188 108.71 62.5242 109.109 62.2836 107.892Z" fill="#82929C" fill-opacity="0.24"/>
<path id="Vector_18" fill-rule="evenodd" clip-rule="evenodd" d="M70.27 107.327C69.7234 105.399 69.45 103.39 68.7935 101.496C68.1852 100.837 68.2155 99.555 69.3219 99.5661C71.2588 100.174 71.2525 104.89 71.9933 106.71C72.3917 107.872 70.6278 108.502 70.27 107.327Z" fill="#82929C" fill-opacity="0.24"/>
<path id="Vector_19" fill-rule="evenodd" clip-rule="evenodd" d="M75.1874 102.815C74.8663 101.03 74.6867 99.2148 74.2862 97.4456C74.0197 96.8798 74.2618 96.1025 74.9019 95.9881C76.7858 95.7846 76.4356 101.009 76.9734 102.436C77.2126 103.64 75.411 104.029 75.1874 102.815Z" fill="#82929C" fill-opacity="0.24"/>
<path id="Vector_20" fill-rule="evenodd" clip-rule="evenodd" d="M80.3893 70.4158C79.128 69.853 80.2099 68.4168 80.4707 67.5109C81.1916 65.699 81.5728 63.7468 81.8216 61.8129C82.9103 52.3751 79.6164 42.6127 74.3862 35.0159C74.3176 36.4433 75.5375 41.2629 73.8055 41.5581C73.3276 41.5936 72.8437 41.1942 72.8308 40.676C72.8482 38.4805 72.8066 36.2682 72.2636 34.1363C70.6431 30.2885 74.4543 30.5767 76.7676 31.6671C77.938 32.4647 85.1483 35.4283 83.8834 36.9892C83.6038 37.42 83.0295 37.5304 82.6176 37.2412C80.2178 35.6864 77.9028 34.1707 75.2792 33.1364C81.7952 42.0561 85.5539 54.06 83.0827 65.2104C82.6224 66.412 81.9551 70.8969 80.3893 70.4158Z" fill="#82929C" fill-opacity="0.24"/>
<path id="Vector_21" fill-rule="evenodd" clip-rule="evenodd" d="M20.9697 84.1251C21.0476 83.6135 21.543 83.2668 22.0237 83.354C24.1013 83.5944 26.1879 83.7844 28.2761 83.8895C16.6507 75.8848 10.2543 58.4989 16.8494 45.0693C17.1276 44.3342 17.9911 43.6866 18.6313 44.3957C19.3955 45.315 17.5794 47.2307 17.4239 48.4069C15.3918 53.6594 15.9856 59.4992 17.0117 64.9286C19.1339 71.1217 22.6362 77.1431 27.7089 81.1475C27.155 79.5765 26.0229 78.1117 26.0181 76.3884C26.1162 75.6852 26.9855 75.3621 27.4966 75.8218C28.2392 76.8085 28.3642 78.2236 28.9393 79.3367C29.5604 80.496 30.2667 81.6029 31.0435 82.6531C31.5835 83.4974 33.2272 84.3841 32.2521 85.5028C30.0057 86.3898 27.2759 85.5628 24.8873 85.55C23.734 85.1833 20.9323 85.9575 20.9697 84.1251Z" fill="#82929C" fill-opacity="0.24"/>
</g>
</svg>
