<svg width="116" height="130" viewBox="0 0 116 130" fill="none" xmlns="http://www.w3.org/2000/svg">
<g id="Group">
<path id="Vector" fill-rule="evenodd" clip-rule="evenodd" d="M43.5646 67.3221C36.233 65.1744 19.063 57.2325 18.2924 48.471C17.8729 46.1162 20.4014 39.0963 22.8399 38.9899C25.8345 40.2417 15.1104 46.0798 23.0982 53.849C30.9666 60.9636 40.7779 64.9131 50.7524 67.5295C61.5683 70.5702 72.6507 73.6812 83.949 72.7755C89.9264 72.3907 101.941 71.0104 100.673 62.4118C100.515 61.5655 99.3513 60.5846 100.299 59.8323C101.862 59.002 102.375 61.7557 102.655 62.8764C102.832 74.7823 85.7886 74.8104 77.61 74.7862C65.9681 74.3002 54.6952 70.6475 43.5646 67.3221Z" fill="#82929C" fill-opacity="0.24"/>
<path id="Vector_2" fill-rule="evenodd" clip-rule="evenodd" d="M51.6588 76.515C44.1005 74.3695 36.68 71.7263 29.8348 67.6926C24.4088 64.2882 17.189 60.974 15.5871 53.9556C14.5038 48.4954 17.145 42.5288 21.5299 39.4864C22.9754 38.737 23.8556 41.1364 22.1609 41.2899C14.6371 47.9101 15.8174 56.9757 24.2691 61.9765C32.7452 68.0257 42.3665 71.9855 52.2489 74.7114C59.123 76.9539 66.2371 77.9489 73.3837 78.5853C81.2115 79.4881 89.8908 79.6243 96.8338 75.2238C100.197 72.8738 104.636 67.7843 101.779 63.4927C100.465 62.6536 101.284 60.6017 102.637 61.6535C104.065 63.0236 104.715 65.0932 104.479 67.0912C103.389 74.2424 96.4283 78.7239 90.0738 80.0065C85.4456 81.0504 80.6692 81.2844 75.9639 80.7475C67.7819 80.0269 59.5038 79.1106 51.6588 76.515Z" fill="#82929C" fill-opacity="0.24"/>
<path id="Vector_3" fill-rule="evenodd" clip-rule="evenodd" d="M24.0343 55.8652C25.9634 40.5625 37.5612 26.3188 52.4366 23.5472C62.1374 21.901 72.8734 23.382 80.9619 29.518C89.7188 36.2435 94.0819 46.6512 94.8035 57.7871C95.3166 59.8506 95.4298 73.0614 92.7637 72.49C92.2932 72.3476 91.996 71.8059 92.1421 71.3108C92.729 69.3064 93.0789 67.2374 93.2674 65.1541C93.5675 51.9902 90.401 39.1171 79.8148 30.999C72.6819 25.5769 63.3499 24.2043 54.7765 25.0882C45.8888 26.1539 37.775 31.6138 32.4824 39.0559C30.5278 41.9967 28.8645 45.1548 27.7236 48.5376C27.1013 50.3783 26.5934 52.2557 26.0974 54.1367C25.9227 55.228 25.2768 57.3916 24.0343 55.8652Z" fill="#82929C" fill-opacity="0.24"/>
<path id="Vector_4" fill-rule="evenodd" clip-rule="evenodd" d="M49.8008 92.6816C37.8431 88.5166 28.9406 77.8649 24.3877 65.83C23.9318 64.9518 23.6857 63.1971 25.0882 63.2894C25.5993 63.3785 25.9628 63.8966 25.8454 64.4357C26.8334 67.557 28.4654 70.6222 30.1169 73.3186C36.2432 84.4149 47.5074 91.9438 59.6997 93.0462C70.5101 93.9094 80.573 87.9129 87.6351 79.7413C88.2274 79.1418 88.8357 77.8153 89.7916 78.5533C90.1696 78.8748 90.2477 79.4991 89.9252 79.894C88.789 81.3033 87.5319 82.599 86.2348 83.8451C76.9534 93.8093 62.3329 97.9478 49.8008 92.6816Z" fill="#82929C" fill-opacity="0.24"/>
<path id="Vector_5" fill-rule="evenodd" clip-rule="evenodd" d="M66.487 24.6977C64.6149 23.9813 69.0318 18.7915 69.465 17.3349C69.7861 16.542 70.7655 15.9472 71.4218 16.7059C72.0644 17.6832 71.6689 19.0398 71.682 20.1577C71.4244 21.6632 71.728 23.4405 71.0718 24.7994C68.5786 26.0958 69.9202 21.69 69.8381 20.4326C69.0159 21.3591 67.7783 25.3716 66.487 24.6977Z" fill="#82929C" fill-opacity="0.24"/>
<path id="Vector_6" fill-rule="evenodd" clip-rule="evenodd" d="M46.8199 99.7875C47.2336 97.7504 47.7881 95.7445 48.2103 93.709C48.1783 91.9868 50.001 91.2921 50.1809 93.1601C49.5272 95.6212 49.3158 98.4346 48.2588 100.695C47.6546 101.197 46.666 100.591 46.8199 99.7875Z" fill="#82929C" fill-opacity="0.24"/>
<path id="Vector_7" fill-rule="evenodd" clip-rule="evenodd" d="M49.9994 100.926C50.5787 98.7698 51.257 96.6368 51.7231 94.4501C51.0854 93.1098 53.3866 92.1113 53.6149 93.7431C53.4165 96.3835 52.3661 98.8963 51.7499 101.456C51.4319 102.64 49.6599 102.109 49.9994 100.926Z" fill="#82929C" fill-opacity="0.24"/>
<path id="Vector_8" fill-rule="evenodd" clip-rule="evenodd" d="M48.7727 102.416C45.1897 101.127 47.3929 97.9255 48.5822 100.119C49.189 100.596 50.4011 100.876 49.9752 101.932C49.7738 102.411 49.2199 102.621 48.7727 102.416Z" fill="#82929C" fill-opacity="0.24"/>
<path id="Vector_9" fill-rule="evenodd" clip-rule="evenodd" d="M31.9506 106.322C31.0492 104.92 33.3241 103.797 34.1173 102.925C37.7652 100.141 42.2234 98.4026 46.6875 97.7786C47.4531 97.6427 48.5547 98.0667 48.2945 99.0602C48.1426 99.616 47.5453 99.8849 47.0424 99.6724C46.0346 99.7047 45.043 99.9408 44.0725 100.212C40.7157 101.261 37.4341 102.51 34.7084 104.858C33.859 105.408 33.0728 107.34 31.9506 106.322Z" fill="#82929C" fill-opacity="0.24"/>
<path id="Vector_10" fill-rule="evenodd" clip-rule="evenodd" d="M61.6157 115.507C60.547 110.102 57.5359 104.67 52.9382 101.812C52.345 101.437 51.3311 101.294 51.3433 100.387C51.3456 99.8533 51.7964 99.4338 52.2926 99.4434C58.3218 101.932 62.1738 108.863 63.4255 115.283C63.5689 116.499 61.7492 116.74 61.6157 115.507Z" fill="#82929C" fill-opacity="0.24"/>
<path id="Vector_11" fill-rule="evenodd" clip-rule="evenodd" d="M41.4452 115.053C38.6582 113.987 36.0299 112.426 33.8777 110.276C33.1287 109.248 30.3264 107.136 31.7658 105.898C33.1711 105.229 33.4773 107.399 34.3859 108.089C37.0411 111.209 40.7788 112.921 44.5151 114.166C49.4199 115.753 54.6015 117.547 59.726 116.009C60.9875 116.068 63.1681 114.167 63.9313 115.583C64.3597 117.132 62.15 117.222 61.1969 117.61C54.5465 119.814 47.7508 117.382 41.4452 115.053Z" fill="#82929C" fill-opacity="0.24"/>
<path id="Vector_12" fill-rule="evenodd" clip-rule="evenodd" d="M36.03 64.032C36.1182 46.6918 47.5347 27.8772 64.244 23.8346C65.0534 23.6953 65.8709 23.4691 66.6935 23.5483C67.855 23.6947 67.6668 25.5865 66.4868 25.4419C65.7014 25.4301 64.8413 25.6623 64.1757 25.793C51.1635 29.1658 42.2793 41.8132 38.9105 54.8418C38.2065 57.8373 37.7655 60.9187 37.8516 63.9992C37.8924 65.215 36.0455 65.2818 36.03 64.032Z" fill="#82929C" fill-opacity="0.24"/>
<path id="Vector_13" fill-rule="evenodd" clip-rule="evenodd" d="M47.0059 91.1447C40.3498 87.2015 37.61 79.5306 35.8816 72.1668C34.9896 71.5148 35.8378 70.0486 36.8227 70.484C37.88 71.1288 37.8336 72.7315 38.2507 73.8217C38.8825 76.2876 39.5406 78.7698 40.6677 81.0472C41.7748 83.3248 43.065 85.535 44.9623 87.1887C45.9629 88.0672 47.0362 88.8521 48.1101 89.6278C49.0596 90.3492 47.938 91.9108 47.0059 91.1447Z" fill="#82929C" fill-opacity="0.24"/>
<path id="Vector_14" fill-rule="evenodd" clip-rule="evenodd" d="M48.877 67.2357C51.3424 51.913 56.3647 35.4954 67.6771 24.807C67.5715 24.8791 67.477 24.9578 67.4079 25.067C67.9905 24.1825 69.4056 24.9667 68.9884 25.9804C67.9254 27.1797 66.5383 28.2758 65.5931 29.5493C62.3935 33.4792 59.8837 37.9646 57.7626 42.6103C55.5497 47.426 53.9103 52.512 52.6113 57.674C51.8563 60.904 51.0407 64.1405 50.6894 67.452C50.5725 68.6617 48.7358 68.4755 48.877 67.2357Z" fill="#82929C" fill-opacity="0.24"/>
<path id="Vector_15" fill-rule="evenodd" clip-rule="evenodd" d="M49.9781 91.6607C48.8673 89.8817 45.7126 73.6392 49.1673 74.4274C49.7072 74.6533 49.8558 75.3 49.6273 75.8232C49.3648 78.6629 49.5488 81.5408 50.0309 84.3456C50.3954 86.5755 50.7237 88.8496 51.6556 90.9149C52.1292 92.0347 50.4408 92.8022 49.9781 91.6607Z" fill="#82929C" fill-opacity="0.24"/>
<path id="Vector_16" fill-rule="evenodd" clip-rule="evenodd" d="M65.065 72.0143C63.6221 71.2872 65.641 68.4991 65.7566 67.2473C66.6026 64.4655 67.3539 61.4791 67.874 58.6549C69.5234 48.3614 70.6188 37.436 68.2877 27.1924C67.4913 25.5835 69.6149 24.3813 69.9496 26.2941C72.752 38.7956 71.3026 52.0927 68.444 64.4512C67.8806 65.7663 66.7191 72.9281 65.065 72.0143Z" fill="#82929C" fill-opacity="0.24"/>
<path id="Vector_17" fill-rule="evenodd" clip-rule="evenodd" d="M54.521 92.3921C53.7631 91.2123 55.4032 90.6738 56.0322 89.999C57.3227 88.7373 58.2005 87.0885 58.9851 85.453C59.8333 83.6088 60.5238 81.6909 61.2686 79.7998C61.5711 78.6317 62.5453 76.7933 63.5201 78.5635C62.4781 82.452 60.7881 86.4223 58.634 89.7921C57.8121 90.7604 55.8208 93.6287 54.521 92.3921Z" fill="#82929C" fill-opacity="0.24"/>
<path id="Vector_18" fill-rule="evenodd" clip-rule="evenodd" d="M78.964 73.5896C78.0018 73.1516 78.5592 72.0845 78.7919 71.3377C79.3715 69.4352 79.7739 67.4748 80.1316 65.5145C82.724 51.5566 80.322 38.6952 70.7894 28.186C70.1792 27.3903 68.5805 27.172 68.7809 25.9303C69.2758 24.4705 70.6279 25.6407 71.3705 26.2173C81.4212 36.319 84.5442 50.0794 82.1851 64.1766C81.7836 65.7416 80.9357 74.4964 78.964 73.5896Z" fill="#82929C" fill-opacity="0.24"/>
<path id="Vector_19" fill-rule="evenodd" clip-rule="evenodd" d="M56.2231 92.9925C56.263 91.7012 57.715 92.0896 58.5468 91.9665C65.557 90.4919 71.6224 85.9196 75.86 79.9926C76.5629 79.1122 78.0225 79.9984 77.4581 81.0581C73.7735 85.8262 69.3981 90.1145 63.7523 92.233C62.2567 92.8111 56.7909 95.3943 56.2231 92.9925Z" fill="#82929C" fill-opacity="0.24"/>
<path id="Vector_20" fill-rule="evenodd" clip-rule="evenodd" d="M52.6747 44.3884C47.2864 42.0885 41.67 39.9434 37.1589 35.9789C36.4444 35.2182 34.5593 34.1387 35.6651 32.9867C36.6448 32.2681 37.2688 33.6833 37.9643 34.1925C39.4119 35.4707 40.9513 36.6371 42.6037 37.6108C49.8713 41.7807 57.8676 44.2254 65.9509 45.9426C72.2264 47.1784 78.6055 48.1769 85.0044 47.7479C87.0897 47.5471 89.176 47.1915 91.1625 46.484C92.2737 46.129 92.8068 47.9872 91.6578 48.3173C78.921 52.0295 65.089 47.8284 52.6747 44.3884Z" fill="#82929C" fill-opacity="0.24"/>
<path id="Vector_21" fill-rule="evenodd" clip-rule="evenodd" d="M52.013 62.5827C48.2043 61.1564 44.6159 59.143 40.9763 57.3181C35.9197 55.0468 31.1666 52.1291 26.9146 48.4731C26.0941 47.6168 27.3577 46.2366 28.1993 47.1211C32.2531 50.5393 36.7111 53.3217 41.496 55.4703C46.9872 58.3624 52.543 61.1544 58.5442 62.6903C67.5739 64.9563 76.9626 66.3544 86.1787 64.7322C88.142 64.2883 90.0281 63.5588 91.8694 62.7282C92.7839 62.4719 94.093 61.1972 94.7438 62.4758C95.2984 64.1448 91.5995 64.6308 90.5896 65.3288C78.8831 69.586 63.5431 66.5297 52.013 62.5827Z" fill="#82929C" fill-opacity="0.24"/>
<path id="Vector_22" fill-rule="evenodd" clip-rule="evenodd" d="M49.2933 86.3158C44.5905 84.7699 39.8975 83.0271 35.5699 80.5828C34.585 79.7341 31.0398 79.4348 31.3889 77.9331C31.9304 75.7223 38.0274 80.0054 39.3522 80.4073C50.249 85.1881 64.6636 90.1475 76.5255 89.174C77.6808 88.9759 77.966 90.8841 76.7923 91.0588C67.487 91.9565 58.1016 89.2269 49.2933 86.3158Z" fill="#82929C" fill-opacity="0.24"/>
<path id="Vector_23" fill-rule="evenodd" clip-rule="evenodd" d="M84.5774 25.5589C82.5318 24.1455 86.8401 21.8222 87.7245 20.8187C88.6496 20.0565 89.7798 21.5749 88.8412 22.3246C88.0696 22.9532 87.2968 23.5824 86.5584 24.2532C85.8908 24.6893 85.5194 25.9334 84.5774 25.5589Z" fill="#82929C" fill-opacity="0.24"/>
<path id="Vector_24" fill-rule="evenodd" clip-rule="evenodd" d="M62.8988 16.4996C62.0446 16.2255 60.2861 10.5204 61.7831 10.4841C63.535 10.2751 63.042 13.3105 63.6956 14.4494C63.8952 15.0126 64.5396 15.4835 64.1432 16.1453C63.9045 16.6009 63.3228 16.7487 62.8988 16.4996Z" fill="#82929C" fill-opacity="0.24"/>
<path id="Vector_25" fill-rule="evenodd" clip-rule="evenodd" d="M48.6912 17.8305C47.3494 16.7957 46.4794 15.2228 45.4505 13.8745C44.724 12.9051 46.1765 11.7237 46.8902 12.707C47.6152 13.7248 48.3341 14.7502 49.1328 15.7071C49.5937 16.1933 50.3729 16.6883 49.9346 17.4759C49.6974 17.9299 49.1134 18.0822 48.6912 17.8305Z" fill="#82929C" fill-opacity="0.24"/>
<path id="Vector_26" fill-rule="evenodd" clip-rule="evenodd" d="M91.5292 31.0282C91.9136 30.0931 95.5659 27.8117 96.0773 29.3709C96.4491 30.945 94.166 30.9288 93.3333 31.7241C92.71 32.5974 91.2613 32.2402 91.5292 31.0282Z" fill="#82929C" fill-opacity="0.24"/>
</g>
</svg>
