<svg width="591" height="76" viewBox="0 0 591 76" fill="none" xmlns="http://www.w3.org/2000/svg">
<g clip-path="url(#clip0_445_41068)">
<path d="M9.80706 5.81818V16H8.61388L3.06559 8.00568H2.96615V16H1.7332V5.81818H2.92638L8.49456 13.8324H8.59399V5.81818H9.80706ZM14.2223 16.179C13.7384 16.179 13.2992 16.0878 12.9048 15.9055C12.5104 15.7199 12.1972 15.4531 11.9652 15.1051C11.7332 14.7538 11.6172 14.3295 11.6172 13.8324C11.6172 13.3949 11.7033 13.0402 11.8757 12.7685C12.048 12.4934 12.2784 12.2779 12.5667 12.1222C12.8551 11.9664 13.1733 11.8504 13.5213 11.7741C13.8726 11.6946 14.2256 11.6316 14.5802 11.5852C15.0443 11.5256 15.4204 11.4808 15.7088 11.451C16.0005 11.4179 16.2126 11.3632 16.3452 11.2869C16.481 11.2107 16.549 11.0781 16.549 10.8892V10.8494C16.549 10.3589 16.4148 9.97775 16.1463 9.70597C15.8811 9.43419 15.4784 9.2983 14.9382 9.2983C14.3781 9.2983 13.9389 9.42093 13.6207 9.66619C13.3025 9.91146 13.0788 10.1733 12.9496 10.4517L11.8359 10.054C12.0348 9.58996 12.2999 9.22869 12.6314 8.97017C12.9661 8.70833 13.3307 8.52604 13.7251 8.4233C14.1229 8.31723 14.5139 8.2642 14.8984 8.2642C15.1437 8.2642 15.4254 8.29403 15.7436 8.35369C16.0651 8.41004 16.375 8.5277 16.6733 8.70668C16.9749 8.88565 17.2251 9.15578 17.424 9.51705C17.6229 9.87831 17.7223 10.3622 17.7223 10.9688V16H16.549V14.9659H16.4893C16.4098 15.1316 16.2772 15.3089 16.0916 15.4979C15.906 15.6868 15.6591 15.8475 15.3508 15.9801C15.0426 16.1127 14.6664 16.179 14.2223 16.179ZM14.4013 15.125C14.8653 15.125 15.2564 15.0339 15.5746 14.8516C15.8961 14.6693 16.138 14.4339 16.3004 14.1456C16.4661 13.8572 16.549 13.554 16.549 13.2358V12.1619C16.4993 12.2216 16.3899 12.2763 16.2209 12.326C16.0551 12.3724 15.8629 12.4138 15.6442 12.4503C15.4287 12.4834 15.2183 12.5133 15.0128 12.5398C14.8106 12.563 14.6465 12.5829 14.5206 12.5994C14.2157 12.6392 13.9306 12.7038 13.6655 12.7933C13.4036 12.8795 13.1915 13.0104 13.0291 13.1861C12.87 13.3584 12.7905 13.5937 12.7905 13.892C12.7905 14.2997 12.9413 14.608 13.2429 14.8168C13.5478 15.0223 13.9339 15.125 14.4013 15.125ZM19.7238 16V8.36364H20.8573V9.55682H20.9567C21.1158 9.14915 21.3727 8.83262 21.7273 8.60724C22.082 8.37855 22.5079 8.2642 23.005 8.2642C23.5088 8.2642 23.9281 8.37855 24.2629 8.60724C24.6009 8.83262 24.8644 9.14915 25.0533 9.55682H25.1329C25.3284 9.16241 25.6218 8.84919 26.0129 8.61719C26.404 8.38187 26.8729 8.2642 27.4198 8.2642C28.1026 8.2642 28.6611 8.47798 29.0952 8.90554C29.5294 9.32978 29.7465 9.991 29.7465 10.8892V16H28.5732V10.8892C28.5732 10.3258 28.4191 9.92306 28.1109 9.68111C27.8026 9.43916 27.4397 9.31818 27.0221 9.31818C26.4852 9.31818 26.0692 9.48059 25.7742 9.8054C25.4792 10.1269 25.3317 10.5346 25.3317 11.0284V16H24.1386V10.7699C24.1386 10.3357 23.9977 9.98603 23.716 9.72088C23.4343 9.45241 23.0713 9.31818 22.6272 9.31818C22.3223 9.31818 22.0372 9.39938 21.7721 9.56179C21.5103 9.72419 21.2981 9.94957 21.1357 10.2379C20.9766 10.523 20.8971 10.8527 20.8971 11.2273V16H19.7238ZM34.9535 16.1591C34.2177 16.1591 33.583 15.9967 33.0493 15.6719C32.519 15.3438 32.1097 14.8864 31.8214 14.2997C31.5363 13.7098 31.3938 13.0237 31.3938 12.2415C31.3938 11.4593 31.5363 10.7699 31.8214 10.1733C32.1097 9.57339 32.5108 9.10606 33.0245 8.77131C33.5415 8.43324 34.1448 8.2642 34.8342 8.2642C35.2319 8.2642 35.6246 8.33049 36.0124 8.46307C36.4002 8.59564 36.7532 8.81108 37.0714 9.10938C37.3895 9.40436 37.6431 9.79545 37.832 10.2827C38.0209 10.7699 38.1154 11.3698 38.1154 12.0824V12.5795H32.229V11.5653H36.9222C36.9222 11.1345 36.836 10.75 36.6637 10.4119C36.4947 10.0739 36.2527 9.80705 35.9378 9.61151C35.6263 9.41596 35.2584 9.31818 34.8342 9.31818C34.3668 9.31818 33.9625 9.43419 33.6211 9.66619C33.283 9.89489 33.0228 10.1932 32.8405 10.5611C32.6583 10.929 32.5671 11.3234 32.5671 11.7443V12.4205C32.5671 12.9972 32.6665 13.486 32.8654 13.8871C33.0676 14.2848 33.3476 14.5881 33.7056 14.7969C34.0636 15.0024 34.4795 15.1051 34.9535 15.1051C35.2617 15.1051 35.5401 15.062 35.7887 14.9759C36.0406 14.8864 36.2577 14.7538 36.44 14.5781C36.6223 14.3991 36.7631 14.1771 36.8626 13.9119L37.9961 14.2301C37.8768 14.6146 37.6762 14.9527 37.3945 15.2443C37.1128 15.5327 36.7648 15.758 36.3505 15.9205C35.9362 16.0795 35.4705 16.1591 34.9535 16.1591Z" fill="#001744"/>
<rect x="1.00024" y="28.5" width="588.999" height="47" rx="7.5" fill="white"/>
<rect x="1.00024" y="28.5" width="588.999" height="47" rx="7.5" stroke="#E9EAF0"/>
<path d="M29.1366 47.3636V59H27.773L21.4321 49.8636H21.3184V59H19.9093V47.3636H21.273L27.6366 56.5227H27.7502V47.3636H29.1366ZM34.3426 59.2045C33.7895 59.2045 33.2876 59.1004 32.8369 58.892C32.3861 58.6799 32.0282 58.375 31.763 57.9773C31.4979 57.5758 31.3653 57.0909 31.3653 56.5227C31.3653 56.0227 31.4638 55.6174 31.6608 55.3068C31.8577 54.9924 32.121 54.7462 32.4505 54.5682C32.7801 54.3902 33.1437 54.2576 33.5414 54.1705C33.943 54.0795 34.3464 54.0076 34.7517 53.9545C35.282 53.8864 35.7119 53.8352 36.0414 53.8011C36.3748 53.7633 36.6172 53.7008 36.7687 53.6136C36.924 53.5265 37.0017 53.375 37.0017 53.1591V53.1136C37.0017 52.553 36.8483 52.1174 36.5414 51.8068C36.2384 51.4962 35.7782 51.3409 35.1608 51.3409C34.5206 51.3409 34.0187 51.4811 33.6551 51.7614C33.2914 52.0417 33.0358 52.3409 32.888 52.6591L31.6153 52.2045C31.8426 51.6742 32.1456 51.2614 32.5244 50.9659C32.907 50.6667 33.3236 50.4583 33.7744 50.3409C34.2289 50.2197 34.6759 50.1591 35.1153 50.1591C35.3956 50.1591 35.7176 50.1932 36.0812 50.2614C36.4486 50.3258 36.8028 50.4602 37.1437 50.6648C37.4884 50.8693 37.7744 51.178 38.0017 51.5909C38.2289 52.0038 38.3426 52.5568 38.3426 53.25V59H37.0017V57.8182H36.9335C36.8426 58.0076 36.6911 58.2102 36.4789 58.4261C36.2668 58.642 35.9846 58.8258 35.6323 58.9773C35.2801 59.1288 34.8501 59.2045 34.3426 59.2045ZM34.5471 58C35.0774 58 35.5244 57.8958 35.888 57.6875C36.2555 57.4792 36.532 57.2102 36.7176 56.8807C36.907 56.5511 37.0017 56.2045 37.0017 55.8409V54.6136C36.9448 54.6818 36.8198 54.7443 36.6267 54.8011C36.4373 54.8542 36.2176 54.9015 35.9676 54.9432C35.7214 54.9811 35.4808 55.0152 35.246 55.0455C35.0149 55.072 34.8274 55.0947 34.6835 55.1136C34.335 55.1591 34.0092 55.233 33.7062 55.3352C33.407 55.4337 33.1645 55.5833 32.9789 55.7841C32.7971 55.9811 32.7062 56.25 32.7062 56.5909C32.7062 57.0568 32.8786 57.4091 33.2233 57.6477C33.5717 57.8826 34.013 58 34.5471 58ZM40.79 59V50.2727H42.0855V51.6364H42.1991C42.3809 51.1705 42.6745 50.8087 43.0798 50.5511C43.4851 50.2898 43.9718 50.1591 44.54 50.1591C45.1158 50.1591 45.5949 50.2898 45.9775 50.5511C46.3639 50.8087 46.665 51.1705 46.8809 51.6364H46.9718C47.1953 51.1856 47.5305 50.8277 47.9775 50.5625C48.4245 50.2936 48.9605 50.1591 49.5855 50.1591C50.3658 50.1591 51.004 50.4034 51.5002 50.892C51.9965 51.3769 52.2446 52.1326 52.2446 53.1591V59H50.9037V53.1591C50.9037 52.5152 50.7275 52.0549 50.3752 51.7784C50.023 51.5019 49.6082 51.3636 49.1309 51.3636C48.5173 51.3636 48.0419 51.5492 47.7048 51.9205C47.3677 52.2879 47.1991 52.7538 47.1991 53.3182V59H45.8355V53.0227C45.8355 52.5265 45.6745 52.1269 45.3525 51.8239C45.0305 51.517 44.6158 51.3636 44.1082 51.3636C43.7597 51.3636 43.434 51.4564 43.1309 51.642C42.8317 51.8277 42.5893 52.0852 42.4037 52.4148C42.2218 52.7405 42.1309 53.1174 42.1309 53.5455V59H40.79ZM58.3554 59.1818C57.5144 59.1818 56.7891 58.9962 56.1792 58.625C55.5732 58.25 55.1054 57.7273 54.7758 57.0568C54.4501 56.3826 54.2872 55.5985 54.2872 54.7045C54.2872 53.8106 54.4501 53.0227 54.7758 52.3409C55.1054 51.6553 55.5637 51.1212 56.1508 50.7386C56.7417 50.3523 57.4311 50.1591 58.219 50.1591C58.6735 50.1591 59.1224 50.2348 59.5656 50.3864C60.0088 50.5379 60.4122 50.7841 60.7758 51.125C61.1394 51.4621 61.4292 51.9091 61.6451 52.4659C61.861 53.0227 61.969 53.7083 61.969 54.5227V55.0909H55.2417V53.9318H60.6054C60.6054 53.4394 60.5069 53 60.3099 52.6136C60.1167 52.2273 59.8402 51.9223 59.4804 51.6989C59.1243 51.4754 58.7038 51.3636 58.219 51.3636C57.6849 51.3636 57.2228 51.4962 56.8326 51.7614C56.4463 52.0227 56.1489 52.3636 55.9406 52.7841C55.7323 53.2045 55.6281 53.6553 55.6281 54.1364V54.9091C55.6281 55.5682 55.7417 56.1269 55.969 56.5852C56.2001 57.0398 56.5201 57.3864 56.9292 57.625C57.3383 57.8598 57.8137 57.9773 58.3554 57.9773C58.7076 57.9773 59.0258 57.928 59.3099 57.8295C59.5978 57.7273 59.8459 57.5758 60.0542 57.375C60.2626 57.1705 60.4235 56.9167 60.5372 56.6136L61.8326 56.9773C61.6963 57.4167 61.4671 57.803 61.1451 58.1364C60.8232 58.4659 60.4254 58.7235 59.9519 58.9091C59.4785 59.0909 58.9463 59.1818 58.3554 59.1818ZM72.0542 59.1818C71.2663 59.1818 70.5751 58.9943 69.9804 58.6193C69.3894 58.2443 68.9273 57.7197 68.594 57.0455C68.2644 56.3712 68.0997 55.5833 68.0997 54.6818C68.0997 53.7727 68.2644 52.9792 68.594 52.3011C68.9273 51.6231 69.3894 51.0966 69.9804 50.7216C70.5751 50.3466 71.2663 50.1591 72.0542 50.1591C72.8421 50.1591 73.5315 50.3466 74.1224 50.7216C74.7171 51.0966 75.1792 51.6231 75.5088 52.3011C75.8421 52.9792 76.0088 53.7727 76.0088 54.6818C76.0088 55.5833 75.8421 56.3712 75.5088 57.0455C75.1792 57.7197 74.7171 58.2443 74.1224 58.6193C73.5315 58.9943 72.8421 59.1818 72.0542 59.1818ZM72.0542 57.9773C72.6527 57.9773 73.1451 57.8239 73.5315 57.517C73.9179 57.2102 74.2038 56.8068 74.3894 56.3068C74.5751 55.8068 74.6679 55.2652 74.6679 54.6818C74.6679 54.0985 74.5751 53.5549 74.3894 53.0511C74.2038 52.5473 73.9179 52.1402 73.5315 51.8295C73.1451 51.5189 72.6527 51.3636 72.0542 51.3636C71.4557 51.3636 70.9633 51.5189 70.5769 51.8295C70.1906 52.1402 69.9046 52.5473 69.719 53.0511C69.5334 53.5549 69.4406 54.0985 69.4406 54.6818C69.4406 55.2652 69.5334 55.8068 69.719 56.3068C69.9046 56.8068 70.1906 57.2102 70.5769 57.517C70.9633 57.8239 71.4557 57.9773 72.0542 57.9773ZM79.3966 53.75V59H78.0556V50.2727H79.3511V51.6364H79.4647C79.6693 51.1932 79.9799 50.8371 80.3966 50.5682C80.8132 50.2955 81.3511 50.1591 82.0102 50.1591C82.6011 50.1591 83.1181 50.2803 83.5613 50.5227C84.0045 50.7614 84.3492 51.125 84.5954 51.6136C84.8416 52.0985 84.9647 52.7121 84.9647 53.4545V59H83.6238V53.5455C83.6238 52.8598 83.4458 52.3258 83.0897 51.9432C82.7337 51.5568 82.245 51.3636 81.6238 51.3636C81.1958 51.3636 80.8132 51.4564 80.4761 51.642C80.1428 51.8277 79.8795 52.0985 79.6863 52.4545C79.4931 52.8106 79.3966 53.2424 79.3966 53.75ZM95.4605 59.1818C94.6423 59.1818 93.9377 58.9886 93.3468 58.6023C92.7559 58.2159 92.3014 57.6837 91.9832 57.0057C91.665 56.3277 91.5059 55.553 91.5059 54.6818C91.5059 53.7955 91.6688 53.0133 91.9946 52.3352C92.3241 51.6534 92.7824 51.1212 93.3696 50.7386C93.9605 50.3523 94.6499 50.1591 95.4377 50.1591C96.0514 50.1591 96.6044 50.2727 97.0968 50.5C97.5893 50.7273 97.9927 51.0455 98.3071 51.4545C98.6215 51.8636 98.8165 52.3409 98.8923 52.8864H97.5514C97.4491 52.4886 97.2218 52.1364 96.8696 51.8295C96.5211 51.5189 96.0514 51.3636 95.4605 51.3636C94.9377 51.3636 94.4794 51.5 94.0855 51.7727C93.6953 52.0417 93.3904 52.4223 93.1707 52.9148C92.9548 53.4034 92.8468 53.9773 92.8468 54.6364C92.8468 55.3106 92.9529 55.8977 93.165 56.3977C93.3809 56.8977 93.684 57.286 94.0741 57.5625C94.468 57.839 94.9302 57.9773 95.4605 57.9773C95.809 57.9773 96.1252 57.9167 96.4093 57.7955C96.6934 57.6742 96.934 57.5 97.1309 57.2727C97.3279 57.0455 97.468 56.7727 97.5514 56.4545H98.8923C98.8165 56.9697 98.629 57.4337 98.3298 57.8466C98.0343 58.2557 97.6423 58.5814 97.1537 58.8239C96.6688 59.0625 96.1044 59.1818 95.4605 59.1818ZM103.421 59.2045C102.868 59.2045 102.366 59.1004 101.915 58.892C101.464 58.6799 101.106 58.375 100.841 57.9773C100.576 57.5758 100.443 57.0909 100.443 56.5227C100.443 56.0227 100.542 55.6174 100.739 55.3068C100.936 54.9924 101.199 54.7462 101.529 54.5682C101.858 54.3902 102.222 54.2576 102.62 54.1705C103.021 54.0795 103.424 54.0076 103.83 53.9545C104.36 53.8864 104.79 53.8352 105.12 53.8011C105.453 53.7633 105.695 53.7008 105.847 53.6136C106.002 53.5265 106.08 53.375 106.08 53.1591V53.1136C106.08 52.553 105.926 52.1174 105.62 51.8068C105.317 51.4962 104.856 51.3409 104.239 51.3409C103.599 51.3409 103.097 51.4811 102.733 51.7614C102.37 52.0417 102.114 52.3409 101.966 52.6591L100.693 52.2045C100.921 51.6742 101.224 51.2614 101.603 50.9659C101.985 50.6667 102.402 50.4583 102.853 50.3409C103.307 50.2197 103.754 50.1591 104.193 50.1591C104.474 50.1591 104.796 50.1932 105.159 50.2614C105.527 50.3258 105.881 50.4602 106.222 50.6648C106.567 50.8693 106.853 51.178 107.08 51.5909C107.307 52.0038 107.421 52.5568 107.421 53.25V59H106.08V57.8182H106.012C105.921 58.0076 105.769 58.2102 105.557 58.4261C105.345 58.642 105.063 58.8258 104.71 58.9773C104.358 59.1288 103.928 59.2045 103.421 59.2045ZM103.625 58C104.156 58 104.603 57.8958 104.966 57.6875C105.334 57.4792 105.61 57.2102 105.796 56.8807C105.985 56.5511 106.08 56.2045 106.08 55.8409V54.6136C106.023 54.6818 105.898 54.7443 105.705 54.8011C105.515 54.8542 105.296 54.9015 105.046 54.9432C104.799 54.9811 104.559 55.0152 104.324 55.0455C104.093 55.072 103.906 55.0947 103.762 55.1136C103.413 55.1591 103.087 55.233 102.784 55.3352C102.485 55.4337 102.243 55.5833 102.057 55.7841C101.875 55.9811 101.784 56.25 101.784 56.5909C101.784 57.0568 101.957 57.4091 102.301 57.6477C102.65 57.8826 103.091 58 103.625 58ZM109.868 59V50.2727H111.164V51.5909H111.255C111.414 51.1591 111.701 50.8087 112.118 50.5398C112.535 50.2708 113.005 50.1364 113.527 50.1364C113.626 50.1364 113.749 50.1383 113.897 50.142C114.044 50.1458 114.156 50.1515 114.232 50.1591V51.5227C114.186 51.5114 114.082 51.4943 113.919 51.4716C113.76 51.4451 113.592 51.4318 113.414 51.4318C112.989 51.4318 112.611 51.5208 112.277 51.6989C111.948 51.8731 111.686 52.1155 111.493 52.4261C111.304 52.733 111.209 53.0833 111.209 53.4773V59H109.868ZM118.851 59.1818C118.124 59.1818 117.482 58.9981 116.925 58.6307C116.368 58.2595 115.933 57.7367 115.618 57.0625C115.304 56.3845 115.147 55.5833 115.147 54.6591C115.147 53.7424 115.304 52.947 115.618 52.2727C115.933 51.5985 116.37 51.0777 116.931 50.7102C117.491 50.3428 118.139 50.1591 118.874 50.1591C119.442 50.1591 119.891 50.2538 120.22 50.4432C120.554 50.6288 120.808 50.8409 120.982 51.0795C121.16 51.3144 121.298 51.5076 121.397 51.6591H121.51V47.3636H122.851V59H121.556V57.6591H121.397C121.298 57.8182 121.158 58.0189 120.976 58.2614C120.794 58.5 120.535 58.714 120.198 58.9034C119.861 59.089 119.412 59.1818 118.851 59.1818ZM119.033 57.9773C119.571 57.9773 120.025 57.8371 120.397 57.5568C120.768 57.2727 121.05 56.8807 121.243 56.3807C121.436 55.8769 121.533 55.2955 121.533 54.6364C121.533 53.9848 121.438 53.4148 121.249 52.9261C121.059 52.4337 120.779 52.0511 120.408 51.7784C120.037 51.5019 119.578 51.3636 119.033 51.3636C118.465 51.3636 117.991 51.5095 117.612 51.8011C117.237 52.089 116.955 52.4811 116.766 52.9773C116.58 53.4697 116.487 54.0227 116.487 54.6364C116.487 55.2576 116.582 55.822 116.772 56.3295C116.965 56.8333 117.249 57.2348 117.624 57.5341C118.003 57.8295 118.472 57.9773 119.033 57.9773Z" fill="#8C94A3"/>
</g>
<defs>
<clipPath id="clip0_445_41068">
<rect width="589.999" height="76" fill="white" transform="translate(0.500244)"/>
</clipPath>
</defs>
</svg>
