<svg width="132" height="123" viewBox="0 0 132 123" fill="none" xmlns="http://www.w3.org/2000/svg">
<g id="Group">
<path id="Vector" fill-rule="evenodd" clip-rule="evenodd" d="M25.5256 65.2748C29.1371 47.2663 34.0371 29.5354 38.3575 11.6967C38.6018 11.0336 38.6791 10.1793 39.2865 9.76241C39.9117 9.36029 40.7928 9.95482 40.6591 10.7253C36.1408 26.2399 32.9963 42.2596 28.7981 57.9022C28.2857 60.4466 27.7767 62.9931 27.3294 65.5509C27.1682 66.7514 25.3396 66.5073 25.5256 65.2748Z" fill="#82929C" fill-opacity="0.24"/>
<path id="Vector_2" fill-rule="evenodd" clip-rule="evenodd" d="M39.0109 9.21261C39.063 8.78698 39.4206 8.44129 39.8222 8.40456C45.2779 8.05142 50.596 10.3821 55.8305 11.7412C65.1157 14.2823 74.49 16.462 83.7592 19.0826C85.259 19.8341 118.835 27.4957 110.486 29.1291C91.465 22.141 71.5113 18.3069 52.1239 12.6184C48.3423 11.5615 44.5309 10.3176 40.5918 10.1928C39.8784 10.46 38.8886 10.1865 39.0109 9.21261Z" fill="#82929C" fill-opacity="0.24"/>
<path id="Vector_3" fill-rule="evenodd" clip-rule="evenodd" d="M95.7492 86.6671C99.4453 75.5063 102.374 64.0851 105.331 52.6913C107.346 44.7425 109.965 36.8922 111.065 28.7456C111.455 27.4551 113.331 28.2343 112.759 29.4729C110.001 45.1524 104.999 60.3779 101.012 75.7648C99.9559 79.6147 98.7516 83.4135 97.4997 87.1968C97.1801 88.3618 95.4014 87.8621 95.7492 86.6671Z" fill="#82929C" fill-opacity="0.24"/>
<path id="Vector_4" fill-rule="evenodd" clip-rule="evenodd" d="M30.1183 68.9974C28.9589 68.5737 27.7425 68.3055 26.6077 67.8216C25.645 67.2451 26.4112 65.6218 27.4404 66.1164C31.1648 67.3475 34.8739 68.6552 38.61 69.8617C58.0232 75.2884 77.2883 81.3501 96.8584 86.131C97.6159 86.3196 97.7468 87.5189 97.0441 87.881C95.1007 88.0227 93.0596 87.0282 91.1059 86.7035C70.7325 81.0081 50.2334 75.6296 30.1183 68.9974Z" fill="#82929C" fill-opacity="0.24"/>
<path id="Vector_5" fill-rule="evenodd" clip-rule="evenodd" d="M1.80935 85.473C-0.186605 83.2762 19.9383 70.3875 22.435 68.8339C23.9088 68.2805 26.1719 65.8442 27.6398 66.5424C28.2353 67.0099 27.9757 68.113 27.2323 68.2222C20.9542 71.6964 15.0547 75.8421 9.28128 80.1478C8.04142 81.1187 6.84289 82.1489 5.65025 83.1831C4.47636 83.7971 3.18642 86.5132 1.80935 85.473Z" fill="#82929C" fill-opacity="0.24"/>
<path id="Vector_6" fill-rule="evenodd" clip-rule="evenodd" d="M106.521 113.529C103.344 104.908 99.6661 96.4252 95.7989 88.1363C94.8871 86.6278 97.1692 85.8848 97.5621 87.5518C100.633 94.0413 103.376 100.666 106.128 107.302C106.401 108.746 109.318 113.354 107.702 114.066C107.251 114.254 106.691 114.017 106.521 113.529Z" fill="#82929C" fill-opacity="0.24"/>
<path id="Vector_7" fill-rule="evenodd" clip-rule="evenodd" d="M62.7723 105.021C43.2193 97.6568 23.2023 91.6778 3.13406 86.1028C1.44981 86.8695 1.30242 83.8089 3.14569 84.1835C9.27802 85.5696 15.2341 87.8008 21.3595 89.2837C41.8581 94.9733 61.5577 103.343 82.0482 108.997C89.9719 110.668 97.9233 113.804 106.057 113.614C106.578 113.323 107.262 113.082 107.658 113.719C110.184 120.473 66.2966 106.442 62.7723 105.021Z" fill="#82929C" fill-opacity="0.24"/>
<path id="Vector_8" fill-rule="evenodd" clip-rule="evenodd" d="M63.6915 109C48.6584 104.558 34.1762 98.3467 19.1587 93.8451C14.4727 91.8036 4.09026 90.9949 1.22628 87.2862C0.474954 85.9283 2.75772 84.9315 2.97345 86.5656C6.0664 88.7497 10.0705 89.1181 13.6044 90.1989C18.9419 91.7078 24.2232 93.4194 29.4767 95.2173C42.3106 99.512 54.8751 104.651 67.9079 108.296C75.803 110.397 83.5259 113.322 91.502 114.955C96.0027 115.649 100.872 118.094 105.34 116.3C106.134 115.924 106.065 114.363 107.202 114.738C108.961 115.829 106.54 118.143 105.238 118.415C101.136 119.645 96.9072 117.982 92.861 117.208C82.9734 115.152 73.417 111.735 63.6915 109Z" fill="#82929C" fill-opacity="0.24"/>
<path id="Vector_9" fill-rule="evenodd" clip-rule="evenodd" d="M31.4057 62.2809C34.1725 50.7681 36.4555 39.1755 39.3956 27.713C40.2636 24.129 41.2815 20.5862 42.0715 16.9816C42.2126 16.1665 42.337 14.8289 43.4431 15.1178C45.3581 15.183 41.4259 25.8476 41.3004 27.6315C39.2483 35.2401 37.7941 43.0015 35.9159 50.6543C34.8835 54.7602 34.2461 58.7523 33.1571 62.8108C32.8465 63.9828 31.0711 63.4747 31.4057 62.2809Z" fill="#82929C" fill-opacity="0.24"/>
<path id="Vector_10" fill-rule="evenodd" clip-rule="evenodd" d="M42.4856 16.4751C43.2071 12.8842 51.4426 16.9503 53.7413 17.4137C57.4038 18.6521 61.1188 19.7013 64.8631 20.6302C75.8625 23.5589 87.0135 25.8931 97.8531 29.449C99.202 30.1091 106.145 31.3439 105.276 33.1693C104.456 34.5461 102.758 32.8676 101.651 32.6876C99.9845 32.0595 98.2721 31.5684 96.5757 31.0374C91.1376 29.2877 85.6255 27.7874 80.0893 26.4172C68.9095 23.8306 57.8495 20.7723 46.8988 17.2973C46.032 17.1151 45.1516 16.8779 44.2646 16.9197C43.7098 17.5243 42.5962 17.4205 42.4856 16.4751Z" fill="#82929C" fill-opacity="0.24"/>
<path id="Vector_11" fill-rule="evenodd" clip-rule="evenodd" d="M93.2776 79.5113C97.4627 65.5168 101.017 51.3231 104.74 37.1951C104.951 36.0327 105.192 34.8479 105.145 33.6595C104.642 32.8463 105.607 31.817 106.399 32.344C108.139 34.556 105.476 40.995 104.926 43.7135C102.765 51.2525 101.148 58.9479 98.8866 66.4599C97.5938 70.9845 96.4355 75.552 95.0282 80.041C94.7093 81.2104 92.9318 80.7027 93.2776 79.5113Z" fill="#82929C" fill-opacity="0.24"/>
<path id="Vector_12" fill-rule="evenodd" clip-rule="evenodd" d="M45.3894 68.6904C41.0595 67.2761 36.7465 65.7971 32.3896 64.4766C30.9382 64.3737 31.0838 62.0962 32.5841 62.544C45.3791 66.7998 58.3197 70.5189 71.2422 74.325C77.5241 76.0844 83.9279 77.5474 90.2232 79.2264C91.5115 79.458 92.8144 79.9533 94.1274 79.8582C95.2482 79.5404 95.7335 81.4165 94.5738 81.7058C91.0304 81.8964 87.5306 80.3543 84.0865 79.5859C71.0595 76.4664 58.2541 72.4604 45.3894 68.6904Z" fill="#82929C" fill-opacity="0.24"/>
<path id="Vector_13" fill-rule="evenodd" clip-rule="evenodd" d="M56.2028 97.6202C48.0502 95.0065 40.0064 91.7583 31.9025 89.0261C28.8525 87.7586 14.0935 85.4923 13.9494 82.2974C14.0323 81.5594 14.7204 81.1461 15.2571 80.7724C18.3128 78.5343 21.5273 76.5536 24.5996 74.3455C25.8332 73.7964 27.7598 70.7055 28.9707 72.4211C29.7784 74.1584 18.0461 80.6627 16.2473 82.3681C21.6002 84.6843 27.3509 85.6468 32.8836 87.3533C42.7544 90.7108 52.4381 94.7727 62.4915 97.4994C69.868 99.2515 77.0878 101.634 84.4337 103.5C86.1845 103.917 87.9089 104.311 89.5715 104.568C90.9479 105.039 96.1134 104.893 95.8507 106.794C95.3263 108.479 92.3473 106.606 91.0737 106.728C87.7247 106.253 84.4207 105.5 81.1451 104.637C72.8868 102.07 64.4693 100.139 56.2028 97.6202Z" fill="#82929C" fill-opacity="0.24"/>
<path id="Vector_14" fill-rule="evenodd" clip-rule="evenodd" d="M41.9512 77.4775C37.5006 76.0173 33.0518 74.5181 28.6055 73.0602C27.5005 72.375 28.544 70.7107 29.63 71.4318C43.89 76.4932 58.5542 79.8895 72.8476 84.7581C77.7876 86.1956 82.6157 87.9325 87.553 89.2141C88.7663 89.8103 92.3142 89.5888 92.1723 91.3636C92.0681 91.8515 91.5643 92.2217 91.0847 92.087C81.3517 89.7425 71.9402 86.2117 62.3387 83.3958C55.6097 81.1722 48.672 79.7309 41.9512 77.4775Z" fill="#82929C" fill-opacity="0.24"/>
<path id="Vector_15" fill-rule="evenodd" clip-rule="evenodd" d="M95.4787 108.001C95.1986 105.977 89.0169 89.4303 92.9426 90.7327C93.3671 90.9475 93.5549 91.4708 93.3984 91.9242C93.5903 94.9139 94.6174 98.0094 95.3224 100.847C95.9774 103.107 96.514 105.19 97.1918 107.349C97.6003 108.499 95.8733 109.169 95.4787 108.001Z" fill="#82929C" fill-opacity="0.24"/>
<path id="Vector_16" fill-rule="evenodd" clip-rule="evenodd" d="M64.6937 89.5688C51.3976 85.407 38.1857 80.4378 24.6326 77.4309C23.8563 77.5624 23.3052 76.4847 23.8332 75.8762C24.6837 75.0956 26.0099 75.676 27.0026 75.8421C37.3261 78.892 47.6954 81.7726 57.8559 85.3968C65.2914 87.7269 72.666 90.2552 80.1778 92.3169C83.7354 93.2726 87.3164 94.1366 90.8543 95.1707C91.7385 95.5309 93.5112 95.4447 93.2438 96.8598C92.8644 98.5679 88.1681 96.0673 86.8786 96.0269C79.4196 94.1269 71.9987 92.0427 64.6937 89.5688Z" fill="#82929C" fill-opacity="0.24"/>
<path id="Vector_17" fill-rule="evenodd" clip-rule="evenodd" d="M27.5488 83.2331C25.1958 82.3004 22.8615 81.2714 20.3982 80.6977C19.9193 80.5643 19.6435 80.003 19.7816 79.5149C20.5048 77.8817 23.3324 79.819 24.5756 80.0192C32.9242 83.4793 41.7326 85.4909 50.3424 88.1045C61.4301 91.5127 72.4895 95.0227 83.6588 98.1328C87.1275 98.9815 90.434 100.377 93.8521 101.397C94.9633 101.725 94.4834 103.584 93.338 103.225C71.5309 96.1755 49.3793 90.2158 27.5488 83.2331Z" fill="#82929C" fill-opacity="0.24"/>
<path id="Vector_18" fill-rule="evenodd" clip-rule="evenodd" d="M23.2646 85.3775C22.3902 83.9137 24.7814 82.831 25.4273 81.7105C26.5352 80.479 27.6279 79.2304 28.7229 77.9877C29.8398 76.6912 31.0293 75.4562 32.0347 74.0625C32.2549 73.5586 32.7884 73.2432 33.3015 73.487C35.1882 74.7835 30.9352 77.8461 30.2093 79.1079C28.9399 80.5487 27.6747 81.996 26.3864 83.4187C25.4721 84.0987 24.5471 86.4537 23.2646 85.3775Z" fill="#82929C" fill-opacity="0.24"/>
<path id="Vector_19" fill-rule="evenodd" clip-rule="evenodd" d="M30.705 88.1016C29.164 86.97 33.1539 83.2969 33.7446 81.9692C35.0364 80.1708 36.2878 78.331 37.7293 76.657C38.9448 74.6772 41.31 76.7057 39.2898 77.7111C36.9587 80.3892 35.0034 83.4474 32.9248 86.3288C32.3219 87.024 31.8558 88.7507 30.705 88.1016Z" fill="#82929C" fill-opacity="0.24"/>
<path id="Vector_20" fill-rule="evenodd" clip-rule="evenodd" d="M38.2892 90.5268C37.8459 90.3187 37.6143 89.7343 37.8311 89.268C39.6439 85.365 42.0167 81.6408 43.7148 77.7635C47.1144 76.963 43.5394 82.1588 42.9894 83.3645C42.1162 84.9783 41.2237 86.5832 40.3831 88.2162C39.811 89.0269 39.5965 91.0025 38.2892 90.5268Z" fill="#82929C" fill-opacity="0.24"/>
<path id="Vector_21" fill-rule="evenodd" clip-rule="evenodd" d="M45.4551 92.462C44.1245 91.5847 45.8321 89.7195 45.9894 88.6084C46.5281 87.0838 47.0225 85.5427 47.4867 83.9925C48.1266 82.5413 48.0577 80.2655 49.51 79.4443C50.2305 79.2448 50.9077 80.0577 50.585 80.77C49.2693 82.2916 47.5823 93.469 45.4551 92.462Z" fill="#82929C" fill-opacity="0.24"/>
<path id="Vector_22" fill-rule="evenodd" clip-rule="evenodd" d="M52.8556 94.9136C51.1469 94.2435 53.7432 89.5719 53.9657 88.1245C54.7503 85.9675 55.3921 83.7611 56.0081 81.551C56.2224 81.0828 56.7505 80.8553 57.2121 81.0731C58.6523 81.7702 56.2214 86.5387 55.9694 87.9199C55.3351 89.7465 54.6991 91.5758 54.1998 93.4506C54.0658 94.1825 53.7636 95.1842 52.8556 94.9136Z" fill="#82929C" fill-opacity="0.24"/>
<path id="Vector_23" fill-rule="evenodd" clip-rule="evenodd" d="M60.2405 96.8267C60.3916 93.6233 60.8754 90.4487 61.1501 87.2556C61.6026 86.0027 60.3165 81.9761 62.5839 82.833C64.0116 84.888 62.1857 91.9206 62.2096 94.7762C62.1391 95.5523 62.0916 96.123 62.0626 96.8679C62.0442 98.096 60.2034 98.0647 60.2405 96.8267Z" fill="#82929C" fill-opacity="0.24"/>
<path id="Vector_24" fill-rule="evenodd" clip-rule="evenodd" d="M67.5839 97.7733C67.5425 94.2473 66.5518 87.14 67.9153 84.2014C68.7547 83.3426 70.1095 84.6718 69.255 85.5636C68.9393 89.5448 69.1252 93.5883 69.3966 97.5713C69.5313 98.7895 67.7049 99.0051 67.5839 97.7733Z" fill="#82929C" fill-opacity="0.24"/>
<path id="Vector_25" fill-rule="evenodd" clip-rule="evenodd" d="M67.2999 98.6816C67.1242 96.9638 69.6793 96.9759 69.1639 98.7115C69.0517 99.9185 67.3176 99.9591 67.2999 98.6816Z" fill="#82929C" fill-opacity="0.24"/>
<path id="Vector_26" fill-rule="evenodd" clip-rule="evenodd" d="M74.0772 101.044C73.2011 96.806 73.8485 92.4828 74.0004 88.2083C73.3386 87.3616 74.4631 86.185 75.3016 86.775C76.4367 88.0742 75.5152 90.2762 75.6097 91.8913C75.4098 94.6885 75.308 97.5196 75.7941 100.292C76.3414 101.574 74.4586 102.443 74.0772 101.044Z" fill="#82929C" fill-opacity="0.24"/>
<path id="Vector_27" fill-rule="evenodd" clip-rule="evenodd" d="M82.864 103.463C81.1378 99.8573 81.0296 95.3782 80.0966 91.4324C80.014 90.2633 78.9831 87.4372 80.946 87.6387C81.944 87.9979 81.4801 89.3244 81.7403 90.1579C82.0845 92.4535 82.5728 94.7219 82.9895 97.004C83.3196 98.8331 83.7131 100.652 84.2327 102.433C84.4561 103.224 83.509 103.925 82.864 103.463Z" fill="#82929C" fill-opacity="0.24"/>
<path id="Vector_28" fill-rule="evenodd" clip-rule="evenodd" d="M88.7233 104.429C88.1893 101.179 87.7701 98.0175 87.0076 94.8406C86.9228 93.2981 85.1643 90.9056 86.6986 89.7885C87.3634 89.4952 88.1044 90.2108 87.9041 90.9195C88.3405 92.8036 88.8988 94.657 89.2482 96.5638C89.6094 99.2372 90.5408 102.059 90.3841 104.711C90.0004 105.413 88.8628 105.235 88.7233 104.429Z" fill="#82929C" fill-opacity="0.24"/>
<path id="Vector_29" fill-rule="evenodd" clip-rule="evenodd" d="M41.6371 57.7524C43.5202 46.4708 46.4057 35.3854 48.8163 24.2312C49.1332 23.0508 50.9053 23.5745 50.5668 24.7609C48.8815 32.2744 47.2229 39.7854 45.462 47.2302C44.7493 50.8217 44.0864 54.4241 43.4415 58.0298C43.2748 59.2359 41.4494 58.9802 41.6371 57.7524Z" fill="#82929C" fill-opacity="0.24"/>
<path id="Vector_30" fill-rule="evenodd" clip-rule="evenodd" d="M39.706 54.4891C37.7028 54.1348 38.621 51.1604 40.1835 52.6316C56.815 57.5122 73.6195 61.8466 90.2968 66.5943C91.4161 66.9216 90.9326 68.7793 89.79 68.4242C86.216 67.3802 82.622 66.4051 79.0292 65.4324C65.9292 61.7713 52.7652 58.2835 39.706 54.4891Z" fill="#82929C" fill-opacity="0.24"/>
<path id="Vector_31" fill-rule="evenodd" clip-rule="evenodd" d="M41.0036 47.7736C40.0014 46.3252 42.2652 45.8068 43.1404 45.2648C45.7211 43.9688 48.2242 42.5109 50.8076 41.223C57.2763 37.3776 57.4043 43.6585 57.317 48.703C63.0672 43.6866 64.0747 42.5944 65.8815 51.0916C67.652 51.668 68.8309 50.4568 70.5473 52.365C72.1087 51.2218 73.1521 49.4606 74.4313 48.0061C78.4789 43.7216 77.7701 53.5928 78.4614 55.7863C81.9091 53.4669 82.895 52.2515 84.9711 56.9316C86.9964 56.5804 87.901 55.1156 89.2653 57.8635C91.4156 56.0073 92.4874 53.1616 93.9318 50.7327C94.1812 50.2855 94.7686 50.153 95.1848 50.4195C96.3735 51.4423 94.5885 52.925 94.2353 54.0101C92.9623 56.3629 89.6247 62.7371 87.2747 58.1398C84.6272 59.8028 83.4325 58.4742 82.3654 55.9047C82.0181 55.1771 81.3987 56.2056 80.9733 56.411C75.4966 60.947 76.6232 52.617 75.7849 49.2787C74.1574 50.9589 72.9376 53.7671 70.5509 54.2795C69.5329 54.3557 69.0137 53.17 68.0828 53.0434C63.1924 54.3401 64.2238 49.6874 62.7254 46.7261C60.7358 47.7252 59.496 50.0734 57.3307 50.6997C52.7581 50.9422 58.7209 38.5767 51.6324 42.9165C49.8412 43.4759 41.8256 48.9625 41.0036 47.7736Z" fill="#82929C" fill-opacity="0.24"/>
<path id="Vector_32" fill-rule="evenodd" clip-rule="evenodd" d="M83.2426 47.4083C82.5986 46.5763 80.8776 45.0301 82.1402 44.0671C82.5655 43.8221 83.1502 43.9803 83.3779 44.4417C84.3986 47.1252 88.0344 48.2118 89.5573 45.4277C90.1946 41.6375 83.2821 41.2489 84.5017 37.4059C85.7659 35.4117 89.9378 34.6815 91.6887 36.1087C92.0576 36.769 91.4785 37.6411 90.7587 37.5107C89.2359 37.2092 87.3848 37.1935 86.1325 38.2668C87.7459 40.2844 90.7171 41.1855 91.342 44.0574C92.3114 48.5118 85.7269 50.6576 83.2426 47.4083Z" fill="#82929C" fill-opacity="0.24"/>
<path id="Vector_33" fill-rule="evenodd" clip-rule="evenodd" d="M84.7282 50.4835C85.3529 48.5082 87.1953 31.3282 89.4286 32.9951C90.7193 33.8042 89.0742 35.9902 89.0919 37.2573C88.4739 40.003 87.9113 42.7612 87.4275 45.537C86.9233 46.8471 87.1588 51.7687 85.4977 51.5638C85.0168 51.4911 84.6476 50.9974 84.7282 50.4835Z" fill="#82929C" fill-opacity="0.24"/>
<path id="Vector_34" fill-rule="evenodd" clip-rule="evenodd" d="M106.257 84.8641C106.623 80.8251 102.605 79.4512 103.884 78.1153C104.779 77.3136 105.673 78.5918 106.236 79.2402C107.213 80.3551 109.4 85.3685 107.157 85.8278C106.667 85.8252 106.255 85.386 106.257 84.8641Z" fill="#82929C" fill-opacity="0.24"/>
<path id="Vector_35" fill-rule="evenodd" clip-rule="evenodd" d="M110.808 85.48C111.325 82.0594 110.26 78.3684 107.762 76.0373C107.186 75.5464 106.629 74.9219 105.894 74.7131C104.794 74.397 105.23 72.5976 106.341 72.8673C111.025 74.8042 113.396 80.7341 112.61 85.7559C112.45 86.9703 110.631 86.7061 110.808 85.48Z" fill="#82929C" fill-opacity="0.24"/>
<path id="Vector_36" fill-rule="evenodd" clip-rule="evenodd" d="M115.8 84.7901C116.763 78.1271 114.741 72.7764 108.302 70.6075C106.932 70.8518 106.505 68.8008 107.952 68.6796C111.43 69.2908 115.096 71.9555 116.653 75.309C117.459 76.796 118.976 85.9614 116.57 85.8693C116.079 85.7981 115.738 85.3063 115.8 84.7901Z" fill="#82929C" fill-opacity="0.24"/>
</g>
</svg>
