<svg width="33" height="32" viewBox="0 0 33 32" fill="none" xmlns="http://www.w3.org/2000/svg">
<g id="Frame 372">
<g id="Group 21">
<path id="Vector" d="M20.8313 23.7849H12.1798V8.245H20.8315L20.8313 23.7849Z" fill="#FF5F00"/>
<path id="Vector_2" d="M12.7265 16.0132C12.7265 12.8609 14.2032 10.0529 16.5028 8.24322C14.7621 6.8714 12.6092 6.12686 10.3925 6.13014C4.93199 6.13014 0.505615 10.5549 0.505615 16.0132C0.505615 21.4715 4.93199 25.8962 10.3925 25.8962C12.6092 25.8995 14.7622 25.155 16.5029 23.7831C14.2035 21.9738 12.7265 19.1656 12.7265 16.0132Z" fill="#EB001B"/>
<path id="Vector_3" d="M32.501 16.0132C32.501 21.4715 28.0747 25.8962 22.6142 25.8962C20.3972 25.8995 18.244 25.155 16.5029 23.7831C18.8031 21.9735 20.2799 19.1656 20.2799 16.0132C20.2799 12.8607 18.8031 10.0529 16.5029 8.24322C18.2439 6.87144 20.3971 6.12692 22.614 6.13014C28.0745 6.13014 32.5009 10.5549 32.5009 16.0132" fill="#F79E1B"/>
</g>
</g>
</svg>
