<svg width="132" height="125" viewBox="0 0 132 125" fill="none" xmlns="http://www.w3.org/2000/svg">
<g id="Group">
<path id="Vector" fill-rule="evenodd" clip-rule="evenodd" d="M114.451 67.0787C117.483 64.8543 118.91 60.7115 117.767 57.0061C115.822 53.3248 112.223 50.8583 108.968 48.573C108.543 48.3031 108.465 47.6579 108.734 47.2488C109.947 45.5328 115.377 51.3974 116.606 52.371C122.66 57.4072 119.914 67.0348 113.349 70.0295C104.878 74.6236 94.9998 73.447 86.0419 76.2373C77.6649 78.0478 56.741 89.4163 50.0327 86.1829C45.8608 84.0575 42.2007 81.0157 38.4569 78.1827C33.1923 74.1162 27.5828 70.5542 22.347 66.4485C21.7859 65.8997 20.9072 65.4871 20.7551 64.6446C20.6834 63.8317 21.7026 63.2875 22.2733 63.8735C23.3765 64.9819 24.4961 65.7579 25.6973 66.671C29.7386 69.57 33.8188 72.411 37.8287 75.3588C42.1753 78.5396 46.2726 82.2072 51.0958 84.5953C56.5303 86.0055 64.1447 81.7947 69.4848 80.1906C76.7354 77.5312 83.871 74.3665 91.4833 72.994C99.2157 71.7307 107.769 71.8734 114.451 67.0787Z" fill="#82929C" fill-opacity="0.24"/>
<path id="Vector_2" fill-rule="evenodd" clip-rule="evenodd" d="M105.72 55.2805C97.2575 51.4236 90.0891 44.9965 81.5132 41.4656C80.1561 40.8426 81.338 38.9911 82.5303 39.76C87.8371 42.1924 92.7968 45.3172 97.6034 48.682C100.52 50.44 103.535 52.0102 106.545 53.5823C107.597 54.1235 106.768 55.8507 105.72 55.2805Z" fill="#82929C" fill-opacity="0.24"/>
<path id="Vector_3" fill-rule="evenodd" clip-rule="evenodd" d="M101.674 52.4552C101.576 49.4824 104.155 47.0367 105.658 44.6962C110.215 39.1375 117.239 35.6496 124.294 36.2967C117.667 33.109 111.48 28.6258 104.719 25.9033C98.2457 26.7458 92.5779 31.1376 88.6042 36.3741C87.4337 37.9542 86.2942 39.5769 85.3536 41.3193C85.1124 41.773 84.5853 41.979 84.1283 41.7376C81.9872 40.6369 89.371 32.5512 90.5063 31.3717C94.6198 27.5184 102.904 21.5405 108.292 25.3541C114.048 28.5742 119.834 31.7439 125.612 34.906C127.295 35.6642 128.848 38.2121 125.89 38.2061C116.568 37.0176 107.545 42.6136 103.565 51.4231C103.342 52.0072 103.577 52.8206 102.828 53.0541C102.36 53.2208 101.836 52.9487 101.674 52.4552Z" fill="#82929C" fill-opacity="0.24"/>
<path id="Vector_4" fill-rule="evenodd" clip-rule="evenodd" d="M108.974 48.6205C107.933 48.0671 104.594 47.2744 106.4 45.6681C107.383 45.3877 108.771 46.6718 109.799 46.9213C110.86 47.457 110.019 49.1952 108.974 48.6205Z" fill="#82929C" fill-opacity="0.24"/>
<path id="Vector_5" fill-rule="evenodd" clip-rule="evenodd" d="M20.7029 63.5949C21.3295 59.2642 31.6016 57.3099 35.1424 55.6434C43.0881 52.7144 50.9349 49.4557 58.6662 45.9559C69.0504 42.4208 73.4175 28.8728 85.6036 33.9606C86.481 34.5685 88.5943 34.7302 88.6261 35.9641C88.5945 36.4667 88.152 36.9064 87.6577 36.8537C79.438 32.6695 74.7566 35.3443 68.744 41.7648C66.0628 44.5243 62.5773 46.142 59.2135 47.7882C52.3449 50.9202 45.3456 53.7546 38.3287 56.5013C34.4564 58.3112 24.5804 60.3312 22.522 63.7185C22.4828 64.9424 20.5867 64.8309 20.7029 63.5949Z" fill="#82929C" fill-opacity="0.24"/>
<path id="Vector_6" fill-rule="evenodd" clip-rule="evenodd" d="M12.3963 84.8645C15.1671 84.6296 12.9355 89.754 10.6957 87.3336C9.59342 86.2109 11.0628 83.9759 12.3963 84.8645Z" fill="#82929C" fill-opacity="0.24"/>
<path id="Vector_7" fill-rule="evenodd" clip-rule="evenodd" d="M23.9742 80.9567C24.369 82.6273 20.5565 82.9842 19.5335 83.7365C18.655 83.9204 17.9386 84.8603 17.0413 84.6949C15.0094 83.189 18.5063 82.1306 19.6015 81.6604C20.8618 81.4536 23.1245 79.3316 23.9742 80.9567Z" fill="#82929C" fill-opacity="0.24"/>
<path id="Vector_8" fill-rule="evenodd" clip-rule="evenodd" d="M25.7253 86.6501C26.9849 86.3525 31.088 83.9608 33.4857 83.4735C29.6083 81.0291 25.652 78.7117 22.0698 75.8163C22.4957 77.5151 17.4239 78.1073 16.2254 78.8388C12.1188 80.5204 7.3134 81.5316 4.036 84.7176C6.36885 87.3953 9.57734 90.3597 12.9585 92.7654C14.1664 90.4929 24.5506 87.5189 25.7253 86.6501ZM41.5096 89.1631C37.3942 91.7249 32.6956 93.0734 28.288 94.9857C25.6681 95.8982 23.0134 97.7922 20.1801 96.7454C19.5428 96.5151 18.8938 96.2406 18.2373 95.9285C23.4205 94.3404 28.7045 91.8022 33.6913 89.6612C34.5578 88.9667 37.8498 88.1952 38.8355 87.063C39.7467 87.7323 40.6404 88.4285 41.5096 89.1631ZM41.9625 87.1681C42.6136 87.7368 43.7558 88.0969 43.7073 89.1566C42.4054 92.3658 34.6157 94.1343 31.5397 95.7156C27.2654 97.2112 22.8223 100.449 18.2894 98.0815C14.8544 96.7944 2.88404 88.2625 2.21038 84.7252C3.04479 80.8885 10.4164 79.288 13.5585 77.7704C16.0026 76.8922 18.468 76.0777 20.9041 75.1742C21.1884 75.0718 21.4939 75.134 21.7255 75.3082C21.6075 73.0478 24.0264 74.5949 24.7958 75.4919C26.303 76.7204 27.9011 77.8255 29.5391 78.8552C33.7758 81.4656 38.1663 83.8696 41.9625 87.1681Z" fill="#82929C" fill-opacity="0.24"/>
<path id="Vector_9" fill-rule="evenodd" clip-rule="evenodd" d="M16.2952 75.3808C16.4456 73.4244 19.5412 61.6592 21.924 62.729C22.7444 62.9887 22.7186 64.3155 21.8956 64.536C20.5959 66.9712 19.5363 69.5676 18.7714 72.2397C18.4803 73.3988 18.2743 74.5743 18.083 75.7542C17.8662 76.9618 16.0598 76.5942 16.2952 75.3808Z" fill="#82929C" fill-opacity="0.24"/>
<path id="Vector_10" fill-rule="evenodd" clip-rule="evenodd" d="M46.946 100.837C47.6356 96.8394 48.8457 92.9768 49.7632 89.0486C50.2038 87.9358 49.9552 86.0606 51.1961 85.5606C51.6773 85.4271 52.1748 85.8244 52.2675 86.3095C51.4718 90.1934 50.3014 94.118 49.3917 97.9642C48.8137 99.1666 49.3872 101.954 47.6625 101.957C47.1771 101.858 46.8512 101.348 46.946 100.837ZM51.5729 87.4225C51.6749 87.3992 51.7698 87.3551 51.8593 87.2978C51.8593 87.2978 51.8558 87.2999 51.8553 87.3018C51.8641 87.2951 51.872 87.2881 51.8806 87.2824C51.7876 87.3448 51.6836 87.3894 51.5729 87.4225Z" fill="#82929C" fill-opacity="0.24"/>
<path id="Vector_11" fill-rule="evenodd" clip-rule="evenodd" d="M45.1552 103.505C41.5196 101.911 38.3469 99.4713 35.1972 97.0389C34.4943 96.4087 32.9391 96.0047 33.2483 94.7803C34.0042 92.7552 37.2041 96.5062 38.3269 97.0583C40.8938 98.8407 44.0864 101.715 47.1479 101.905C47.5504 101.602 48.1462 101.76 48.4093 102.18C49.1351 104.097 46.2236 104.218 45.1552 103.505Z" fill="#82929C" fill-opacity="0.24"/>
<path id="Vector_12" fill-rule="evenodd" clip-rule="evenodd" d="M47.7575 104.992C45.1336 102.596 51.429 102.555 52.6608 102.207C58.4302 101.473 64.1465 100.412 69.8166 99.0872C79.0943 97.1672 88.4257 95.4737 97.5422 92.798C106.665 90.3845 114.464 89.2912 116.389 78.0339C116.387 78.0415 116.386 78.0495 116.384 78.0533C116.382 78.061 116.38 78.0687 116.379 78.0776C117.704 72.4199 119.466 66.6359 119.134 60.7534C118.831 59.6758 118.601 57.7303 120.289 58.4616C122.769 63.2409 118.206 79.4071 116.111 84.6283C113.639 90.3036 107.409 92.0285 102.131 93.5597C96.5226 94.9984 90.9682 96.6678 85.3037 97.8541C72.8436 100.466 60.2672 103.139 47.7575 104.992Z" fill="#82929C" fill-opacity="0.24"/>
<path id="Vector_13" fill-rule="evenodd" clip-rule="evenodd" d="M73.4515 51.4483C72.4303 50.1836 76.6556 47.6384 77.3968 46.4905C78.2226 45.4287 80.5496 43.9091 80.278 46.4327C79.2523 47.4538 78.0058 48.3623 76.9888 49.4923C75.9567 50.1409 74.7415 52.6517 73.4515 51.4483Z" fill="#82929C" fill-opacity="0.24"/>
<path id="Vector_14" fill-rule="evenodd" clip-rule="evenodd" d="M98.8045 58.665C91.4222 54.3771 84.5345 49.202 76.9734 45.2577C75.5449 44.7484 76.7254 42.6686 77.91 43.6162C83.6303 46.4684 88.8061 50.3666 94.2502 53.6879C95.3634 54.7317 101.2 56.7384 100.079 58.4604C99.7905 58.8842 99.2015 58.9684 98.8045 58.665Z" fill="#82929C" fill-opacity="0.24"/>
<path id="Vector_15" fill-rule="evenodd" clip-rule="evenodd" d="M91.0183 63.0215C90.7082 62.6091 90.7873 62.0105 91.1724 61.6845C92.9942 60.2089 94.6314 58.4358 96.5713 57.1417C97.9019 56.4616 98.7058 58.7807 97.182 58.9713C95.8123 59.6094 92.1257 64.5569 91.0183 63.0215Z" fill="#82929C" fill-opacity="0.24"/>
<path id="Vector_16" fill-rule="evenodd" clip-rule="evenodd" d="M92.3656 66.2339C85.1005 61.1559 77.3051 56.867 70.5083 51.0833C69.7182 50.0957 71.2615 48.8668 71.9671 49.9225C76.7204 53.6054 81.5914 57.1406 86.7318 60.2098C89.0324 61.6014 91.2117 63.1936 93.444 64.6988C94.4018 65.4009 93.3128 66.9817 92.3656 66.2339ZM70.9998 51.3944C71.0761 51.4102 71.1509 51.4204 71.2294 51.4212L71.2275 51.4206C71.236 51.419 71.2444 51.4174 71.2531 51.4148C71.1173 51.4196 70.9794 51.3924 70.8507 51.3358C70.8952 51.3659 70.9489 51.3769 70.9998 51.3944Z" fill="#82929C" fill-opacity="0.24"/>
<path id="Vector_17" fill-rule="evenodd" clip-rule="evenodd" d="M52.4098 80.1957C49.0838 76.7386 27.2776 65.4242 39.965 62.0447C45.1569 60.1053 50.2889 57.9937 55.4148 55.8719C56.766 55.5958 60.8224 52.9307 61.6279 54.0604C63.3736 52.7231 70.0797 58.9134 71.8115 60.1725C73.7202 62.3033 83.3251 67.297 79.4423 70.5185C75.2201 73.2864 70.4007 74.8877 65.9047 77.1011C61.7052 78.6433 56.9129 81.7613 52.4098 80.1957ZM53.5828 78.6643C57.6636 79.0506 61.5841 76.7609 65.3162 75.2917C69.712 73.0948 74.4998 71.6005 78.5869 68.799C77.0628 66.2255 74.3014 64.7466 72.1212 62.8376C68.8117 60.0039 65.3626 57.3257 61.5822 55.2615C54.8575 58.3736 47.8229 60.9974 40.911 63.7103C36.9142 64.837 37.2033 65.8323 40.1485 68.4673C44.3913 72.1883 49.1043 75.2978 53.5828 78.6643Z" fill="#82929C" fill-opacity="0.24"/>
<path id="Vector_18" fill-rule="evenodd" clip-rule="evenodd" d="M57.1539 61.9043C55.1684 60.1083 58.3204 57.6808 58.9934 60.0519C59.1244 59.0068 60.6696 59.0048 60.794 60.0627C61.2459 62.1962 58.5186 63.2625 57.1539 61.9043ZM58.8461 60.5945C58.9029 60.5836 58.9635 60.5696 59.0086 60.5291C59.0176 60.4319 58.9805 60.3322 58.9819 60.2337C58.9623 60.3621 58.9143 60.485 58.8461 60.5945Z" fill="#82929C" fill-opacity="0.24"/>
<path id="Vector_19" fill-rule="evenodd" clip-rule="evenodd" d="M62.6385 66.2478C60.5995 64.9114 62.7886 61.649 64.2898 63.4962C67.1247 62.1814 65.7887 68.2431 62.6385 66.2478Z" fill="#82929C" fill-opacity="0.24"/>
<path id="Vector_20" fill-rule="evenodd" clip-rule="evenodd" d="M67.9708 69.7509C65.1866 68.1817 69.0848 65.0232 69.6029 67.6837C71.8555 68.3133 69.4546 70.8339 67.9708 69.7509Z" fill="#82929C" fill-opacity="0.24"/>
<path id="Vector_21" fill-rule="evenodd" clip-rule="evenodd" d="M50.0329 66.1582C47.9232 64.9295 49.3157 61.6989 51.4287 63.2357C54.0277 63.7691 52.3156 67.636 50.0329 66.1582Z" fill="#82929C" fill-opacity="0.24"/>
<path id="Vector_22" fill-rule="evenodd" clip-rule="evenodd" d="M54.9605 69.8751C52.2724 69.0482 54.4762 65.5675 55.8662 67.3737C58.2899 66.3967 57.8992 70.9798 54.9605 69.8751Z" fill="#82929C" fill-opacity="0.24"/>
<path id="Vector_23" fill-rule="evenodd" clip-rule="evenodd" d="M59.5636 73.9561C57.4961 72.4601 60.8848 69.4368 61.8556 71.491C64.4236 71.7444 62.415 76.2503 59.5636 73.9561Z" fill="#82929C" fill-opacity="0.24"/>
<path id="Vector_24" fill-rule="evenodd" clip-rule="evenodd" d="M43.5458 67.8933C42.897 66.5247 45.1274 64.9187 45.7695 66.5309C48.1916 67.6886 44.3911 70.0521 43.5458 67.8933Z" fill="#82929C" fill-opacity="0.24"/>
<path id="Vector_25" fill-rule="evenodd" clip-rule="evenodd" d="M48.7034 71.9315C47.0074 70.3491 50.6242 67.6458 50.8043 70.304C52.696 71.6436 49.8731 73.4691 48.7034 71.9315Z" fill="#82929C" fill-opacity="0.24"/>
<path id="Vector_26" fill-rule="evenodd" clip-rule="evenodd" d="M54.2555 75.6821C53.7553 74.2013 56.2998 73.1151 56.5328 74.8596C57.471 76.4958 54.6706 77.4953 54.2555 75.6821Z" fill="#82929C" fill-opacity="0.24"/>
<path id="Vector_27" fill-rule="evenodd" clip-rule="evenodd" d="M99.6075 44.1759C97.2121 43.0117 94.9659 41.5242 92.5506 40.4102C90.6753 40.5579 91.4674 37.7765 93.0846 38.5896C95.6397 39.6917 97.9708 41.3039 100.485 42.5061C101.528 43.0768 100.635 44.7855 99.6075 44.1759Z" fill="#82929C" fill-opacity="0.24"/>
<path id="Vector_28" fill-rule="evenodd" clip-rule="evenodd" d="M102.749 41.0862C101.468 40.2758 92.3909 38.0507 94.8596 35.9223C95.2534 35.6688 95.7749 35.7746 96.055 36.1477C98.4186 37.398 100.923 38.3608 103.408 39.3098C104.511 39.7403 103.847 41.5381 102.749 41.0862Z" fill="#82929C" fill-opacity="0.24"/>
<path id="Vector_29" fill-rule="evenodd" clip-rule="evenodd" d="M105.725 38.4264C104.54 37.4452 96.5213 33.9444 97.4766 32.6594C98.3642 30.875 101.23 34.0137 102.507 34.3847C103.492 35.3116 107.719 36.4574 106.964 38.0496C106.724 38.5099 106.153 38.6702 105.725 38.4264Z" fill="#82929C" fill-opacity="0.24"/>
<path id="Vector_30" fill-rule="evenodd" clip-rule="evenodd" d="M109.635 35.4379C107.652 34.4629 105.633 33.5542 103.691 32.4939C102.927 31.9776 103.4 30.6321 104.302 30.7644C106.418 31.919 108.976 32.6608 110.795 34.1586C111.147 34.8864 110.352 35.7776 109.635 35.4379Z" fill="#82929C" fill-opacity="0.24"/>
<path id="Vector_31" fill-rule="evenodd" clip-rule="evenodd" d="M91.7033 90.1429C92.3498 88.9018 95.9299 88.2799 97.3012 87.8235C98.7796 87.7139 98.6178 89.8231 97.2056 89.7944C95.8357 89.7495 91.5944 92.8666 91.7033 90.1429Z" fill="#82929C" fill-opacity="0.24"/>
<path id="Vector_32" fill-rule="evenodd" clip-rule="evenodd" d="M101.359 87.0225C101.833 85.7649 103.612 86.4634 104.638 86.065C105.8 85.8576 106.106 87.7573 104.941 87.944C103.829 87.9658 101.248 89.0054 101.359 87.0225Z" fill="#82929C" fill-opacity="0.24"/>
<path id="Vector_33" fill-rule="evenodd" clip-rule="evenodd" d="M53.3416 37.9215C50.8152 36.4502 48.3665 34.8347 45.799 33.4394C45.1509 33.158 44.2407 32.7263 44.6155 31.8258C45.6039 30.1521 48.6465 33.2298 49.9499 33.6659C50.9134 34.6029 55.5177 36.0981 54.5946 37.6084C54.3437 38.054 53.7578 38.188 53.3416 37.9215Z" fill="#82929C" fill-opacity="0.24"/>
<path id="Vector_34" fill-rule="evenodd" clip-rule="evenodd" d="M59.0306 31.9497C57.9415 30.0565 56.9308 28.1141 55.937 26.1643C55.6552 25.4378 54.9622 24.6784 55.2323 23.8575C55.5176 23.1079 56.6642 23.1176 56.9128 23.8955C57.9864 26.3556 59.3318 28.6897 60.6257 31.0301C61.2082 32.0985 59.5986 33.0346 59.0306 31.9497Z" fill="#82929C" fill-opacity="0.24"/>
<path id="Vector_35" fill-rule="evenodd" clip-rule="evenodd" d="M68.5078 27.9059C68.3132 26.0085 67.7188 24.1775 67.2373 22.388C69.2392 19.1148 70.0824 26.3773 70.3176 27.6821C70.4703 28.8964 68.651 29.1402 68.5078 27.9059Z" fill="#82929C" fill-opacity="0.24"/>
</g>
</svg>
