<svg width="101" height="111" viewBox="0 0 101 111" fill="none" xmlns="http://www.w3.org/2000/svg">
<g id="Group">
<path id="Vector" fill-rule="evenodd" clip-rule="evenodd" d="M16.2412 72.8711C5.19049 68.8224 5.94632 57.3861 12.3123 49.1424C12.2618 47.8289 14.2268 47.8321 14.1455 49.1505C15.3955 59.2199 26.9344 56.8411 33.9144 57.3458C40.4899 57.9155 43.3095 64.9672 37.8805 69.5145C31.8739 74.2701 23.3349 75.1769 16.2412 72.8711ZM17.9059 71.4197C23.9449 73.2689 38.4686 71.7818 38.9515 63.3809C38.3856 59.922 34.4814 59.0383 31.6215 59.138C24.8447 59.2122 15.3394 59.9296 12.8117 51.5973C7.62953 59.4643 8.02804 68.5806 17.9059 71.4197Z" fill="#82929C" fill-opacity="0.24"/>
<path id="Vector_2" fill-rule="evenodd" clip-rule="evenodd" d="M29.7997 69.6959C24.9864 67.6824 29.0321 62.2866 32.7642 62.4717C33.531 61.8604 34.2794 62.7688 34.7108 63.3866C36.9183 66.5312 33.085 70.8868 29.7997 69.6959ZM30.3445 67.8796C32.2181 68.5402 34.6275 65.813 32.9713 64.1657C31.4802 64.4473 27.6824 66.4161 30.3445 67.8796Z" fill="#82929C" fill-opacity="0.24"/>
<path id="Vector_3" fill-rule="evenodd" clip-rule="evenodd" d="M22.501 57.7377C21.8947 56.1041 23.1548 54.1972 23.29 52.4933C24.3192 47.7014 25.0706 42.837 26.4514 38.1349C28.0452 32.045 35.5153 35.0342 39.898 34.6791C54.149 34.7772 68.6261 34.8646 82.5229 31.3327C85.3664 30.5732 94.9148 28.3228 94.8217 24.829C88.3068 18.1853 65.1992 19.382 55.8026 18.8508C52.6305 18.7758 49.4592 18.6189 46.2871 18.5835C45.0061 18.2572 41.2548 19.5977 41.0923 17.8829C40.4411 15.3435 57.5917 17.4537 59.9049 17.0231C68.7749 17.5032 90.9443 16.6234 96.4401 23.9549C98.5608 29.8623 85.1551 32.5591 81.3418 33.5696C74.8974 35.5401 68.1538 35.5702 61.5108 36.1325C51.7188 36.9141 41.8808 36.8011 32.0825 36.2098C29.4808 36.0242 28.1886 37.4467 27.8094 40.0533C27.3274 41.9448 26.8906 43.8458 26.4976 45.758C25.8336 49.1195 25.2265 52.4952 24.3905 55.8162C24.1382 56.9287 24.0785 58.9532 22.501 57.7377Z" fill="#82929C" fill-opacity="0.24"/>
<path id="Vector_4" fill-rule="evenodd" clip-rule="evenodd" d="M83.2266 61.4946C81.7224 60.6366 85.8558 56.4739 86.3097 55.1475C87.3883 53.4178 88.403 51.6417 89.4122 49.867C93.2682 42.7793 96.6385 34.3808 95.0399 26.1495C93.746 24.4993 96.4453 23.6671 96.8147 25.6601C98.8868 36.429 93.4693 46.944 88.099 55.7639C87.1232 56.8313 84.6083 62.6009 83.2266 61.4946Z" fill="#82929C" fill-opacity="0.24"/>
<path id="Vector_5" fill-rule="evenodd" clip-rule="evenodd" d="M20.4644 93.1712C15.5616 90.8225 18.3568 84.0551 18.5363 79.7568C18.9855 78.379 19.1337 71.7195 20.8528 72.172C22.4935 72.7132 20.6705 76.1821 20.7232 77.5671C20.2019 81.4455 19.3445 85.2826 19.5242 89.1972C20.1154 92.6835 24.5637 91.732 27.0246 92.5985C36.4469 94.9249 46.2289 94.2589 55.7404 92.9114C64.3767 91.5417 74.6823 91.6817 80.577 83.8127C83.7043 79.2341 84.6969 73.4631 86.3132 68.1837C87.7843 61.3175 89.7016 54.4729 91.2319 47.6663C90.9181 46.4511 92.1032 45.1961 92.9552 46.5283C93.2663 50.0694 91.4695 53.566 90.7711 57.0087C89.3633 62.7832 88.2916 68.6491 86.4762 74.3096C84.6151 81.9979 80.8891 88.7782 73.3436 91.4702C66.9784 93.928 60.061 94.0606 53.4144 95.1142C42.4294 96.8414 31.1849 96.0675 20.4644 93.1712Z" fill="#82929C" fill-opacity="0.24"/>
<path id="Vector_6" fill-rule="evenodd" clip-rule="evenodd" d="M12.8596 50.3249C13.7671 44.5229 15.486 38.9164 17.106 33.2998C17.79 31.9629 18.5861 25.362 20.2818 26.0573C21.8766 26.5701 19.3242 31.105 19.2407 32.4998C18.2079 36.0496 17.1733 39.5988 16.2223 43.1733C15.5888 45.6551 15.0634 48.1674 14.6465 50.698C14.4319 51.9011 12.6273 51.5414 12.8596 50.3249Z" fill="#82929C" fill-opacity="0.24"/>
<path id="Vector_7" fill-rule="evenodd" clip-rule="evenodd" d="M9.14239 84.9896C5.61213 81.3781 8.98409 71.3591 9.38973 66.4525C9.75751 65.3114 11.4678 65.882 11.1227 67.0383C10.4859 71.8302 9.27017 76.6197 9.41425 81.4293C9.49867 82.322 9.91965 83.125 10.5266 83.7491C11.3103 84.6629 9.90123 85.9428 9.14239 84.9896Z" fill="#82929C" fill-opacity="0.24"/>
<path id="Vector_8" fill-rule="evenodd" clip-rule="evenodd" d="M17.0326 91.4686C15.77 90.8856 6.84989 84.7134 11.2721 84.1975C12.937 86.1983 14.9512 88.0414 17.2256 89.398C18.7107 89.7964 18.7247 91.9577 17.0326 91.4686Z" fill="#82929C" fill-opacity="0.24"/>
<path id="Vector_9" fill-rule="evenodd" clip-rule="evenodd" d="M13.839 88.2368C14.0532 86.46 15.7128 72.0835 17.7967 73.2398C18.9402 73.7211 18.0952 75.0426 17.9413 75.9111C17.4954 77.6439 17.0667 79.386 16.7335 81.1466C16.2949 83.5363 15.8467 85.9315 15.6575 88.3592C15.5908 89.5852 13.7534 89.4737 13.839 88.2368Z" fill="#82929C" fill-opacity="0.24"/>
<path id="Vector_10" fill-rule="evenodd" clip-rule="evenodd" d="M10.7815 85.701C11.4934 81.5294 11.5186 76.3172 13.7323 72.7395C14.431 72.2233 15.44 72.9887 15.1366 73.8432C13.4027 77.4505 13.2055 81.8851 12.6006 85.8246C12.5288 87.0511 10.6909 86.9343 10.7815 85.701Z" fill="#82929C" fill-opacity="0.24"/>
<path id="Vector_11" fill-rule="evenodd" clip-rule="evenodd" d="M18.0392 56.8144C18.4012 54.3921 22.4764 34.2992 25.0261 35.6829C25.8369 36.125 25.4432 37.0251 25.1043 37.6627C23.8621 40.8503 22.8033 44.1164 21.899 47.425C21.0924 50.6508 20.3722 53.9027 19.827 57.1878C19.6121 58.3918 17.8066 58.0318 18.0392 56.8144Z" fill="#82929C" fill-opacity="0.24"/>
<path id="Vector_12" fill-rule="evenodd" clip-rule="evenodd" d="M16.1781 55.1863C16.0345 53.119 20.0576 31.3114 22.4237 33.2038C23.1442 33.5904 22.9154 34.4238 22.5943 35.0189C21.7787 37.0937 21.2108 39.2632 20.6417 41.4229C19.6641 45.3018 18.7644 49.202 18.133 53.1616C17.92 54.0061 18.2221 55.0157 17.7656 55.7614C17.2737 56.3798 16.1839 56.0032 16.1781 55.1863Z" fill="#82929C" fill-opacity="0.24"/>
<path id="Vector_13" fill-rule="evenodd" clip-rule="evenodd" d="M24.447 37.8408C22.606 36.8069 25.8253 33.3056 26.6513 32.2719C27.6492 31.2434 28.9166 30.4787 30.3138 30.2633C37.9489 29.7076 45.6521 31.2651 53.3205 30.884C64.7177 30.5922 76.1284 29.3811 87.3963 27.6646C89.0195 27.4385 90.6711 27.4156 92.2879 27.7123C92.7782 27.794 93.0972 28.3393 93.0032 28.8334C92.575 30.2613 90.8156 29.1917 89.7924 29.3912C75.989 31.039 62.1279 33.1399 48.1809 32.7351C42.935 33.2693 32.3093 30.408 28.5055 33.1141C27.6046 33.8357 26.9016 34.7848 26.3215 35.7971C25.7577 36.5239 25.6526 38.1983 24.447 37.8408Z" fill="#82929C" fill-opacity="0.24"/>
<path id="Vector_14" fill-rule="evenodd" clip-rule="evenodd" d="M22.0606 34.9657C20.2433 34.1305 23.5197 30.2685 23.9992 29.0082C28.092 21.9713 39.2338 27.2625 45.7033 26.8486C57.7744 27.3636 69.8634 28.6158 81.9404 27.5127C83.2825 27.7012 86.3988 26.3341 86.7844 28.1102C86.8177 28.6262 86.4308 29.0921 85.9361 29.1236C84.0185 29.2439 82.1055 29.4198 80.19 29.5648C66.7209 30.3185 53.208 29.2559 39.7759 28.2542C35.7436 27.743 31.3307 26.4847 27.4027 28.0174C25.6674 29.0976 24.8905 31.2309 23.9239 32.9341C23.4224 33.684 23.2369 35.3143 22.0606 34.9657Z" fill="#82929C" fill-opacity="0.24"/>
<path id="Vector_15" fill-rule="evenodd" clip-rule="evenodd" d="M27.5884 25.5169C27.7071 23.8226 28.5064 22.1947 28.8858 20.5335C29.3023 19.3134 29.4842 17.8798 30.3859 16.9252C34.4263 14.7707 39.9348 18.5967 44.0866 19.3522C56.1183 22.3007 68.2094 25.4191 80.5805 26.257C81.8811 26.6599 85.9937 25.6546 85.9603 27.4653C85.8778 29.2341 80.8765 27.9248 79.6028 28.0974C72.0404 27.5059 64.5528 26.3062 57.2128 24.3038C49.8252 22.9803 42.5923 21.03 35.4644 18.614C34.2485 18.423 32.2207 17.4742 31.3844 18.7285C30.6152 20.8913 30.0499 23.1303 29.3989 25.3339C29.4128 26.4417 27.7938 26.6274 27.5884 25.5169Z" fill="#82929C" fill-opacity="0.24"/>
<path id="Vector_16" fill-rule="evenodd" clip-rule="evenodd" d="M60.9176 24.0723C60.4488 23.9024 60.193 23.3513 60.3547 22.861C60.9558 21.5895 62.6502 22.6779 63.7209 22.4294C71.1712 22.0156 78.7264 22.0146 86.0612 23.6042C91.993 25.5959 84.4172 29.4405 86.061 25.6155C81.4194 24.3556 76.4851 24.3002 71.7133 24.0285C68.1253 23.9558 64.4694 24.7432 60.9176 24.0723Z" fill="#82929C" fill-opacity="0.24"/>
<path id="Vector_17" fill-rule="evenodd" clip-rule="evenodd" d="M39.6002 18.1801C39.1142 17.2054 40.4258 16.2021 41.1174 17.0745C41.8267 17.16 42.8216 17.3685 42.6436 18.3494C42.3081 19.6689 40.115 19.0688 39.6002 18.1801Z" fill="#82929C" fill-opacity="0.24"/>
<path id="Vector_18" fill-rule="evenodd" clip-rule="evenodd" d="M26.9447 58.2757C25.6423 57.6599 26.866 56.0678 27.0367 55.0701C27.1931 54.5771 27.732 54.3143 28.1964 54.482C29.4885 55.0957 28.2928 56.6984 28.1045 57.6876C27.9416 58.1787 27.4105 58.4458 26.9447 58.2757Z" fill="#82929C" fill-opacity="0.24"/>
<path id="Vector_19" fill-rule="evenodd" clip-rule="evenodd" d="M27.8269 50.641C27.9102 49.7324 28.2752 48.8674 28.5007 47.9882C28.8716 46.8179 30.6132 47.448 30.2221 48.6122C30.0061 49.3599 29.7629 50.1015 29.6129 50.866C29.3339 51.8414 27.8665 51.6701 27.8269 50.641Z" fill="#82929C" fill-opacity="0.24"/>
<path id="Vector_20" fill-rule="evenodd" clip-rule="evenodd" d="M30.0354 44.3552C28.9849 43.7395 29.7234 42.3421 30.3423 41.6715C31.6715 40.6371 32.477 42.4143 31.3532 43.4443C31.4259 44.1638 30.6347 44.6906 30.0354 44.3552Z" fill="#82929C" fill-opacity="0.24"/>
<path id="Vector_21" fill-rule="evenodd" clip-rule="evenodd" d="M34.929 41.7869C33.4331 39.9996 36.5352 39.5756 37.6984 39.9858C38.858 40.2108 38.4976 42.0985 37.3414 41.8538C36.5194 41.528 35.6729 42.1755 34.929 41.7869ZM35.9668 41.772C35.9704 41.77 35.9742 41.767 35.9787 41.7652C36.0052 41.7451 36.0319 41.724 36.0575 41.7037C36.0546 41.7069 36.0517 41.7102 36.049 41.7125C36.0755 41.6852 36.102 41.6578 36.1283 41.6314C36.1436 41.6121 36.158 41.5925 36.1723 41.5729C36.112 41.6504 36.0428 41.7169 35.9668 41.772Z" fill="#82929C" fill-opacity="0.24"/>
<path id="Vector_22" fill-rule="evenodd" clip-rule="evenodd" d="M41.7939 41.8855C40.4982 40.544 42.5279 39.7704 43.6384 39.8566C44.6464 39.9316 46.5678 39.1034 46.828 40.6094C46.6522 42.3624 44.2148 41.4073 43.0637 41.8314C42.6413 41.9326 42.2076 42.2293 41.7939 41.8855Z" fill="#82929C" fill-opacity="0.24"/>
<path id="Vector_23" fill-rule="evenodd" clip-rule="evenodd" d="M50.3293 41.1159C49.429 39.4183 51.4151 39.4821 52.4724 39.6199C53.3157 39.7179 54.8314 39.3728 54.8157 40.6954C54.7819 41.2276 54.3441 41.6 53.8474 41.585C52.7152 41.3903 51.2892 41.8322 50.3293 41.1159Z" fill="#82929C" fill-opacity="0.24"/>
<path id="Vector_24" fill-rule="evenodd" clip-rule="evenodd" d="M59.8273 41.5238C58.8882 41.2178 59.1235 39.6743 60.0908 39.6766C61.2764 39.8333 63.5932 38.6918 63.9908 40.3705C64.024 40.8802 63.6381 41.36 63.1425 41.3839C62.0401 41.3803 60.9176 41.6361 59.8273 41.5238Z" fill="#82929C" fill-opacity="0.24"/>
<path id="Vector_25" fill-rule="evenodd" clip-rule="evenodd" d="M67.1464 40.4372C66.9633 39.3147 68.2314 39.2165 68.9902 39.0515C69.8725 38.951 71.4946 38.3477 71.6724 39.7195C71.7254 40.7183 70.7056 40.7761 69.9967 40.8115C69.0652 40.8232 67.5276 41.8445 67.1464 40.4372Z" fill="#82929C" fill-opacity="0.24"/>
<path id="Vector_26" fill-rule="evenodd" clip-rule="evenodd" d="M76.3652 38.9743C76.4077 37.5547 78.2715 37.9271 79.1915 37.5466C79.6775 37.4459 80.1647 37.7869 80.2626 38.2965C80.4463 39.417 79.2062 39.4895 78.4547 39.6462C77.6979 39.8544 76.4793 40.1374 76.3652 38.9743Z" fill="#82929C" fill-opacity="0.24"/>
<path id="Vector_27" fill-rule="evenodd" clip-rule="evenodd" d="M83.6827 38.0026C82.8345 36.455 85.6224 35.9141 86.5418 36.1111C88.0171 37.3903 86.0928 38.0885 84.9892 38.2512C84.5885 38.5474 83.9402 38.4751 83.6827 38.0026Z" fill="#82929C" fill-opacity="0.24"/>
<path id="Vector_28" fill-rule="evenodd" clip-rule="evenodd" d="M90.1152 35.3438C90.5647 34.4002 91.8757 34.6574 92.6499 34.0807C93.7069 33.5365 94.5128 35.2691 93.4454 35.7935C92.45 36.2845 89.8487 37.5108 90.1152 35.3438Z" fill="#82929C" fill-opacity="0.24"/>
<path id="Vector_29" fill-rule="evenodd" clip-rule="evenodd" d="M23.4317 77.0905C23.1115 76.143 23.5923 72.7812 25.0515 73.2873C25.8534 73.5851 25.6834 74.4581 25.3985 75.0913C25.2647 75.639 25.1607 76.1947 25.0871 76.7554C24.9761 77.5734 23.8303 77.7909 23.4317 77.0905Z" fill="#82929C" fill-opacity="0.24"/>
<path id="Vector_30" fill-rule="evenodd" clip-rule="evenodd" d="M22.871 83.2109C22.5533 82.3944 22.8699 81.2045 23.3796 80.529C24.1801 79.7854 25.3863 80.9499 24.7187 81.8358C24.6349 82.1779 24.5725 82.5255 24.5263 82.8759C24.4144 83.6936 23.2707 83.9107 22.871 83.2109Z" fill="#82929C" fill-opacity="0.24"/>
<path id="Vector_31" fill-rule="evenodd" clip-rule="evenodd" d="M24.0115 88.5351C23.1999 88.3333 22.7219 87.2184 23.5212 86.6732C24.3646 86.1882 25.1674 87.1911 26.0241 87.2838C26.7817 87.5078 26.8341 88.7177 26.1234 89.0399C25.4123 89.3171 24.6719 88.7756 24.0115 88.5351Z" fill="#82929C" fill-opacity="0.24"/>
<path id="Vector_32" fill-rule="evenodd" clip-rule="evenodd" d="M31.2953 90.1356C30.1092 89.3478 31.2026 87.9744 32.3564 88.3537C33.438 88.6519 35.696 87.9713 35.8276 89.5998C35.7965 90.1078 35.3538 90.5339 34.8602 90.4897C33.6827 90.3073 32.4539 90.3571 31.2953 90.1356Z" fill="#82929C" fill-opacity="0.24"/>
<path id="Vector_33" fill-rule="evenodd" clip-rule="evenodd" d="M39.2412 89.6074C39.427 88.2384 41.1065 88.834 42.0255 88.7019C42.5218 88.7043 42.9076 89.2208 42.8765 89.7142C42.7964 90.8091 41.6021 90.5904 40.8571 90.6085C40.1574 90.7185 39.1924 90.5566 39.2412 89.6074Z" fill="#82929C" fill-opacity="0.24"/>
<path id="Vector_34" fill-rule="evenodd" clip-rule="evenodd" d="M47.0675 90.3555C45.7026 89.6344 46.8386 88.1865 48.0344 88.3745C48.8501 88.3704 50.2341 87.9616 50.3609 89.194C50.3565 90.6127 48.6772 90.1243 47.7908 90.3079C47.5628 90.394 47.3132 90.4538 47.0675 90.3555Z" fill="#82929C" fill-opacity="0.24"/>
<path id="Vector_35" fill-rule="evenodd" clip-rule="evenodd" d="M54.555 89.4938C53.8309 88.6886 54.8415 87.4089 55.7377 87.9955C56.6874 88.1122 58.2953 87.1787 58.6665 88.5465C59.0625 90.0905 55.2231 90.2207 54.555 89.4938Z" fill="#82929C" fill-opacity="0.24"/>
<path id="Vector_36" fill-rule="evenodd" clip-rule="evenodd" d="M62.0497 88.4418C59.7112 86.486 64.2405 86.2272 65.3753 85.92C66.5282 85.6692 66.8887 87.5575 65.729 87.7895C64.5014 87.9427 63.2662 88.4653 62.0497 88.4418ZM62.9554 88.239C62.9794 88.2172 63.0034 88.1953 63.0283 88.1737C63.0277 88.1756 63.0263 88.1772 63.0263 88.1772C63.044 88.1493 63.0623 88.1226 63.08 88.0946C63.0424 88.1478 63.0003 88.1954 62.9554 88.239Z" fill="#82929C" fill-opacity="0.24"/>
<path id="Vector_37" fill-rule="evenodd" clip-rule="evenodd" d="M69.6674 85.6406C69.0311 83.7449 72.2828 84.2552 73.335 83.6814C74.4879 83.4275 74.8472 85.3164 73.689 85.55C72.4539 85.6333 70.5787 86.9241 69.6674 85.6406Z" fill="#82929C" fill-opacity="0.24"/>
<path id="Vector_38" fill-rule="evenodd" clip-rule="evenodd" d="M77.5693 83.6626C76.3582 83.091 77.1528 81.6887 78.2024 81.6065C79.0201 81.3761 80.3156 80.4845 80.7745 81.7009C80.9335 82.1914 80.6715 82.742 80.2006 82.9066C79.3208 83.088 78.4625 83.7851 77.5693 83.6626Z" fill="#82929C" fill-opacity="0.24"/>
<path id="Vector_39" fill-rule="evenodd" clip-rule="evenodd" d="M82.7598 80.4921C81.488 79.5357 83.6351 77.5724 84.4651 78.8511C85.0776 79.8006 83.5921 81.0792 82.7598 80.4921Z" fill="#82929C" fill-opacity="0.24"/>
<path id="Vector_40" fill-rule="evenodd" clip-rule="evenodd" d="M19.4301 26.8137C21.1947 23.4624 25.4322 22.1066 28.8303 21.3692C30.1773 20.7306 31.3475 22.5609 29.7904 23.1454C26.6875 23.6119 23.3079 24.8004 21.1878 27.3029C21.19 27.2952 21.1921 27.2875 21.1917 27.2853C20.8767 28.4049 19.1887 27.9586 19.4301 26.8137Z" fill="#82929C" fill-opacity="0.24"/>
</g>
</svg>
