<svg width="33" height="32" viewBox="0 0 33 32" fill="none" xmlns="http://www.w3.org/2000/svg">
<g id="Visa" clip-path="url(#clip0_445_41077)">
<g id="Group 20">
<path id="Subtract" d="M21.4395 10.6666C22.638 10.6667 23.7881 11.1158 23.7881 11.1158L23.415 13.3287C22.2977 12.6962 19.7554 12.5466 19.7549 13.7115C19.7549 14.8764 23.3984 15.126 23.3984 17.8053C23.3984 20.3852 20.7106 21.3335 18.9287 21.3336C17.164 21.3336 16.003 20.7623 15.9814 20.7516L16.3691 18.4381C17.4383 19.3198 20.6777 19.5698 20.6777 18.1715C20.6775 16.7733 17.0664 16.7399 17.0664 14.0778C17.0666 11.2485 20.1437 10.6666 21.4395 10.6666ZM12.375 10.8512L8.2207 21.1559H5.5L3.23145 12.2028C3.60445 12.4332 3.99159 12.7042 4.375 13.0231C5.73555 14.1543 6.40874 15.4949 6.66016 16.0944L6.78125 16.4117V16.4127L6.78027 16.4117L7.0752 17.9381L9.56445 10.8512H12.375ZM14.3721 21.1559H11.7607L13.3936 10.8512H16.0049L14.3721 21.1559ZM30.4092 10.8502L32.5 21.1559H30.1025L29.7969 19.6246H26.4775L25.9326 21.1559H23.2109L27.1055 11.6188C27.1055 11.6188 27.3413 10.8502 28.3105 10.8502H30.4092ZM27.2295 17.5104H29.373L28.6016 13.6539L27.2295 17.5104ZM2.80859 11.9567C2.92475 12.0211 3.04329 12.089 3.16309 12.1617C3.04327 12.0891 2.92476 12.0211 2.80859 11.9567ZM2.52441 11.8043C2.57418 11.83 2.62505 11.8552 2.67578 11.8824C2.62505 11.8553 2.57418 11.83 2.52441 11.8043ZM2.22754 11.6559C2.27959 11.6807 2.3323 11.7065 2.38574 11.733C2.3323 11.7065 2.27958 11.6807 2.22754 11.6559ZM1.49707 11.3444C1.69534 11.4208 1.91711 11.5109 2.1543 11.6217C1.91713 11.5109 1.6953 11.4208 1.49707 11.3444ZM1.07812 11.192C1.14124 11.213 1.20883 11.2358 1.28027 11.2614C1.20884 11.2357 1.14122 11.213 1.07812 11.192ZM0.758789 11.0934C0.806327 11.107 0.860017 11.122 0.918945 11.1403C0.86003 11.122 0.806307 11.107 0.758789 11.0934Z" fill="#2566AF"/>
<path id="Vector" d="M6.79275 16.2684L5.91249 11.7496C5.91249 11.7496 5.80605 10.8448 4.67151 10.8448H0.548381L0.5 11.015C0.5 11.015 2.48174 11.4257 4.38257 12.9645C6.20008 14.4353 6.79275 16.2684 6.79275 16.2684Z" fill="#E6A540"/>
</g>
</g>
<defs>
<clipPath id="clip0_445_41077">
<rect width="32" height="32" fill="white" transform="translate(0.5)"/>
</clipPath>
</defs>
</svg>
